<svg width="194" height="89" viewBox="0 0 194 89" fill="none" xmlns="http://www.w3.org/2000/svg">
<path fill-rule="evenodd" clip-rule="evenodd" d="M20.1803 61.3871C9.67518 66.4162 2.60034 76.6467 1.57763 88.2873V88.2881C1.56435 88.6851 1.24001 89 0.84444 89C0.448869 89 0.124531 88.6851 0.111251 88.2881C-0.157312 85.5721 0.0613207 82.8297 0.756771 80.1912C4.70295 69.012 13.5162 60.2535 24.6898 56.4069C28.0291 54.9106 31.5498 53.9059 35.144 53.411C34.6692 54.342 34.2498 55.3043 33.8893 56.2933C29.0861 57.2424 24.4566 58.9596 20.1803 61.3871ZM37.1839 55.7665C36.0781 55.9021 34.9792 56.0779 33.8893 56.2933C33.6655 56.9074 33.4643 57.5318 33.2867 58.1654C31.7299 63.9623 33.3674 70.153 37.5837 74.4103C41.4706 77.7217 46.9026 78.5056 51.561 76.4275C56.3874 74.2488 58.7856 68.7534 57.1093 63.7136C55.089 57.8788 49.8587 53.7681 43.7325 53.2005C42.0386 53.0513 40.3422 53.0156 38.6541 53.0913C38.7114 53.0068 38.7695 52.9228 38.8284 52.8392C42.6536 47.686 47.8331 43.7048 53.7858 41.3424C66.7586 36.2798 80.5591 33.6952 94.4772 33.7217C96.5084 33.6136 98.5403 33.5201 100.572 33.4266C105.569 33.1967 110.564 32.9669 115.549 32.5208C121.946 32.3054 128.226 30.7386 133.98 27.9226C135.135 27.3183 136.209 26.5944 137.187 25.7694C137.344 25.7793 137.501 25.788 137.659 25.7954C143.62 26.5377 149.66 26.3599 155.568 25.268C167.362 23.1657 178.271 17.598 186.913 9.26927C187.009 9.17475 187.104 9.07992 187.199 8.98478C185.9 11.4025 184.759 13.9087 183.783 16.4874C183.12 18.1557 185.811 18.9335 186.44 17.238C188.305 12.4476 190.565 7.82885 193.195 3.43173C193.43 2.97887 193.326 2.43153 192.969 2.09968C193.027 1.82859 193.004 1.54072 192.894 1.27406C192.686 0.769915 192.203 0.434638 191.66 0.416599L173.019 0.941033C172.186 0.968401 171.526 1.65374 171.526 2.48984C171.526 3.32593 172.186 4.01127 173.019 4.03864L188.68 3.29974C181.51 11.649 172.081 17.7654 161.509 20.8878C155.799 22.647 149.854 23.5115 143.882 23.4506C142.438 23.4909 140.997 23.4532 139.564 23.339C141.468 20.9752 142.763 18.1285 143.268 15.048C144.331 9.92291 142.151 4.66852 137.778 1.81758C134.788 0.278554 131.4 -0.303569 128.071 0.149607C125.05 0.294401 122.149 1.37847 119.768 3.25178C117.741 5.39919 116.659 8.27506 116.766 11.232C116.873 14.189 118.159 16.9785 120.336 18.9728C124.001 22.0772 128.355 24.2035 132.998 25.1932C130.414 26.9082 127.451 28.0419 124.311 28.4678C117.674 29.7137 110.946 30.4047 104.195 30.5335C102.246 30.6374 100.295 30.73 98.3445 30.8227C93.1964 31.0672 88.0472 31.3117 82.9132 31.7622C69.1639 32.1828 55.7678 36.2348 44.0749 43.5099C40.2565 45.9791 37.1871 49.4049 35.144 53.411C36.3076 53.2508 37.4788 53.144 38.6541 53.0913C38.0764 53.9436 37.5859 54.8397 37.1839 55.7665ZM135.893 22.8755C137.108 23.0861 138.333 23.2408 139.564 23.339C138.853 24.2206 138.058 25.0351 137.187 25.7694C135.772 25.6797 134.373 25.4863 132.998 25.1932C134.027 24.5102 134.996 23.735 135.893 22.8755ZM135.893 22.8755C132.491 22.2859 129.167 21.2585 126.006 19.8107C123.196 18.5043 121.02 16.1287 119.958 13.2085C118.931 10.547 119.563 7.52757 121.571 5.50689C123.991 3.70239 126.978 2.83278 129.984 3.05704C133.008 2.85136 135.982 3.91176 138.201 5.98648C141.08 9.85959 141.358 15.0909 138.906 19.2497C138.033 20.5808 137.021 21.7948 135.893 22.8755ZM191.251 2.44461L190.48 1.09591C189.897 1.84672 189.297 2.58149 188.68 3.29974L190.722 3.20343C190.896 2.94919 191.073 2.69624 191.251 2.44461ZM37.1839 55.7665C37.3905 55.7412 37.5974 55.7173 37.8045 55.6947C44.0873 54.4523 50.4835 57.2224 53.8954 62.6635C55.2182 65.0029 55.3973 67.8228 54.3813 70.312C53.3648 72.3333 51.5236 73.8111 49.3362 74.3613C44.5787 75.7816 39.4935 73.5574 37.2893 69.0921C35.3552 64.8194 35.3582 59.9751 37.1839 55.7665Z" fill="#E7C4B2"/>
</svg>
