<svg width="193" height="167" viewBox="0 0 193 167" fill="none" xmlns="http://www.w3.org/2000/svg">
<path fill-rule="evenodd" clip-rule="evenodd" d="M138.956 9.17352C131.885 2.267 122.051 -1.01186 112.265 0.274544C102.736 1.61961 94.2711 7.07895 89.0968 15.2164C86.1426 19.7792 84.343 24.9961 83.8542 30.4145L85.1626 29.1001C73.0531 28.0499 60.8702 29.9603 49.6582 34.6676C40.2425 39.1816 33.5911 47.9918 31.812 58.3059C30.8842 63.7801 32.0419 69.4041 35.0555 74.062L35.9267 71.9168C21.1433 75.6799 8.8653 85.9764 2.55435 99.9034C-0.272308 106.968 -0.767533 114.756 1.14131 122.124C3.00437 128.893 7.32453 134.718 13.2525 138.455C19.571 142.631 27.4196 143.755 34.6513 141.521L32.6465 140.381C36.9739 153.222 48.0408 162.6 61.3865 164.734C76.4409 167.73 92.0608 165.639 105.804 158.786C114.023 154.909 121.487 149.595 127.848 143.092L126.656 143.588C135.017 144.106 143.401 143.069 151.386 140.529C158.771 138.319 165.779 134.997 172.169 130.676C178.085 126.767 183.042 121.565 186.667 115.461C189.959 109.712 191.406 103.084 190.811 96.481C190.331 89.1681 186.746 82.4133 180.965 77.9308V80.9357C189.094 74.7157 193.579 64.8274 192.913 54.5942C192.133 46.7243 188.25 39.4934 182.127 34.51C176.004 29.5266 168.15 27.2039 160.311 28.0585L161.536 31.0262C167.056 25.7193 168.563 17.4617 165.276 10.5375C161.824 3.80384 154.248 0.288802 146.897 2.01053C142.846 2.81396 139.234 5.08953 136.753 8.40059C136.302 9.18812 136.564 10.193 137.342 10.6574C138.129 11.094 139.119 10.8338 139.591 10.0663C143.455 5.52353 149.713 3.84455 155.321 5.84622C160.984 8.06214 164.361 13.9166 163.453 19.9449C163.122 23.2652 161.564 26.341 159.085 28.5669C158.606 29.0696 158.468 29.8088 158.733 30.4515C158.998 31.0942 159.617 31.519 160.31 31.5346C169.4 30.4994 178.392 34.1619 184.189 41.2602C189.715 48.3233 191.126 57.7828 187.904 66.1592C186.252 70.8696 183.225 74.9717 179.215 77.9308C178.757 78.208 178.45 78.6798 178.382 79.2119C178.314 79.744 178.491 80.2783 178.864 80.6629C188.459 89.2165 190.389 103.516 183.405 114.32C179.733 120.255 174.731 125.248 168.797 128.903C162.274 133.069 155.145 136.194 147.665 138.165C143.622 139.273 139.482 139.983 135.302 140.286C133.275 140.418 131.24 140.405 129.211 140.339C128.218 140.181 127.207 140.156 126.207 140.265C125.33 140.731 124.569 141.389 123.982 142.191C118.717 147.306 112.716 151.598 106.18 154.926C93.7417 161.574 79.5442 164.161 65.5696 162.324C53.5559 161.21 42.8894 154.155 37.1357 143.518C36.574 142.222 36.1233 140.881 35.7886 139.509C35.5422 138.643 34.6501 138.136 33.7834 138.368C21.6333 141.784 8.91963 135.186 4.68153 123.265C2.43803 116.638 2.44528 109.452 4.70214 102.83C6.93848 96.2219 10.9203 90.3465 16.2232 85.8295C22.1998 80.7348 29.1762 76.9554 36.701 74.7357C37.1343 74.6101 37.4863 74.2921 37.6562 73.873C37.8261 73.4539 37.7951 72.9798 37.5721 72.5864C32.9391 64.5607 33.6195 54.5189 39.2926 47.1956C45.767 38.8512 55.4167 33.592 65.9194 32.6837C72.2947 31.8084 78.7335 31.4876 85.1638 31.7247C85.8795 31.7099 86.4564 31.1323 86.4726 30.4145C87.3665 21.5754 91.954 13.5307 99.0968 8.27659C106.374 3.08008 115.539 1.30108 124.223 3.39931C129.27 4.54033 133.979 6.85838 137.966 10.1655C138.244 10.4126 138.665 10.4002 138.927 10.1371C139.189 9.87408 139.202 9.45159 138.955 9.17352H138.956Z" fill="#E7C4B2"/>
</svg>
