<svg viewBox="0 0 18 18" xmlns="http://www.w3.org/2000/svg" xmlns:xlink="http://www.w3.org/1999/xlink" width="18.000000" height="18.000000" fill="none" customFrame="#000000">
	<path id="Vector(Border)" d="M5.89384 0.068898C5.68426 0.022966 5.46965 0 5.25 0L3 0C2.78036 -5.96046e-08 2.56576 0.0229643 2.35619 0.068893C2.17782 0.107982 2.00311 0.163705 1.83203 0.236063C1.66084 0.308472 1.49902 0.39506 1.34657 0.495829C1.17933 0.606379 1.02336 0.733996 0.87868 0.878679C0.733996 1.02336 0.606379 1.17933 0.495829 1.34657C0.39506 1.49902 0.308472 1.66084 0.236063 1.83203C0.163707 2.0031 0.107985 2.17781 0.0688962 2.35617C0.0229654 2.56575 0 2.78036 0 3L0 5.25C-5.96046e-08 5.46964 0.0229643 5.68424 0.068893 5.89381C0.107982 6.07218 0.163705 6.24689 0.236063 6.41797C0.308471 6.58916 0.395058 6.75098 0.495825 6.90342C0.606376 7.07067 0.733994 7.22663 0.878679 7.37132C1.02336 7.516 1.17933 7.64362 1.34658 7.75417C1.49902 7.85494 1.66084 7.94153 1.83203 8.01394C2.20411 8.17131 2.59343 8.25 3 8.25L5.25 8.25C5.46965 8.25 5.68427 8.22703 5.89385 8.1811C6.0722 8.14201 6.24691 8.08629 6.41797 8.01394C6.58915 7.94153 6.75096 7.85495 6.9034 7.75419C7.07066 7.64363 7.22663 7.51601 7.37132 7.37132C7.51601 7.22663 7.64363 7.07066 7.75418 6.90341C7.85495 6.75097 7.94153 6.58915 8.01394 6.41797C8.17131 6.04589 8.25 5.65657 8.25 5.25L8.25 3C8.25 2.78036 8.22703 2.56574 8.1811 2.35617C8.14201 2.17781 8.08629 2.0031 8.01394 1.83203C7.94153 1.66085 7.85495 1.49904 7.75419 1.3466C7.64364 1.17935 7.51601 1.02337 7.37132 0.87868C7.22664 0.733997 7.07067 0.60638 6.90343 0.49583C6.75098 0.395061 6.58916 0.308472 6.41797 0.236063C6.2469 0.163709 6.07219 0.107987 5.89384 0.068898ZM15.6438 0.0688943C15.4342 0.0229648 15.2196 0 15 0L12.75 0C12.3434 -5.96046e-08 11.9541 0.0786875 11.582 0.236063C11.223 0.387909 10.9052 0.602114 10.6287 0.87868C10.484 1.02337 10.3564 1.17935 10.2458 1.34661C10.145 1.49904 10.0585 1.66085 9.98606 1.83203C9.9137 2.00311 9.85798 2.17783 9.81889 2.3562C9.77296 2.56576 9.75 2.78037 9.75 3L9.75 5.25C9.75 5.46963 9.77296 5.68423 9.81889 5.89379C9.85798 6.07216 9.9137 6.24689 9.98606 6.41797C10.1379 6.77697 10.3521 7.09476 10.6287 7.37132C10.9052 7.64789 11.223 7.86209 11.582 8.01394C11.9541 8.17131 12.3434 8.25 12.75 8.25L15 8.25C15.2196 8.25 15.4343 8.22703 15.6438 8.1811C15.8222 8.14201 15.9969 8.08629 16.168 8.01394C16.527 7.86209 16.8448 7.64789 17.1213 7.37132C17.3979 7.09475 17.6121 6.77697 17.7639 6.41797C17.9213 6.04589 18 5.65657 18 5.25L18 3C18 2.78037 17.977 2.56576 17.9311 2.3562C17.892 2.17783 17.8363 2.00311 17.7639 1.83203C17.6121 1.47303 17.3979 1.15524 17.1213 0.87868C16.8448 0.602115 16.527 0.387909 16.168 0.236063C15.9969 0.163706 15.8222 0.107983 15.6438 0.0688943ZM3 1.5L5.25 1.5C5.45378 1.5 5.64833 1.53919 5.83364 1.61757C5.91502 1.65199 5.99222 1.69288 6.06522 1.74023C6.15311 1.79723 6.23492 1.8636 6.31066 1.93934C6.3864 2.01508 6.45277 2.09689 6.50977 2.18478C6.55712 2.25778 6.59801 2.33497 6.63243 2.41636C6.66531 2.49411 6.6913 2.57348 6.71039 2.65447C6.7368 2.76654 6.75 2.88171 6.75 3L6.75 5.25C6.75 5.36829 6.73679 5.48348 6.71038 5.59555C6.6913 5.67654 6.66531 5.7559 6.63243 5.83364C6.598 5.91503 6.55712 5.99223 6.50976 6.06524C6.45276 6.15312 6.38639 6.23493 6.31066 6.31066C6.23493 6.38639 6.15312 6.45276 6.06524 6.50976C5.99223 6.55712 5.91503 6.598 5.83364 6.63243C5.7559 6.66531 5.67654 6.6913 5.59555 6.71038C5.48348 6.73679 5.36829 6.75 5.25 6.75L3 6.75C2.88171 6.75 2.76653 6.73679 2.65446 6.71038C2.57347 6.6913 2.4941 6.66531 2.41636 6.63243C2.33497 6.59801 2.25777 6.55712 2.18477 6.50976C2.09688 6.45276 2.01507 6.38639 1.93934 6.31066C1.80069 6.17201 1.69344 6.01301 1.61757 5.83364C1.58469 5.75589 1.5587 5.67652 1.53961 5.59552C1.5132 5.48346 1.5 5.36828 1.5 5.25L1.5 3C1.5 2.88171 1.5132 2.76654 1.53961 2.65447C1.5587 2.57348 1.58469 2.49411 1.61757 2.41636C1.652 2.33497 1.69289 2.25777 1.74024 2.18476C1.79724 2.09688 1.86361 2.01507 1.93934 1.93934C2.01507 1.86361 2.09687 1.79724 2.18475 1.74024C2.25776 1.69289 2.33497 1.652 2.41636 1.61757C2.49411 1.58469 2.57348 1.5587 2.65448 1.53961C2.76654 1.5132 2.88172 1.5 3 1.5ZM12.75 1.5L15 1.5C15.1183 1.5 15.2335 1.5132 15.3455 1.53961C15.4265 1.5587 15.5059 1.58469 15.5836 1.61757C15.763 1.69344 15.922 1.80069 16.0607 1.93934C16.1993 2.07799 16.3066 2.23699 16.3824 2.41636C16.4608 2.60167 16.5 2.79622 16.5 3L16.5 5.25C16.5 5.3683 16.4868 5.48349 16.4604 5.59557C16.4413 5.67655 16.4153 5.75591 16.3824 5.83364C16.348 5.91501 16.3071 5.9922 16.2598 6.06519C16.2028 6.15309 16.1364 6.23491 16.0607 6.31066C15.922 6.44931 15.763 6.55656 15.5836 6.63243C15.3983 6.71081 15.2038 6.75 15 6.75L12.75 6.75C12.5462 6.75 12.3517 6.71081 12.1664 6.63243C12.085 6.59801 12.0078 6.55713 11.9348 6.50979C11.8469 6.45278 11.7651 6.38641 11.6893 6.31066C11.5507 6.17201 11.4434 6.013 11.3676 5.83364C11.2892 5.64833 11.25 5.45378 11.25 5.25L11.25 3C11.25 2.8817 11.2632 2.76651 11.2896 2.65444C11.3087 2.57346 11.3347 2.4941 11.3676 2.41636C11.402 2.33499 11.4429 2.2578 11.4902 2.18481C11.5472 2.09691 11.6136 2.01509 11.6893 1.93934C11.828 1.80069 11.987 1.69344 12.1664 1.61757C12.3517 1.53919 12.5462 1.5 12.75 1.5ZM5.89379 9.81889C5.68423 9.77296 5.46963 9.75 5.25 9.75L3 9.75C2.78037 9.75 2.56577 9.77296 2.3562 9.81889C2.17784 9.85798 2.00311 9.9137 1.83203 9.98606C1.47303 10.1379 1.15524 10.3521 0.87868 10.6287C0.602115 10.9052 0.387909 11.223 0.236063 11.582C0.0786876 11.9541 0 12.3434 0 12.75L0 15C0 15.2196 0.0229655 15.4343 0.0688964 15.6438C0.107985 15.8222 0.163708 15.9969 0.236063 16.168C0.387909 16.527 0.602115 16.8448 0.87868 17.1213C1.15525 17.3979 1.47303 17.6121 1.83203 17.7639C2.20411 17.9213 2.59343 18 3 18L5.25 18C5.46964 18 5.68424 17.977 5.89381 17.9311C6.07217 17.892 6.24689 17.8363 6.41797 17.7639C6.77697 17.6121 7.09476 17.3979 7.37132 17.1213C7.51601 16.9766 7.64362 16.8207 7.75418 16.6534C7.85494 16.501 7.94153 16.3392 8.01394 16.168C8.17131 15.7959 8.25 15.4066 8.25 15L8.25 12.75C8.25 12.5303 8.22703 12.3157 8.1811 12.1061C8.14201 11.9278 8.08629 11.7531 8.01394 11.582C7.94153 11.4108 7.85493 11.249 7.75416 11.0966C7.64361 10.9293 7.516 10.7734 7.37132 10.6287C7.09476 10.3521 6.77697 10.1379 6.41797 9.98606C6.24689 9.9137 6.07216 9.85798 5.89379 9.81889ZM15.6438 9.81888C15.4342 9.77296 15.2196 9.75 15 9.75L12.75 9.75C12.5304 9.75 12.3158 9.77296 12.1062 9.81889C11.9278 9.85798 11.7531 9.9137 11.582 9.98606C11.4109 10.0585 11.2491 10.145 11.0966 10.2458C10.9294 10.3563 10.7734 10.484 10.6287 10.6287C10.3521 10.9052 10.1379 11.223 9.98606 11.582C9.9137 11.7531 9.85798 11.9278 9.81889 12.1062C9.77296 12.3158 9.75 12.5304 9.75 12.75L9.75 15C9.75 15.2196 9.77297 15.4343 9.8189 15.6438C9.85799 15.8222 9.91371 15.9969 9.98606 16.168C10.1379 16.527 10.3521 16.8448 10.6287 17.1213C10.9052 17.3979 11.223 17.6121 11.582 17.7639C11.9541 17.9213 12.3434 18 12.75 18L15 18C15.2196 18 15.4342 17.977 15.6438 17.9311C15.8222 17.892 15.9969 17.8363 16.168 17.7639C16.527 17.6121 16.8448 17.3979 17.1213 17.1213C17.3979 16.8448 17.6121 16.527 17.7639 16.168C17.9213 15.7959 18 15.4066 18 15L18 12.75C18 12.5304 17.977 12.3158 17.9311 12.1062C17.892 11.9278 17.8363 11.7531 17.7639 11.582C17.6121 11.223 17.3979 10.9052 17.1213 10.6287C16.8448 10.3521 16.527 10.1379 16.168 9.98606C15.9969 9.9137 15.8221 9.85797 15.6438 9.81888ZM3 11.25L5.25 11.25C5.3683 11.25 5.48349 11.2632 5.59557 11.2896C5.67655 11.3087 5.75591 11.3347 5.83364 11.3676C6.013 11.4434 6.17201 11.5507 6.31066 11.6893C6.38641 11.7651 6.45278 11.8469 6.50979 11.9348C6.55713 12.0078 6.59801 12.085 6.63243 12.1664C6.71081 12.3517 6.75 12.5462 6.75 12.75L6.75 15C6.75 15.1183 6.7368 15.2335 6.71039 15.3455C6.6913 15.4265 6.66531 15.5059 6.63243 15.5836C6.55656 15.763 6.44931 15.922 6.31066 16.0607C6.17201 16.1993 6.01301 16.3066 5.83364 16.3824C5.64833 16.4608 5.45378 16.5 5.25 16.5L3 16.5C2.8817 16.5 2.76651 16.4868 2.65444 16.4604C2.57346 16.4413 2.4941 16.4153 2.41636 16.3824C2.33498 16.348 2.2578 16.3071 2.1848 16.2598C2.09691 16.2028 2.01508 16.1364 1.93934 16.0607C1.80069 15.922 1.69344 15.763 1.61757 15.5836C1.58468 15.5059 1.5587 15.4265 1.53961 15.3455C1.5132 15.2335 1.5 15.1183 1.5 15L1.5 12.75C1.5 12.5462 1.53919 12.3517 1.61757 12.1664C1.65199 12.085 1.69287 12.0078 1.74022 11.9348C1.79722 11.8469 1.8636 11.7651 1.93934 11.6893C2.07799 11.5507 2.237 11.4434 2.41636 11.3676C2.60167 11.2892 2.79622 11.25 3 11.25ZM12.75 11.25L15 11.25C15.1183 11.25 15.2335 11.2632 15.3456 11.2896C15.4266 11.3087 15.5059 11.3347 15.5836 11.3676C15.763 11.4434 15.922 11.5507 16.0607 11.6893C16.1993 11.828 16.3066 11.987 16.3824 12.1664C16.4608 12.3517 16.5 12.5462 16.5 12.75L16.5 15C16.5 15.1183 16.4868 15.2335 16.4604 15.3456C16.4413 15.4266 16.4153 15.5059 16.3824 15.5836C16.3066 15.763 16.1993 15.922 16.0607 16.0607C15.922 16.1993 15.763 16.3066 15.5836 16.3824C15.3983 16.4608 15.2038 16.5 15 16.5L12.75 16.5C12.5462 16.5 12.3517 16.4608 12.1664 16.3824C11.987 16.3066 11.828 16.1993 11.6893 16.0607C11.5507 15.922 11.4434 15.763 11.3676 15.5836C11.2892 15.3983 11.25 15.2038 11.25 15L11.25 12.75C11.25 12.5462 11.2892 12.3517 11.3676 12.1664C11.4434 11.987 11.5507 11.828 11.6893 11.6893C11.828 11.5507 11.987 11.4434 12.1664 11.3676C12.3517 11.2892 12.5462 11.25 12.75 11.25Z" fill="rgb(153,153,153)" fill-rule="evenodd" />
</svg>
