<svg viewBox="0 0 19.5039 19.5021" xmlns="http://www.w3.org/2000/svg" xmlns:xlink="http://www.w3.org/1999/xlink" width="19.503906" height="19.502075" fill="none" customFrame="#000000">
	<path id="Vector(Border)" d="M7.5023 0.75C7.5023 0.33 7.1723 0 6.7523 0C6.3323 0 6.0023 0.33 6.0023 0.75L6.0023 2.25564C4.33188 2.2808 2.67131 2.39007 1.0206 2.58346C0.900182 2.59757 0.779814 2.61212 0.659498 2.62713C0.242726 2.6791 -0.0439034 3.0474 0.00806737 3.46417C0.0600381 3.88094 0.428336 4.16757 0.845109 4.1156C0.934533 4.10445 1.02399 4.09355 1.11347 4.08291C2.97989 3.86097 4.8595 3.75 6.7523 3.75C7.5514 3.75 8.34853 3.76981 9.14367 3.80944C8.88366 4.76162 8.54253 5.68649 8.12028 6.58405C7.88779 7.07825 7.63303 7.55927 7.35602 8.02711C7.16536 8.34911 6.96416 8.66486 6.75241 8.97437C6.70135 8.89967 6.65084 8.82454 6.6009 8.74898C6.24295 8.20744 5.9175 7.64933 5.62453 7.07466C5.40902 6.65193 5.21109 6.22023 5.03074 5.77957C4.87166 5.39087 4.44125 5.21045 4.05255 5.36954C3.66384 5.52863 3.48342 5.95903 3.64251 6.34774C3.84154 6.83405 4.06025 7.31029 4.29864 7.77648C4.61441 8.394 4.96472 8.99388 5.34955 9.57609C5.49672 9.79876 5.64833 10.0179 5.80435 10.2335C5.52816 10.5678 5.24024 10.8908 4.94059 11.2025C4.50082 11.6601 4.0358 12.0934 3.54554 12.5024C2.99846 12.9588 2.42774 13.3784 1.83335 13.7614C1.37248 14.0583 0.897389 14.3332 0.408074 14.5859C0.0349257 14.7787 -0.106804 15.2234 0.0859648 15.5965C0.278733 15.9697 0.723381 16.1114 1.09653 15.9186C1.63444 15.6407 2.15651 15.3383 2.66274 15.0114C3.30261 14.5982 3.91717 14.1458 4.50643 13.6542C5.0385 13.2103 5.54319 12.7401 6.02052 12.2436C6.27204 11.982 6.51597 11.7131 6.7523 11.4368C7.03279 11.7644 7.32491 12.0828 7.62866 12.3919C7.92306 12.6914 8.38973 12.6955 8.68928 12.4011C8.98884 12.1067 8.99289 11.64 8.6985 11.3405C8.34899 10.9848 8.01621 10.6159 7.70017 10.2336C8.03412 9.77253 8.34582 9.29824 8.63527 8.81073C8.94084 8.29607 9.22161 7.76669 9.47758 7.22258C9.78216 6.57515 10.0479 5.91464 10.2749 5.24105C10.4226 4.80288 10.5538 4.35918 10.6686 3.90994C11.3342 3.96454 11.9979 4.03309 12.6595 4.1156C13.0763 4.16757 13.4446 3.88094 13.4965 3.46417C13.5485 3.0474 13.2619 2.6791 12.8451 2.62713C11.9462 2.51504 11.0439 2.42792 10.1379 2.36576C9.26167 2.30564 8.38313 2.26894 7.5023 2.25565L7.5023 0.75ZM12.8227 7.18284L7.57267 18.4328C7.39505 18.8134 7.55454 19.252 7.93514 19.4296C8.31574 19.6073 8.75433 19.4478 8.93194 19.0672L10.1299 16.5L16.8747 16.5L18.0727 19.0672C18.2503 19.4478 18.6889 19.6073 19.0695 19.4296C19.4501 19.252 19.6096 18.8134 19.4319 18.4328L14.1819 7.18284C14.1051 7.01808 13.9842 6.89725 13.8195 6.82036C13.3664 6.60892 13.0341 6.72974 12.8227 7.18284ZM16.1747 15L10.8299 15L13.5023 9.27353L16.1747 15Z" fill="rgb(153,153,153)" fill-rule="evenodd" />
</svg>
