<svg viewBox="0 0 19.5 19.5" xmlns="http://www.w3.org/2000/svg" xmlns:xlink="http://www.w3.org/1999/xlink" width="19.500000" height="19.500000" fill="none" customFrame="#000000">
	<path id="Vector(Border)" d="M5.25 0.75C5.25 0.33 4.92 0 4.5 0C4.08 0 3.75 0.33 3.75 0.75L3.75 2.25L3 2.25C2.78036 2.25 2.56575 2.27296 2.35618 2.31889C2.17782 2.35798 2.0031 2.41371 1.83203 2.48606C1.66084 2.55847 1.49902 2.64506 1.34658 2.74583C1.17933 2.85638 1.02336 2.984 0.87868 3.12868C0.733996 3.27336 0.606379 3.42933 0.495829 3.59657C0.39506 3.74902 0.308472 3.91084 0.236063 4.08203C0.163708 4.2531 0.107985 4.42781 0.0688965 4.60617C0.0229657 4.81575 2.38419e-07 5.03036 2.38419e-07 5.25L1.78814e-07 9L0 16.5C5.96046e-08 16.9066 0.0786877 17.2959 0.236063 17.668C0.308471 17.8392 0.395058 18.001 0.495826 18.1534C0.606377 18.3207 0.733995 18.4766 0.87868 18.6213C1.15524 18.8979 1.47303 19.1121 1.83203 19.2639C2.00311 19.3363 2.17783 19.392 2.3562 19.4311C2.56576 19.477 2.78037 19.5 3 19.5L16.5 19.5C16.9066 19.5 17.2959 19.4213 17.668 19.2639C18.027 19.1121 18.3448 18.8979 18.6213 18.6213C18.8979 18.3448 19.1121 18.027 19.2639 17.668C19.4213 17.2959 19.5 16.9066 19.5 16.5L19.5 5.25C19.5 5.03033 19.477 4.81569 19.4311 4.60609C19.392 4.42776 19.3363 4.25307 19.2639 4.08203C19.1121 3.72303 18.8979 3.40525 18.6213 3.12868C18.4766 2.98399 18.3207 2.85637 18.1534 2.74582C18.001 2.64506 17.8392 2.55847 17.668 2.48606C17.2959 2.32869 16.9066 2.25 16.5 2.25L15.75 2.25L15.75 0.75C15.75 0.33 15.42 0 15 0C14.58 0 14.25 0.33 14.25 0.75L14.25 2.25L5.25 2.25L5.25 0.75ZM4.5 3.75L3 3.75C2.88171 3.75 2.76654 3.7632 2.65447 3.78961C2.57348 3.8087 2.49411 3.83469 2.41636 3.86757C2.33498 3.90199 2.25778 3.94288 2.18478 3.99023C2.09689 4.04723 2.01508 4.1136 1.93934 4.18934C1.8636 4.26508 1.79723 4.34689 1.74023 4.43478C1.69288 4.50778 1.65199 4.58498 1.61757 4.66636C1.58469 4.7441 1.5587 4.82347 1.53962 4.90447C1.51321 5.01653 1.5 5.13171 1.5 5.25L1.5 6.40102C1.60646 6.33965 1.71714 6.28466 1.83203 6.23606C2.0031 6.16371 2.17781 6.10799 2.35617 6.0689C2.56574 6.02297 2.78036 6 3 6L16.5 6C16.9066 6 17.2959 6.07869 17.668 6.23606C17.7829 6.28466 17.8935 6.33965 18 6.40102L18 5.25C18 5.04622 17.9608 4.85167 17.8824 4.66636C17.8066 4.487 17.6993 4.32799 17.5607 4.18934C17.422 4.05069 17.263 3.94344 17.0836 3.86757C17.0059 3.83469 16.9265 3.8087 16.8455 3.78961C16.7335 3.7632 16.6183 3.75 16.5 3.75L4.5 3.75ZM18 9C18 8.79622 17.9608 8.60167 17.8824 8.41636C17.8066 8.237 17.6993 8.07799 17.5607 7.93934C17.422 7.80069 17.263 7.69344 17.0836 7.61757C17.0059 7.58469 16.9265 7.5587 16.8455 7.53961C16.7335 7.5132 16.6183 7.5 16.5 7.5L3 7.5C2.79622 7.5 2.60167 7.53919 2.41636 7.61757C2.33498 7.65199 2.25779 7.69287 2.18479 7.74022C2.0969 7.79722 2.01508 7.8636 1.93934 7.93934C1.80069 8.07799 1.69344 8.237 1.61757 8.41636C1.58469 8.49411 1.5587 8.57348 1.53961 8.65448C1.5132 8.76654 1.5 8.88171 1.5 9L1.5 16.5C1.5 16.6183 1.5132 16.7335 1.53961 16.8455C1.5587 16.9265 1.58469 17.0059 1.61757 17.0836C1.69344 17.263 1.80069 17.422 1.93934 17.5607C2.07799 17.6993 2.23699 17.8066 2.41636 17.8824C2.49413 17.9153 2.57353 17.9413 2.65456 17.9604C2.76659 17.9868 2.88174 18 3 18L16.5 18C16.7038 18 16.8983 17.9608 17.0836 17.8824C17.263 17.8066 17.422 17.6993 17.5607 17.5607C17.6993 17.422 17.8066 17.263 17.8824 17.0836C17.9608 16.8983 18 16.7038 18 16.5L18 9Z" fill="rgb(153,153,153)" fill-rule="evenodd" />
</svg>
