<svg viewBox="0 0 19.5 18" xmlns="http://www.w3.org/2000/svg" xmlns:xlink="http://www.w3.org/1999/xlink" width="19.500000" height="18.000000" fill="none" customFrame="#000000">
	<path id="Union" d="M4.49986 1.5C4.09029 1.5 3.6935 1.55472 3.31641 1.65724C3.8091 0.674537 4.8257 0 5.99986 0L13.4999 0C14.674 0 15.6906 0.674537 16.1833 1.65724C15.8062 1.55472 15.4094 1.5 14.9999 1.5L4.49986 1.5ZM1.81641 4.65724C2.1935 4.55472 2.59029 4.5 2.99986 4.5L16.4999 4.5C16.9094 4.5 17.3062 4.55472 17.6833 4.65724C17.1906 3.67454 16.174 3 14.9999 3L4.49986 3C3.3257 3 2.3091 3.67454 1.81641 4.65724ZM0 9C0 7.34315 1.34315 6 3 6L16.5 6C18.1569 6 19.5 7.34315 19.5 9L19.5 15C19.5 16.6569 18.1569 18 16.5 18L3 18C1.34315 18 0 16.6569 0 15L0 9Z" fill="rgb(153,153,153)" fill-rule="evenodd" />
</svg>
