<svg viewBox="0 0 19.5 19.5" xmlns="http://www.w3.org/2000/svg" xmlns:xlink="http://www.w3.org/1999/xlink" width="19.500000" height="19.500000" fill="none" customFrame="#000000">
	<path id="Vector(Border)" d="M5.95463 18.7335C7.16279 19.2445 8.42791 19.5 9.75 19.5C11.0721 19.5 12.3372 19.2445 13.5454 18.7335C14.0954 18.5009 14.6157 18.2231 15.1063 17.9002C15.6563 17.5383 16.1689 17.1196 16.6443 16.6443C17.1196 16.1689 17.5383 15.6563 17.9002 15.1063C18.2231 14.6157 18.5009 14.0954 18.7335 13.5454C19.2445 12.3372 19.5 11.0721 19.5 9.75C19.5 8.42791 19.2445 7.16279 18.7335 5.95463C18.5009 5.40463 18.2231 4.88433 17.9002 4.39372C17.5383 3.84374 17.1196 3.33106 16.6443 2.85571C16.169 2.38042 15.6564 1.96182 15.1065 1.59991C14.6158 1.27698 14.0955 0.999177 13.5454 0.766511C13.0011 0.536316 12.4453 0.357969 11.878 0.231471C11.1858 0.0771568 10.4765 0 9.75 0C9.02349 0 8.31419 0.0771535 7.62208 0.231461C7.05471 0.35796 6.49889 0.53631 5.95463 0.766512C5.40457 0.999169 4.8842 1.27696 4.39354 1.59988C3.84362 1.9618 3.33101 2.38041 2.85571 2.85571C2.38042 3.331 1.96181 3.8436 1.5999 4.39351C1.27697 4.88418 0.999174 5.40455 0.766511 5.95463C0.536311 6.49888 0.357962 7.0547 0.231463 7.62207C0.0771544 8.31418 0 9.02349 0 9.75C0 10.4765 0.0771568 11.1858 0.23147 11.878C0.357969 12.4453 0.536316 13.0011 0.766512 13.5454C0.999177 14.0955 1.27698 14.6158 1.59991 15.1065C1.96182 15.6564 2.38042 16.169 2.85571 16.6443C3.33106 17.1196 3.84372 17.5383 4.3937 17.9002C4.88432 18.2231 5.40463 18.5009 5.95463 18.7335ZM12.961 17.352C11.9397 17.784 10.8693 18 9.75 18C8.6307 18 7.56035 17.784 6.53896 17.352C6.07874 17.1573 5.64304 16.9253 5.23184 16.6558C4.76125 16.3474 4.32275 15.99 3.91637 15.5836C3.51003 15.1773 3.15267 14.7388 2.84429 14.2683C2.57479 13.8571 2.3427 13.4213 2.14802 12.961C1.95729 12.5101 1.80867 12.0496 1.70214 11.5796C1.56738 10.985 1.5 10.3752 1.5 9.75C1.5 9.12484 1.56738 8.51495 1.70215 7.92034C1.80867 7.45034 1.9573 6.98988 2.14802 6.53896C2.34269 6.0787 2.57477 5.64296 2.84427 5.23174C3.15265 4.76118 3.51001 4.32272 3.91637 3.91637C4.32272 3.51001 4.76118 3.15265 5.23174 2.84426C5.64296 2.57477 6.0787 2.34269 6.53896 2.14802C6.98989 1.95729 7.45037 1.80866 7.92038 1.70214C8.51498 1.56738 9.12486 1.5 9.75 1.5C10.3752 1.5 10.9851 1.56738 11.5797 1.70215C12.0497 1.80868 12.5101 1.9573 12.961 2.14802C13.4213 2.3427 13.8571 2.5748 14.2683 2.84431C14.7389 3.15268 15.1773 3.51003 15.5836 3.91637C15.99 4.32275 16.3474 4.76123 16.6558 5.23182C16.9253 5.64302 17.1573 6.07873 17.352 6.53896C17.784 7.56035 18 8.6307 18 9.75C18 10.3752 17.9326 10.985 17.7978 11.5797C17.6913 12.0497 17.5427 12.5101 17.352 12.961C17.1573 13.4213 16.9252 13.857 16.6558 14.2682C16.3474 14.7388 15.99 15.1773 15.5836 15.5836C15.1773 15.99 14.7388 16.3474 14.2682 16.6558C13.857 16.9252 13.4213 17.1573 12.961 17.352ZM10.5 3.75C10.5 3.33 10.17 3 9.75 3C9.33 3 9 3.33 9 3.75L9 9.75C9 10 9.0625 10.1875 9.1875 10.3125C9.3125 10.4375 9.5 10.5 9.75 10.5L14.25 10.5C14.67 10.5 15 10.17 15 9.75C15 9.33 14.67 9 14.25 9L10.5 9L10.5 3.75Z" fill="rgb(153,153,153)" fill-rule="evenodd" />
</svg>
