<svg viewBox="0 0 19.5 19.5" xmlns="http://www.w3.org/2000/svg" xmlns:xlink="http://www.w3.org/1999/xlink" width="19.500000" height="19.500000" fill="none" customFrame="#000000">
	<path id="Subtract" d="M9.75 0C4.36522 0 0 4.36522 0 9.75C0 15.1348 4.36522 19.5 9.75 19.5C15.1348 19.5 19.5 15.1348 19.5 9.75C19.5 4.36522 15.1348 0 9.75 0ZM10.5 3.75C10.5 3.33579 10.1642 3 9.75 3C9.33579 3 9 3.33579 9 3.75L9 9.75C9 10.1642 9.33579 10.5 9.75 10.5L14.25 10.5C14.6642 10.5 15 10.1642 15 9.75C15 9.33579 14.6642 9 14.25 9L10.5 9L10.5 3.75Z" fill="rgb(153,153,153)" fill-rule="evenodd" />
</svg>
