<svg viewBox="0 0 21.5322 16.5" xmlns="http://www.w3.org/2000/svg" xmlns:xlink="http://www.w3.org/1999/xlink" width="21.532227" height="16.500000" fill="none" customFrame="#000000">
	<path id="Union" d="M10.7671 0C5.79451 0 1.57727 3.22571 0.0900125 7.6967C-0.0301159 8.05783 -0.0300014 8.44849 0.0903401 8.80955C1.57944 13.2773 5.79507 16.5 10.7654 16.5C15.738 16.5 19.9552 13.2743 21.4425 8.80331C21.5626 8.44217 21.5625 8.05152 21.4421 7.69045C19.9531 3.22271 15.7374 0 10.7671 0ZM10.7666 13.5C13.6661 13.5 16.0166 11.1495 16.0166 8.25C16.0166 5.3505 13.6661 3 10.7666 3C7.86711 3 5.5166 5.3505 5.5166 8.25C5.5166 11.1495 7.86711 13.5 10.7666 13.5ZM13.7666 8.25C13.7666 9.90685 12.4235 11.25 10.7666 11.25C9.10975 11.25 7.7666 9.90685 7.7666 8.25C7.7666 6.59315 9.10975 5.25 10.7666 5.25C12.4235 5.25 13.7666 6.59315 13.7666 8.25Z" fill="rgb(153,153,153)" fill-rule="evenodd" />
</svg>
