<svg width="35" height="35" viewBox="0 0 35 35" fill="none" xmlns="http://www.w3.org/2000/svg">
<path fill-rule="evenodd" clip-rule="evenodd" d="M32.0833 17.5C32.0833 25.5542 25.5541 32.0834 17.5 32.0834C9.44584 32.0834 2.91666 25.5542 2.91666 17.5C2.91666 9.44587 9.44584 2.91669 17.5 2.91669C25.5541 2.91669 32.0833 9.44587 32.0833 17.5ZM18.0226 13.6827C16.6041 14.2727 13.7693 15.4938 9.51791 17.3461C8.82756 17.6206 8.46593 17.8892 8.43301 18.1518C8.37737 18.5956 8.93315 18.7703 9.68997 19.0083C9.79292 19.0407 9.89959 19.0742 10.0089 19.1098C10.7535 19.3518 11.7552 19.635 12.2759 19.6462C12.7482 19.6564 13.2754 19.4617 13.8574 19.0621C17.8295 16.3807 19.88 15.0255 20.0087 14.9963C20.0995 14.9757 20.2254 14.9497 20.3106 15.0255C20.3959 15.1013 20.3875 15.2449 20.3785 15.2834C20.3234 15.5181 18.1418 17.5463 17.0128 18.5959C16.6608 18.9231 16.4112 19.1553 16.3602 19.2083C16.2458 19.327 16.1293 19.4393 16.0173 19.5473C15.3256 20.2141 14.8068 20.7142 16.046 21.5308C16.6416 21.9233 17.1181 22.2478 17.5935 22.5715C18.1127 22.9251 18.6305 23.2778 19.3006 23.717C19.4713 23.8289 19.6343 23.9451 19.7931 24.0583C20.3973 24.489 20.9401 24.876 21.6108 24.8143C22.0005 24.7785 22.403 24.412 22.6074 23.3192C23.0905 20.7365 24.0402 15.1405 24.2596 12.8345C24.2789 12.6325 24.2547 12.3739 24.2352 12.2604C24.2158 12.1469 24.1752 11.9852 24.0277 11.8655C23.853 11.7237 23.5832 11.6938 23.4626 11.696C22.9141 11.7056 22.0725 11.9982 18.0226 13.6827Z" fill="#2365FA"/>
</svg>
