<svg viewBox="0 0 24 23.8542" xmlns="http://www.w3.org/2000/svg" xmlns:xlink="http://www.w3.org/1999/xlink" width="24.000000" height="23.854248" fill="none" customFrame="#000000">
	<path id="Vector" d="M24 12C24 5.37258 18.6274 0 12 0C5.37258 0 0 5.37258 0 12C0 17.9895 4.3882 22.954 10.125 23.8542L10.125 15.4687L7.07812 15.4687L7.07812 12L10.125 12L10.125 9.35625C10.125 6.34875 11.9166 4.6875 14.6576 4.6875C15.9701 4.6875 17.3438 4.92187 17.3438 4.92187L17.3438 7.875L15.8306 7.875C14.34 7.875 13.875 8.80008 13.875 9.75L13.875 12L17.2031 12L16.6711 15.4687L13.875 15.4687L13.875 23.8542C19.6118 22.954 24 17.9895 24 12Z" fill="rgb(255,255,255)" fill-rule="nonzero" />
</svg>
