<svg viewBox="0 0 24 24" xmlns="http://www.w3.org/2000/svg" xmlns:xlink="http://www.w3.org/1999/xlink" width="24.000000" height="24.000000" fill="none" customFrame="#000000">
	<path id="Vector" d="M22.2234 0L1.77187 0C0.792187 0 0 0.773438 0 1.72969L0 22.2656C0 23.2219 0.792187 24 1.77187 24L22.2234 24C23.2031 24 24 23.2219 24 22.2703L24 1.72969C24 0.773438 23.2031 0 22.2234 0ZM7.12031 20.4516L3.55781 20.4516L3.55781 8.99531L7.12031 8.99531L7.12031 20.4516ZM5.33906 7.43438C4.19531 7.43438 3.27188 6.51094 3.27188 5.37187C3.27188 4.23281 4.19531 3.30937 5.33906 3.30937C6.47812 3.30937 7.40156 4.23281 7.40156 5.37187C7.40156 6.50625 6.47812 7.43438 5.33906 7.43438ZM20.4516 20.4516L16.8937 20.4516L16.8937 14.8828C16.8937 13.5562 16.8703 11.8453 15.0422 11.8453C13.1906 11.8453 12.9094 13.2938 12.9094 14.7891L12.9094 20.4516L9.35625 20.4516L9.35625 8.99531L12.7687 8.99531L12.7687 10.5609L12.8156 10.5609C13.2891 9.66094 14.4516 8.70938 16.1813 8.70938C19.7859 8.70938 20.4516 11.0813 20.4516 14.1656L20.4516 20.4516Z" fill="rgb(255,255,255)" fill-rule="nonzero" />
</svg>
