<svg viewBox="0 0 24 19.5007" xmlns="http://www.w3.org/2000/svg" xmlns:xlink="http://www.w3.org/1999/xlink" width="24.000000" height="19.500732" fill="none" customFrame="#000000">
	<path id="Vector" d="M7.55016 19.501C16.6045 19.501 21.5583 11.9977 21.5583 5.49284C21.5583 5.2819 21.5536 5.06627 21.5442 4.85534C22.5079 4.15844 23.3395 3.29523 24 2.30627C23.1025 2.70558 22.1496 2.96636 21.1739 3.07971C22.2013 2.46388 22.9705 1.49645 23.3391 0.356743C22.3726 0.929534 21.3156 1.33359 20.2134 1.55159C19.4708 0.762537 18.489 0.240093 17.4197 0.0650276C16.3504 -0.110038 15.2532 0.072027 14.2977 0.583073C13.3423 1.09412 12.5818 1.90568 12.1338 2.89229C11.6859 3.87889 11.5754 4.98559 11.8195 6.04128C9.86249 5.94307 7.94794 5.43468 6.19998 4.54908C4.45203 3.66347 2.90969 2.42041 1.67297 0.900493C1.0444 1.98422 0.852057 3.26662 1.13503 4.48707C1.418 5.70751 2.15506 6.77442 3.19641 7.47096C2.41463 7.44614 1.64998 7.23566 0.965625 6.8569L0.965625 6.91784C0.964925 8.05513 1.3581 9.15756 2.07831 10.0377C2.79852 10.9179 3.80132 11.5215 4.91625 11.746C4.19206 11.9441 3.43198 11.973 2.69484 11.8303C3.00945 12.8084 3.62157 13.6639 4.44577 14.2773C5.26997 14.8908 6.26512 15.2316 7.29234 15.2522C5.54842 16.6221 3.39417 17.3651 1.17656 17.3616C0.783287 17.361 0.390399 17.3369 0 17.2894C2.25286 18.7347 4.87353 19.5024 7.55016 19.501Z" fill="rgb(255,255,255)" fill-rule="nonzero" />
</svg>
