<svg width="32" height="23" viewBox="0 0 32 23" fill="none" xmlns="http://www.w3.org/2000/svg">
<path fill-rule="evenodd" clip-rule="evenodd" d="M4.91163 0.105544C4.68662 0.160119 4.33388 0.290128 4.12787 0.394563C3.64826 0.637579 2.92872 1.35641 2.68642 1.83451C2.28246 2.63171 2.28703 2.54363 2.28589 9.54238L2.28482 15.9829L1.51105 16.0071C0.800079 16.0293 0.71693 16.0468 0.485344 16.2237C0.0379572 16.5653 -0.0011881 16.7348 2.62648e-05 18.3279C0.0011692 19.88 0.0741027 20.3688 0.400553 21.0131C0.642211 21.49 1.36204 22.2098 1.839 22.4515C2.66699 22.8711 1.9548 22.8509 15.9724 22.852C24.4295 22.8527 28.9702 22.8281 29.2229 22.7802C29.8603 22.6593 30.466 22.3298 30.9614 21.8344C31.8231 20.9727 31.9985 20.3807 32 18.3279C32.0012 16.7348 31.962 16.5653 31.5147 16.2237C31.2831 16.0468 31.1999 16.0293 30.4889 16.0071L29.7152 15.9829L29.7141 9.54238C29.713 2.56978 29.716 2.62857 29.3247 1.85652C29.2272 1.66415 28.9665 1.31127 28.7452 1.07225C28.2907 0.58129 27.5781 0.184621 26.9374 0.0658276C26.6913 0.0201817 22.7272 -0.00339126 15.9367 0.000394698C7.13899 0.00532359 5.25066 0.0233248 4.91163 0.105544ZM26.9018 2.46334C27.0103 2.54435 27.1653 2.69936 27.2463 2.80786C27.3922 3.00323 27.3938 3.06645 27.4126 9.5003L27.4315 15.9955H16.0011H4.57068V9.60688C4.57068 5.2551 4.59497 3.15417 4.6469 3.01716C4.74819 2.74972 4.98642 2.49806 5.2493 2.38076C5.42567 2.30212 7.34186 2.2879 16.0841 2.30062C26.6873 2.31605 26.7048 2.31626 26.9018 2.46334ZM5.71361 9.13792V14.8526H16H26.2864V9.13792V3.42326H16H5.71361V9.13792ZM24.0005 9.13792V12.5667H16H7.99948V9.13792V5.70912H16H24.0005V9.13792ZM11.4556 18.5075C11.5172 18.8155 11.7975 19.1656 12.0958 19.3071C12.3148 19.411 12.7577 19.4243 16 19.4243C19.2423 19.4243 19.6852 19.411 19.9042 19.3071C20.2025 19.1656 20.4828 18.8155 20.5444 18.5075L20.5896 18.2814H25.1587H29.7278L29.7036 19.0621C29.6775 19.9058 29.6155 20.0648 29.1876 20.3842L28.9904 20.5315H16H3.00965L2.81235 20.3842C2.38454 20.0648 2.32246 19.9058 2.29639 19.0621L2.27217 18.2814H6.84133H11.4104L11.4556 18.5075Z" fill="#F0E714"/>
</svg>
