<svg width="122" height="148" viewBox="0 0 122 148" fill="none" xmlns="http://www.w3.org/2000/svg">
<path fill-rule="evenodd" clip-rule="evenodd" d="M21.394 144.185C14.5891 145.667 7.48517 144.952 1.10891 142.142L0.366872 144.911C3.60897 146.449 7.10379 147.385 10.6804 147.675C18.0544 148.643 25.5346 147.055 31.8682 143.175C36.7871 140.022 40.7732 135.658 43.4644 130.536C42.4763 130.242 41.5018 129.901 40.5444 129.513C39.902 130.874 39.1528 132.191 38.3004 133.45C34.0474 138.836 28.0872 142.62 21.394 144.185ZM41.7616 126.518C41.4117 127.536 41.0055 128.536 40.5444 129.513C38.6265 128.737 36.7773 127.775 35.0244 126.636C29.0087 123.405 24.5146 117.933 22.5223 111.414C21.8141 107.463 22.9015 103.404 25.4904 100.336C27.2207 98.0051 29.7734 96.4163 32.6339 95.8901C38.219 96.3049 43.0582 99.9183 45.0334 105.149C48.126 111.888 48.218 119.615 45.2866 126.418C45.2266 126.582 45.1654 126.747 45.1029 126.91C45.8228 126.951 46.5457 126.964 47.27 126.949C53.5186 127.816 59.8837 127.037 65.7324 124.688C78.3954 117.828 88.3629 106.904 94.0225 93.6822C97.5956 86.0717 99.3262 77.7992 99.1628 69.517C96.6699 70.8804 93.9861 71.9113 91.1773 72.5668C84.2467 73.8385 77.1065 71.9253 71.7403 67.3587C66.4303 63.3058 63.6579 56.7583 64.4496 50.1404C65.3782 43.8606 69.5504 38.5358 75.4333 36.1226C82.6456 33.5762 90.6908 35.7319 95.6636 41.5433C100.212 48.0001 102.915 55.4238 103.67 63.0519C107.782 58.9032 110.849 53.8127 112.587 48.1981C117.455 35.7545 117.033 21.8631 111.418 9.72279C110.762 7.66734 109.89 5.68981 108.817 3.82302L103.665 14.854L107.27 1.40298L107.588 0.21613C108.092 0.760642 108.582 1.31608 109.057 1.88182L109.65 2.04071L109.483 2.39793C117.555 12.3267 120.966 25.299 118.729 37.9711C117.529 46.2805 114.251 54.1517 109.195 60.8579C107.641 62.9148 105.852 64.7588 103.875 66.3592C104.014 71.9119 103.125 77.5141 101.169 82.8766C97.3958 99.1889 87.9525 113.633 74.5139 123.649C68.582 127.937 61.7068 130.747 54.4614 131.844C50.7254 132.042 47.007 131.591 43.4644 130.536C44.0797 129.365 44.6273 128.155 45.1029 126.91C43.9799 126.846 42.8642 126.715 41.7616 126.518ZM109.483 2.39793L108.817 3.82302C108.34 2.99351 107.824 2.18588 107.27 1.40298L109.057 1.88182C109.2 2.05292 109.342 2.22496 109.483 2.39793ZM99.0521 66.9603C99.1091 67.8122 99.146 68.6646 99.1628 69.517C100.825 68.608 102.402 67.5512 103.875 66.3592C103.847 65.2541 103.779 64.1509 103.67 63.0519C102.718 64.0123 101.71 64.9222 100.65 65.7765C100.131 66.1935 99.5982 66.5882 99.0521 66.9603ZM99.0521 66.9603C98.7937 63.0985 98.1219 59.2491 97.0315 55.4786C94.9758 49.0262 90.123 43.8336 83.8147 41.3366C78.265 39.4322 72.1443 41.6951 69.1857 46.7452C66.1969 51.3437 66.1014 57.2438 68.9396 61.944C71.9617 67.0323 77.1572 70.4568 83.0318 71.2323C88.7249 71.6673 94.3724 70.1481 99.0521 66.9603ZM41.7616 126.518C43.0399 122.797 43.5675 118.833 43.2826 114.856C44.0091 109.693 42.0238 104.517 38.0266 101.151C35.7251 100.043 33.073 99.9123 30.6756 100.788C28.2781 101.663 26.3396 103.471 25.3024 105.798C24.5902 109.141 25.1742 112.631 26.937 115.565C28.186 118.336 29.9737 120.833 32.1964 122.91C35.1494 124.698 38.394 125.915 41.7616 126.518ZM117.939 3.444C119.233 3.89169 120.556 4.24631 121.9 4.50516L121.108 4.29293L117.939 3.444ZM117.939 3.444L117.543 3.33789C116.339 3.08503 115.149 2.7662 113.979 2.38285C112.821 1.96209 111.628 1.64254 110.415 1.4278C112.751 2.62775 115.316 3.31513 117.939 3.444Z" fill="#E7C4B2"/>
</svg>
