<svg xmlns="http://www.w3.org/2000/svg" fill="none" customFrame="#000000" viewBox="0 0 199 60"><defs><clipPath id="a"><path d="M20.81 19.89h20.35v20.35H20.8z" fill="#FFF"/></clipPath></defs><path d="M0 0h199v60H0z"/><g customFrame="url(#clipPath_1)"><path d="M0 0h60v60H0z" fill="none"/><path d="M49.78 24.08A24.92 24.92 0 0 0 25.51 0a.6.6 0 0 0-.62.6l-.02 8.83a.8.8 0 0 1-.78.8A24.9 24.9 0 0 0 0 34.5c0 .34.26.62.6.62l8.82.02a.8.8 0 0 1 .8.78A24.93 24.93 0 0 0 34.49 60a.6.6 0 0 0 .62-.6l.02-8.83a.8.8 0 0 1 .78-.8 24.93 24.93 0 0 0 24.1-24.27.6.6 0 0 0-.6-.62l-8.84-.02a.8.8 0 0 1-.8-.78ZM34.25 49.7a14.64 14.64 0 0 1-13.75-14 .61.61 0 0 0-.6-.6l-8.8-.01a.8.8 0 0 1-.8-.84 14.64 14.64 0 0 1 14-13.75.61.61 0 0 0 .59-.61l.03-8.82a.8.8 0 0 1 .84-.8A14.64 14.64 0 0 1 39.53 24.3c.02.32.28.58.6.58l8.8.02a.8.8 0 0 1 .8.84 14.63 14.63 0 0 1-14.6 13.77l-.02 9.4a.83.83 0 0 1-.86.8Z" fill="#E50000" fill-rule="evenodd"/><g clip-path="url(#a)" customFrame="url(#clipPath_2)"><path d="M20.81 19.89h20.35v20.35H20.8z"/><path d="M24.63 24.68a1.6 1.6 0 0 1 2.36-1.4l9.78 5.4a1.6 1.6 0 0 1 0 2.78L27 36.84a1.6 1.6 0 0 1-2.37-1.4V24.7Z" fill="#FFF" fill-rule="evenodd"/></g></g><path d="M169.66 22.33c0 .32-.07.62-.2.9a2.32 2.32 0 0 1-3.77.75c-.2-.22-.37-.46-.5-.74a2.32 2.32 0 0 1 0-1.8 2.3 2.3 0 0 1 3.77-.74c.22.2.39.44.5.73.13.28.2.58.2.9Zm-83.6 17.41a5.87 5.87 0 0 1-4.28-1.8q-.24-.22-.44-.5-.52-.64-.86-1.44-.1-.22-.17-.45-.3-.91-.3-1.93v-4.07h-1.68v-3.48H80V20.6h3.43v5.47h5.23v3.48h-5.23v4.07a2.67 2.67 0 0 0 .76 1.87 2.58 2.58 0 0 0 1.8.78h2.6v3.47H86Zm99.18-6.97a7.6 7.6 0 0 1-.55 2.95 6.62 6.62 0 0 1-3.67 3.76c-.83.35-1.73.52-2.69.52a6.8 6.8 0 0 1-6.36-4.3 7.64 7.64 0 0 1-.55-2.93V20.6h3.46V27c.19-.24.41-.46.67-.64a4.16 4.16 0 0 1 1.82-.73 6.6 6.6 0 0 1 3.65.45 6.6 6.6 0 0 1 2.2 1.5 7.51 7.51 0 0 1 2.02 5.2ZM63 26.9q0-.9.26-1.7l.17-.44q.34-.8.87-1.42.14-.17.3-.32.28-.3.61-.54v-.02q.51-.38 1.11-.65l.5-.19q.77-.24 1.6-.24h8.32v3.67h-8.31c-.25 0-.5.04-.7.14q-.16.06-.3.15-.15.1-.3.24a1.8 1.8 0 0 0-.51 1.3 1.93 1.93 0 0 0 .52 1.3l.19.18q.18.14.4.23c.2.09.45.14.7.14h3.62c.75 0 1.46.14 2.1.43.68.28 1.25.68 1.74 1.18.5.5.89 1.08 1.16 1.75q.1.2.17.44.26.8.26 1.7a5.47 5.47 0 0 1-5.43 5.5H64l.02-3.68h8.04a1.78 1.78 0 0 0 1.67-1.1 1.89 1.89 0 0 0 0-1.44 1.7 1.7 0 0 0-.4-.58 1.63 1.63 0 0 0-1.26-.53h-3.63a5.1 5.1 0 0 1-2.1-.44q-.68-.3-1.23-.73-.27-.2-.5-.44-.2-.2-.36-.4-.5-.61-.81-1.36-.12-.27-.2-.56-.23-.77-.23-1.6Zm101.21-5.5-5.9 18.33h-3.6l-5.9-18.33h4.13l3.6 12.23 3.62-12.23h4.15Zm-57.7 14.98a2.28 2.28 0 0 0 .8.1 3.35 3.35 0 0 0 2.6-1.17c.24-.2.4-.5.55-.8l2.53 2.6a6.73 6.73 0 0 1-2.47 2.18 6.56 6.56 0 0 1-3.17.78 6.8 6.8 0 0 1-6.36-4.3 7.64 7.64 0 0 1-.54-2.94c0-1.08.18-2.07.54-2.96a6.9 6.9 0 0 1 1.48-2.3 6.8 6.8 0 0 1 6.54-1.75 6.77 6.77 0 0 1 2.89 1.53c.4.37.78.78 1.1 1.24l-6.46 7.93Zm21.2 3.35h-.8l-1.33-1.88a8.17 8.17 0 0 1-2.2 1.52 6.22 6.22 0 0 1-2.54.62q-1.26 0-2.4-.4l-.28-.1q-.74-.28-1.38-.72-.43-.3-.81-.67a6.75 6.75 0 0 1-1.48-2.28q-.55-1.34-.55-3.06c0-1.06.19-2.04.55-2.92.36-.9.85-1.67 1.48-2.3q.43-.45.94-.8.58-.4 1.25-.7.33-.13.66-.23.97-.3 2.03-.3c.44 0 .87.1 1.3.2a6.72 6.72 0 0 1 2.4 1.2q.55.4 1.03.86l1.32-1.63h.84V39.8Zm64.9-3.35a2.32 2.32 0 0 0 .8.1q.48 0 .9-.1l.1-.03a3.53 3.53 0 0 0 1.6-1.04c.22-.26.4-.54.53-.84l2.53 2.57a6.73 6.73 0 0 1-2.47 2.17c-.48.26-1 .45-1.52.58H195q-.77.2-1.6.2a6.8 6.8 0 0 1-6.37-4.3 7.64 7.64 0 0 1-.54-3c0-1.07.18-2.06.54-2.95.36-.9.85-1.66 1.48-2.3a6.8 6.8 0 0 1 6.54-1.76 6.77 6.77 0 0 1 2.89 1.54q.27.24.5.5.34.35.6.74l-6.46 7.9Zm-45.03 3.35h-3.43v-8.7c0-.23-.04-.46-.13-.67q-.07-.17-.17-.32l-.21-.24a1.64 1.64 0 0 0-.54-.37l-.24-.1q-.2-.04-.43-.04c-.24 0-.46.04-.67.14a1.66 1.66 0 0 0-.9.93c-.11.2-.14.44-.14.68v8.7h-3.45v-8.7c0-.24-.05-.47-.14-.68a1.66 1.66 0 0 0-.92-.93 1.62 1.62 0 0 0-1.35 0 1.67 1.67 0 0 0-.9.93c-.1.2-.14.44-.14.68v8.7h-3.45v-13.7h.83l.91 1.05c.5-.4 1.01-.73 1.6-.95q.44-.18.91-.27.44-.07.9-.07c.62 0 1.23.12 1.83.35.6.24 1.14.66 1.6 1.24.2-.3.44-.53.71-.74a4.12 4.12 0 0 1 2.73-.85q.86 0 1.63.26l.38.14q.68.3 1.23.75.22.18.41.38a5.14 5.14 0 0 1 1.52 3.7v8.7Zm-53.42 0H90.7v-13.7h.84l1.12 1.63q.4-.36.85-.64.5-.32 1.06-.53c.7-.3 1.45-.43 2.2-.43h3.05v3.48h-3.1a2.58 2.58 0 0 0-2.4 1.6c-.13.34-.2.68-.2 1.05v7.54Zm75 0h-3.47v-13.7h3.47v13.7ZM108.2 29.2c-.15-.06-.3-.1-.47-.11a3.38 3.38 0 0 0-2.9.98c-.31.33-.55.72-.73 1.18a4.18 4.18 0 0 0-.25 1.97l.06.5c.04.16.07.32.12.47.04.16.1.3.16.41l4.02-5.4Zm15.96 3.58a3.79 3.79 0 0 0-2.1-3.4 2.85 2.85 0 0 0-1.33-.33c-.47 0-.92.08-1.34.25a3.1 3.1 0 0 0-1.8 1.9 4.4 4.4 0 0 0-.27 1.57q0 .9.27 1.6a3.1 3.1 0 0 0 1.8 1.88c.42.17.87.25 1.34.25.47 0 .91-.1 1.33-.3a3.79 3.79 0 0 0 1.83-2.03c.18-.45.27-.92.27-1.4Zm57.6 0a3.84 3.84 0 0 0-1.02-2.65 3.37 3.37 0 0 0-2.42-1.07c-.47 0-.92.11-1.34.32a3.8 3.8 0 0 0-2.08 3.4 4 4 0 0 0 .26 1.48A3.65 3.65 0 0 0 177 36.2a3.25 3.25 0 0 0 2.67 0 3.54 3.54 0 0 0 1.83-1.96c.18-.46.27-.95.27-1.48Zm12.53-3.58a1.7 1.7 0 0 0-.48-.12 3.38 3.38 0 0 0-2.9.98c-.3.33-.54.72-.72 1.18a4.2 4.2 0 0 0-.25 1.97l.06.5.11.47c.05.16.1.3.17.41l4.01-5.4Z" fill="#FFF" fill-rule="evenodd"/></svg>