<svg xmlns="http://www.w3.org/2000/svg" fill="none" customFrame="#000000" viewBox="0 0 60 60"><defs><clipPath id="a"><path d="M20.814 19.889h20.352v20.352H20.814z" fill="#FFF"/></clipPath></defs><path d="M49.783 24.084C49.363 10.933 38.707.32 25.512 0c-.34 0-.62.26-.62.6l-.02 8.834c0 .44-.34.78-.78.8C10.936 10.632.32 21.305 0 34.496c0 .34.26.62.6.62l8.817.02c.44 0 .78.34.8.78.42 13.15 11.096 23.763 24.272 24.083.34 0 .62-.26.62-.6l.02-8.834a.795.795 0 0 1 .776-.8C49.064 49.348 59.68 38.675 60 25.504c0-.34-.26-.62-.6-.62l-8.817-.02c-.44 0-.78-.34-.8-.78ZM34.25 49.707c-7.478-.44-13.476-6.516-13.756-14.03a.611.611 0 0 0-.6-.58l-8.797-.02a.8.8 0 0 1-.8-.84c.44-7.475 6.518-13.47 14.036-13.75.32-.02.58-.28.58-.6l.02-8.814a.8.8 0 0 1 .84-.8c7.477.44 13.475 6.516 13.755 14.03.02.32.28.58.6.58l8.797.02a.8.8 0 0 1 .8.84c-.44 7.675-6.818 13.77-14.596 13.77l-.022 9.394c-.02.46-.4.82-.86.8Z" fill="#E50000" fill-rule="evenodd"/><g clip-path="url(#a)" customFrame="url(#clipPath_0)"><path d="M20.814 19.889h20.352v20.352H20.814z"/><path d="M24.63 24.683a1.59 1.59 0 0 1 2.357-1.393l9.786 5.382c1.098.604 1.098 2.182 0 2.787l-9.787 5.382a1.59 1.59 0 0 1-2.356-1.393V24.683Z" fill="#FFF" fill-rule="evenodd"/></g></svg>