<svg width="20" height="18" viewBox="0 0 20 18" fill="none" xmlns="http://www.w3.org/2000/svg">
<path d="M19.2079 9.95557L12.3329 16.8306C12.0751 17.0884 11.7313 17.2173 11.3876 17.2173C11.0009 17.2173 10.6571 17.0884 10.3993 16.8306C9.8407 16.3149 9.8407 15.4126 10.3993 14.897L14.911 10.3423H1.76257C0.989136 10.3423 0.387573 9.74072 0.387573 8.96729C0.387573 8.23682 0.989136 7.59229 1.76257 7.59229H14.911L10.3993 3.08057C9.8407 2.56494 9.8407 1.6626 10.3993 1.14697C10.9149 0.588379 11.8173 0.588379 12.3329 1.14697L19.2079 8.02197C19.7665 8.5376 19.7665 9.43994 19.2079 9.95557Z" fill="#213D34"/>
</svg>
