<svg width="17" height="21" viewBox="0 0 17 21" fill="none" xmlns="http://www.w3.org/2000/svg">
<path d="M9.73828 1.40723L16.6133 8.28223C16.8711 8.54004 17 8.88379 17 9.22754C17 9.61426 16.8711 9.95801 16.6133 10.2158C16.0977 10.7744 15.1953 10.7744 14.6797 10.2158L10.125 5.7041L10.125 18.8525C10.125 19.626 9.52344 20.2275 8.75 20.2275C8.01953 20.2275 7.375 19.626 7.375 18.8525L7.375 5.7041L2.86328 10.2158C2.34766 10.7744 1.44531 10.7744 0.929688 10.2158C0.371094 9.7002 0.371094 8.79785 0.929688 8.28223L7.80469 1.40723C8.32031 0.848633 9.22266 0.848633 9.73828 1.40723Z" fill="#213D34"/>
</svg>
