<svg width="20" height="17" viewBox="0 0 20 17" fill="none" xmlns="http://www.w3.org/2000/svg">
<path d="M0.817262 7.479L7.69226 0.604003C7.95008 0.34619 8.29383 0.217284 8.63758 0.217284C9.02429 0.217284 9.36804 0.34619 9.62586 0.604003C10.1845 1.11963 10.1845 2.02197 9.62586 2.5376L5.11414 7.09228L18.2626 7.09229C19.036 7.09229 19.6376 7.69385 19.6376 8.46729C19.6376 9.19775 19.036 9.84229 18.2626 9.84229L5.11414 9.84228L9.62586 14.354C10.1844 14.8696 10.1844 15.772 9.62586 16.2876C9.11023 16.8462 8.20789 16.8462 7.69226 16.2876L0.817262 9.4126C0.258668 8.89697 0.258668 7.99463 0.817262 7.479Z" fill="#213D34"/>
</svg>
