<svg width="17" height="20" viewBox="0 0 17 20" fill="none" xmlns="http://www.w3.org/2000/svg">
<path d="M7.26172 19.2979L0.386718 12.4229C0.128906 12.165 -5.12243e-07 11.8213 -4.97217e-07 11.4775C-4.80313e-07 11.0908 0.128906 10.7471 0.386718 10.4893C0.902343 9.93066 1.80469 9.93066 2.32031 10.4893L6.875 15.001L6.875 1.85254C6.875 1.0791 7.47656 0.477538 8.25 0.477538C8.98047 0.477538 9.625 1.0791 9.625 1.85254L9.625 15.001L14.1367 10.4893C14.6523 9.93066 15.5547 9.93066 16.0703 10.4893C16.6289 11.0049 16.6289 11.9072 16.0703 12.4229L9.19531 19.2979C8.67969 19.8564 7.77734 19.8564 7.26172 19.2979Z" fill="#213D34"/>
</svg>
