<svg width="274" height="96" viewBox="0 0 274 96" fill="none" xmlns="http://www.w3.org/2000/svg">
<path fill-rule="evenodd" clip-rule="evenodd" d="M271.41 20.5812L271.575 20.5352C272.974 20.1661 272.179 18.3245 271.013 18.3112C270.564 18.3053 270.243 18.4535 270.034 18.6894C270.182 19.1522 270.314 19.6204 270.429 20.0932L270.706 19.078L272.066 19.9367L271.41 20.5812ZM266.477 9.79848L266.839 10.7077L268.887 15.8593C269.34 16.7733 269.723 17.7193 270.034 18.6894C269.379 19.4268 269.813 21.0214 270.82 21.4466C271.647 21.7308 272.56 21.4068 273.022 20.6653C273.593 19.7456 273.624 18.5903 273.106 17.6407C272.384 15.6743 271.625 13.7182 270.865 11.7618C270.463 10.7253 270.061 9.68871 269.664 8.65046C269.513 8.2528 269.362 7.85462 269.212 7.45633C268.927 6.70313 268.642 5.9495 268.352 5.19818C268.651 4.40127 268.939 3.59918 269.216 2.79211C269.487 2.09312 269.326 1.30624 268.805 0.777166C268.284 0.248093 267.498 0.0736041 266.791 0.33038C260.784 1.9096 254.884 3.88847 249.133 6.25358C248.441 6.55581 248.065 7.31043 248.244 8.03607C248.423 8.7617 249.105 9.24463 249.854 9.17679C254.709 8.10312 259.505 6.77576 264.223 5.20054C264.284 5.05309 264.344 4.90552 264.404 4.75783C264.439 4.87325 264.478 4.98745 264.523 5.1001C264.423 5.13369 264.323 5.16717 264.223 5.20054C263.677 6.52563 263.106 7.84063 262.501 9.1395C253.996 29.7518 236.961 45.7731 215.828 53.0356C206.358 55.9115 196.287 55.9817 186.849 53.2377C181.465 51.5664 176.522 48.9258 171.578 46.2841C166.75 43.7051 161.921 41.125 156.678 39.4452C138.089 33.6749 117.803 36.2066 101.02 46.3915C92.0337 52.5057 84.1689 60.1241 77.7806 68.9029C71.5357 77.9495 62.9462 85.1516 52.9432 89.7287C35.1751 96.1226 15.4289 90.9239 3.37672 76.679C2.81951 75.9945 1.8131 75.8787 1.0989 76.4169C0.384697 76.9551 0.218608 77.9544 0.722982 78.6787C2.12709 80.5744 3.70753 82.3331 5.44369 83.9317C19.7298 96.6246 40.3173 99.5733 57.8662 91.44C67.831 85.5546 76.3881 77.5549 82.9203 68.0182C86.5128 63.3462 90.5346 59.016 94.9324 55.0851C98.7205 51.8644 102.892 49.1228 107.349 46.924C116.26 42.5499 126.025 40.235 135.91 40.1536C145.981 40.1267 155.877 42.5319 164.752 47.1632C166.482 48.044 168.191 48.9655 169.9 49.8871C173.404 51.7757 176.908 53.6651 180.588 55.2063C185.36 57.2153 190.423 58.4751 195.599 58.9414C205.767 59.7202 215.998 57.8882 225.317 53.6201C243.709 44.0861 258.217 28.567 266.477 9.79848ZM267.908 3.9141C267.851 3.72116 267.78 3.53424 267.695 3.35468L268.155 3.82357C268.073 3.85383 267.99 3.884 267.908 3.9141ZM265.925 1.55211C265.852 1.51574 265.777 1.48155 265.7 1.44972C265.712 1.41928 265.723 1.38885 265.735 1.3584L265.925 1.55211Z" fill="#E7C4B2"/>
</svg>
