<svg width="215" height="130" viewBox="0 0 215 130" fill="none" xmlns="http://www.w3.org/2000/svg">
<path fill-rule="evenodd" clip-rule="evenodd" d="M202.706 19.3482C192.882 5.26628 175.96 -2.03449 159.006 0.49478C154.828 1.04171 150.748 2.18068 146.89 3.87758C142.752 5.85825 138.84 8.28305 135.224 11.1094C131.44 14.0811 127.432 16.7543 123.236 19.1051C118.86 21.4223 113.933 22.4911 108.993 22.1953C98.5996 20.3716 88.5395 16.9906 79.1499 12.1659C69.1559 8.20179 58.3002 6.93283 47.6646 8.48553C38.0201 9.93608 29.1596 14.6472 22.5516 21.8382C16.3054 28.5264 12.8651 37.3676 12.9437 46.5296C13.7373 52.1911 14.2162 57.8925 14.3785 63.6073C13.706 68.2906 11.7597 72.6976 8.75328 76.3449C5.91175 79.9143 3.50206 83.8087 1.5746 87.9466C-0.0571867 92.0767 -0.430796 96.5991 0.501015 100.942C2.84891 109.791 8.52266 117.385 16.3327 122.132C25.021 127.543 35.1053 130.272 45.3294 129.979C56.0375 129.785 66.5286 126.919 75.8549 121.641C84.187 115.919 93.4903 111.769 103.308 109.394C114.054 109.259 124.763 110.679 135.105 113.61C140.23 114.544 145.47 114.656 150.63 113.943C154.889 113.231 158.997 111.802 162.781 109.717C170.55 105.486 176.782 98.8963 180.582 90.8929C182.448 86.9168 183.618 82.6483 184.04 78.2744C183.604 73.6129 184.999 68.9649 187.928 65.3185C191.118 62.9506 194.696 61.1596 198.501 60.0261C202.646 58.6036 206.392 56.2073 209.425 53.0373C214.053 47.8296 215.952 40.7341 214.545 33.9031C213.139 27.0721 208.593 21.3106 202.286 18.3661C201.331 17.8435 200.135 18.1591 199.56 19.0853C199.013 20.037 199.331 21.2523 200.272 21.8134C208.249 25.3841 212.59 34.1153 210.632 42.6508C209.584 46.9103 207.061 50.658 203.513 53.2258C200.089 55.2556 196.452 56.8992 192.668 58.1264C188.879 59.3843 185.532 61.7088 183.026 64.8225C180.802 69.1436 179.725 73.9658 179.899 78.8249C178.755 87.0114 174.843 94.5562 168.817 100.198C162.974 105.948 155.329 109.496 147.177 110.242C136.821 109.885 126.538 108.369 116.518 105.724C111.391 104.824 106.151 104.773 101.008 105.575C96.2439 106.536 91.6455 108.189 87.3576 110.48C78.9439 115.68 70.0763 120.103 60.8643 123.694C42.1199 130.294 21.257 124.662 8.35254 109.518C5.90584 106.234 4.3158 102.389 3.72672 98.3331C3.28232 94.1784 4.16402 89.9896 6.24495 86.3693C8.41191 82.4359 11.3408 79.0035 13.7205 75.209C16.3316 71.2715 17.7666 66.6682 17.8565 61.9407C17.8812 56.4746 16.3327 51.1326 16.3179 45.6666C16.3303 41.3994 17.2654 37.1857 19.0587 33.3159C22.7789 25.3952 29.1613 19.0403 37.0871 15.3652C46.4798 11.2991 56.9056 10.2794 66.9051 12.4487C76.8557 15.239 86.5954 18.7365 96.0502 22.9145C100.749 24.6777 105.709 25.6433 110.724 25.7715C115.567 25.7251 120.329 24.523 124.617 22.2647C132.755 18.1032 139.206 11.2731 147.469 7.31494C162.406 0.765346 179.703 2.78165 192.742 12.5925C195.822 14.9323 198.625 17.6165 201.098 20.5932C201.467 20.9408 202.032 20.9686 202.432 20.6587C202.833 20.3488 202.949 19.7931 202.706 19.3482Z" fill="#E7C4B2"/>
</svg>
