<svg width="25" height="28" viewBox="0 0 25 28" fill="none" xmlns="http://www.w3.org/2000/svg">
<path d="M24.0752 7.08963V11.8106C23.2504 11.73 22.1786 11.5426 20.993 11.1081C19.4449 10.5406 18.2926 9.76453 17.5379 9.16368V18.7054L17.5186 18.6756C17.5309 18.8648 17.5379 19.0575 17.5379 19.252C17.5379 23.9904 13.6834 27.8478 8.94459 27.8478C4.20577 27.8478 0.351318 23.9904 0.351318 19.252C0.351318 14.5135 4.20577 10.6544 8.94459 10.6544C9.40867 10.6544 9.86399 10.6912 10.3088 10.763V15.4157C9.8815 15.2633 9.42268 15.1809 8.94459 15.1809C6.70127 15.1809 4.87474 17.0062 4.87474 19.252C4.87474 21.4977 6.70127 23.323 8.94459 23.323C11.1879 23.323 13.0144 21.496 13.0144 19.252C13.0144 19.1679 13.0127 19.0838 13.0074 18.9997V0.45752H17.7235C17.741 0.856917 17.7568 1.25983 17.7743 1.65922C17.8058 2.44576 18.086 3.20075 18.5746 3.81911C19.1472 4.54609 19.9931 5.39043 21.1804 6.06485C22.2924 6.69373 23.3362 6.96525 24.0752 7.09312V7.08963Z" fill="#213D34"/>
</svg>
