<svg xmlns="http://www.w3.org/2000/svg" fill="none" customFrame="#000000" viewBox="0 0 472 472"><defs><linearGradient id="a" x1="236" x2="236" y1="1" y2="471" gradientUnits="userSpaceOnUse"><stop offset="0" stop-color="#FFF" stop-opacity=".5"/><stop offset="1" stop-color="#FFF" stop-opacity="1"/></linearGradient><linearGradient id="b" x1="236" x2="236" y1="1" y2="471" gradientUnits="userSpaceOnUse"><stop offset="0" stop-color="#FFF" stop-opacity="0"/><stop offset="1" stop-color="#FFF" stop-opacity="1"/></linearGradient><linearGradient id="c" x1="244.72" x2="244.72" y1="181.88" y2="291.15" gradientUnits="userSpaceOnUse"><stop offset=".15" stop-color="#FFF" stop-opacity="1"/><stop offset=".43" stop-color="#FFF" stop-opacity=".5"/><stop offset="1" stop-color="#1600FD" stop-opacity="0"/></linearGradient><linearGradient id="d" x1="244.72" x2="244.72" y1="181.88" y2="291.15" gradientUnits="userSpaceOnUse"><stop offset="0" stop-color="#FFF" stop-opacity="0"/><stop offset="1" stop-color="#FFF" stop-opacity="1"/></linearGradient></defs><path d="M390.97 189.66C387.67 86.64 304.21 3.5 200.84 1a4.75 4.75 0 0 0-4.85 4.7l-.16 69.2c0 3.44-2.66 6.1-6.11 6.26C86.67 84.29 3.5 167.9 1 271.23a4.75 4.75 0 0 0 4.7 4.85l69.07.16c3.44 0 6.1 2.66 6.26 6.1C84.32 385.36 167.95 468.5 271.16 471a4.75 4.75 0 0 0 4.85-4.7l.16-69.2c0-3.44 2.66-6.1 6.1-6.26 103.06-3.29 186.22-86.9 188.73-190.07a4.75 4.75 0 0 0-4.7-4.85l-69.06-.16a6.25 6.25 0 0 1-6.27-6.1Zm-121.7 200.71c-58.56-3.44-105.55-51.04-107.74-109.9a4.79 4.79 0 0 0-4.7-4.55l-68.9-.15a6.26 6.26 0 0 1-6.27-6.58c3.44-58.55 51.05-105.52 109.94-107.7a4.79 4.79 0 0 0 4.54-4.7l.16-69.08c0-3.6 2.97-6.42 6.58-6.27 58.57 3.45 105.55 51.04 107.75 109.91a4.79 4.79 0 0 0 4.7 4.54l68.9.16c3.6 0 6.43 2.97 6.27 6.57-3.44 60.12-53.4 107.87-114.33 107.87l-.16 73.6a6.48 6.48 0 0 1-6.73 6.25Z" fill="url(#a)" fill-opacity=".3" fill-rule="nonzero"/><path d="M200.84 2a4.02 4.02 0 0 0-2.74 1.07A3.6 3.6 0 0 0 197 5.7l-.16 69.2a7.24 7.24 0 0 1-2.05 5.06 7.63 7.63 0 0 1-5.01 2.2 192.98 192.98 0 0 0-72.26 16.41 194.77 194.77 0 0 0-82.05 68.5 193.46 193.46 0 0 0-28.88 66.68A193.6 193.6 0 0 0 2 271.25l-1-.02h1a4.02 4.02 0 0 0 1.07 2.73 3.6 3.6 0 0 0 2.63 1.12l69.07.16a7.24 7.24 0 0 1 5.06 2.04 7.62 7.62 0 0 1 2.2 5.01 193.19 193.19 0 0 0 16.5 72.23 195.19 195.19 0 0 0 68.55 82.02 193.51 193.51 0 0 0 66.63 28.88 193.11 193.11 0 0 0 37.48 4.58l-.02 1v-1a4.02 4.02 0 0 0 2.73-1.07 3.6 3.6 0 0 0 1.12-2.63l.15-69.2a7.24 7.24 0 0 1 2.05-5.06 7.62 7.62 0 0 1 5.01-2.2 193.36 193.36 0 0 0 72.25-16.5 195.1 195.1 0 0 0 82.05-68.53 193.48 193.48 0 0 0 28.9-66.57 193.11 193.11 0 0 0 4.57-37.46l1 .02h-1a4.02 4.02 0 0 0-1.07-2.74 3.6 3.6 0 0 0-2.63-1.12l-69.07-.16a7.24 7.24 0 0 1-5.06-2.04 7.6 7.6 0 0 1-2.2-5 193.43 193.43 0 0 0-16.47-72.24A194.96 194.96 0 0 0 305 35.46a193.36 193.36 0 0 0-66.66-28.88A193.68 193.68 0 0 0 200.81 2l.02-1v1Zm0-2h.02c12.83.31 25.47 1.85 37.91 4.62a195.37 195.37 0 0 1 67.35 29.18 196.86 196.86 0 0 1 51.31 50.99 195.6 195.6 0 0 1 29.63 67.06c2.86 12.4 4.5 24.98 4.9 37.76a5.62 5.62 0 0 0 1.6 3.7 5.06 5.06 0 0 0 3.67 1.49l69.06.15a5.57 5.57 0 0 1 4.07 1.74 5.79 5.79 0 0 1 1.63 4.1v.04a195.22 195.22 0 0 1-16.14 73.13 197.08 197.08 0 0 1-68.68 83.35 195.68 195.68 0 0 1-67.08 29.67 195.21 195.21 0 0 1-37.8 4.9 5.62 5.62 0 0 0-3.68 1.6 5.06 5.06 0 0 0-1.48 3.67l-.16 69.2a5.58 5.58 0 0 1-1.73 4.06 5.8 5.8 0 0 1-4.12 1.63h-.02a195.3 195.3 0 0 1-73.17-16.13 197.09 197.09 0 0 1-83.38-68.65 195.6 195.6 0 0 1-29.65-67.07 195.06 195.06 0 0 1-4.9-37.76 5.63 5.63 0 0 0-1.6-3.68 5.07 5.07 0 0 0-3.67-1.47l-69.06-.16a5.57 5.57 0 0 1-4.07-1.73 5.79 5.79 0 0 1-1.6-4.13v-.02a195.58 195.58 0 0 1 16.14-73.23A196.92 196.92 0 0 1 116.7 96.74a194.83 194.83 0 0 1 72.97-16.57 5.64 5.64 0 0 0 3.67-1.6 5.05 5.05 0 0 0 1.48-3.67l.16-69.2a5.57 5.57 0 0 1 1.73-4.07A5.8 5.8 0 0 1 200.87 0Zm-40.3 280.53a3.9 3.9 0 0 0-2.33-3.33 3.53 3.53 0 0 0-1.34-.28l-68.91-.15a7.22 7.22 0 0 1-6.8-4.68 7.3 7.3 0 0 1-.46-2.94 115.02 115.02 0 0 1 20.94-59.77 116.38 116.38 0 0 1 48.05-39.3 114.14 114.14 0 0 1 41.9-9.6l.04 1-.05-1a3.87 3.87 0 0 0 3.32-2.32c.19-.44.28-.9.28-1.38l.16-69.05a7.22 7.22 0 0 1 4.67-6.79 7.32 7.32 0 0 1 2.95-.47 115.15 115.15 0 0 1 59.79 20.95 116.28 116.28 0 0 1 39.3 48.03 114.13 114.13 0 0 1 9.62 41.9l-1 .03 1-.06a3.9 3.9 0 0 0 2.3 3.32c.45.2.9.28 1.39.28l68.92.16a7.22 7.22 0 0 1 7.26 7.62 114.97 114.97 0 0 1-35.92 77.16 115.94 115.94 0 0 1-35.94 23.19 115.57 115.57 0 0 1-43.46 8.48v-1h1l-.16 73.6v.02a7.58 7.58 0 0 1-4.82 6.75 7.4 7.4 0 0 1-2.95.47 115.13 115.13 0 0 1-59.8-20.95 116.26 116.26 0 0 1-39.3-48.03 114 114 0 0 1-9.6-41.89l1-.04-1 .07Zm2-.13v.04a112.76 112.76 0 0 0 9.43 41.15 114.14 114.14 0 0 0 38.63 47.2 113.62 113.62 0 0 0 37.57 17.32 112.94 112.94 0 0 0 21.15 3.27 5.34 5.34 0 0 0 3.94-1.45 5.5 5.5 0 0 0 1.76-3.86l1 .05h-1l.15-74.6h1a113.57 113.57 0 0 0 42.7-8.31 113.05 113.05 0 0 0 35.33-22.8 114.01 114.01 0 0 0 24.65-33.93 112.37 112.37 0 0 0 10.65-41.83 5.31 5.31 0 0 0-3.14-5.1 5.26 5.26 0 0 0-2.13-.43l-68.9-.15a5.49 5.49 0 0 1-3.93-1.61 5.86 5.86 0 0 1-1.77-3.86v-.02a112.72 112.72 0 0 0-32.45-75.08 114.26 114.26 0 0 0-33.5-23.61 112.72 112.72 0 0 0-40.85-10.26 5.33 5.33 0 0 0-5.1 3.16 5.22 5.22 0 0 0-.43 2.12l-.16 69.04a5.5 5.5 0 0 1-1.61 3.93 5.85 5.85 0 0 1-3.87 1.76h-.02a112.72 112.72 0 0 0-75.1 32.44 114.3 114.3 0 0 0-23.62 33.48 112.59 112.59 0 0 0-10.26 40.85 5.33 5.33 0 0 0 3.14 5.09c.67.3 1.38.44 2.12.44l68.9.15a5.5 5.5 0 0 1 3.94 1.62 5.84 5.84 0 0 1 1.77 3.86Z" fill="url(#b)" fill-opacity=".5" fill-rule="nonzero"/><path d="M193.94 194.35a12.45 12.45 0 0 1 18.46-10.91l76.65 42.16c8.6 4.73 8.6 17.1 0 21.82L212.4 289.6a12.45 12.45 0 0 1-18.46-10.92v-84.32Z" fill="url(#c)" fill-opacity=".3" fill-rule="evenodd"/><path d="M212.4 183.44a12.45 12.45 0 0 0-18.46 10.9v84.33a12.45 12.45 0 0 0 18.46 10.92l76.65-42.2c8.6-4.74 8.6-17.1 0-21.83l-76.66-42.16Zm-17.46 95.23v-84.32a11.65 11.65 0 0 1 1.57-5.84 11.5 11.5 0 0 1 15.4-4.2l76.66 42.16a11.67 11.67 0 0 1 3.64 3.12 11 11 0 0 1 1.93 4 11.64 11.64 0 0 1-1.93 9.84 11.11 11.11 0 0 1-3.64 3.12l-76.66 42.16a11.62 11.62 0 0 1-5.87 1.43 11.38 11.38 0 0 1-6.85-2.56 11.3 11.3 0 0 1-4.25-8.9Z" fill="url(#d)" fill-opacity=".5" fill-rule="evenodd"/></svg>