<svg viewBox="0 0 472 472" xmlns="http://www.w3.org/2000/svg" xmlns:xlink="http://www.w3.org/1999/xlink" width="472.000000" height="472.000000" fill="none" customFrame="#000000">
	<defs>
		<linearGradient id="paint_linear_0" x1="236" x2="236" y1="1" y2="470.999939" gradientUnits="userSpaceOnUse">
			<stop stop-color="rgb(255,255,255)" offset="0" stop-opacity="0.5" />
			<stop stop-color="rgb(255,255,255)" offset="1" stop-opacity="1" />
		</linearGradient>
		<linearGradient id="paint_linear_1" x1="236" x2="236" y1="1" y2="470.999939" gradientUnits="userSpaceOnUse">
			<stop stop-color="rgb(255,255,255)" offset="0" stop-opacity="0" />
			<stop stop-color="rgb(255,255,255)" offset="1" stop-opacity="1" />
		</linearGradient>
		<linearGradient id="paint_linear_2" x1="244.722321" x2="244.722321" y1="181.875244" y2="291.146057" gradientUnits="userSpaceOnUse">
			<stop stop-color="rgb(255,255,255)" offset="0.147230983" stop-opacity="1" />
			<stop stop-color="rgb(255,255,255)" offset="0.427610278" stop-opacity="0.5" />
			<stop stop-color="rgb(22,0,253)" offset="1" stop-opacity="0" />
		</linearGradient>
		<linearGradient id="paint_linear_3" x1="244.722321" x2="244.722321" y1="181.875244" y2="291.146057" gradientUnits="userSpaceOnUse">
			<stop stop-color="rgb(255,255,255)" offset="0" stop-opacity="0" />
			<stop stop-color="rgb(255,255,255)" offset="1" stop-opacity="1" />
		</linearGradient>
	</defs>
	<g id="Group 7">
		<path id="Vector" d="M390.97 189.658C387.681 86.6396 304.206 3.505 200.84 1C198.178 1 195.985 3.03531 195.985 5.69687L195.828 74.8974C195.828 78.3418 193.166 81.0033 189.72 81.1599C86.6681 84.2911 3.50583 167.895 1 271.227C1 273.888 3.03599 276.08 5.69843 276.08L74.7654 276.236C78.2109 276.236 80.8734 278.898 81.03 282.342C84.3189 385.36 167.951 468.495 271.16 471C273.822 471 276.015 468.965 276.015 466.303L276.172 397.103C276.172 393.658 278.834 390.997 282.28 390.84C385.332 387.552 468.494 303.948 471 200.773C471 198.112 468.964 195.92 466.302 195.92L397.235 195.763C393.789 195.763 391.127 193.102 390.97 189.658ZM269.281 390.37C210.707 386.926 163.722 339.331 161.53 280.464C161.373 277.959 159.337 275.923 156.831 275.923L87.921 275.767C84.3189 275.767 81.4998 272.792 81.6564 269.191C85.102 210.637 132.713 163.668 191.6 161.476C194.106 161.32 196.142 159.284 196.142 156.779L196.298 87.7355C196.298 84.1346 199.274 81.3165 202.876 81.473C261.45 84.9174 308.434 132.512 310.627 191.38C310.783 193.885 312.819 195.92 315.325 195.92L384.236 196.077C387.838 196.077 390.657 199.051 390.5 202.652C387.055 262.772 337.095 310.524 276.172 310.524L276.015 384.108C275.858 387.709 272.883 390.527 269.281 390.37Z" fill="url(#paint_linear_0)" fill-opacity="0.300000012" fill-rule="nonzero" />
		<path id="Vector" d="M200.84 2C200.312 2 199.809 2.09595 199.33 2.28785C198.867 2.47327 198.459 2.73514 198.105 3.07345C197.751 3.41128 197.478 3.80042 197.285 4.24086C197.085 4.69874 196.985 5.18407 196.985 5.69687L196.828 74.8997C196.828 75.8764 196.647 76.8059 196.283 77.688C195.931 78.543 195.43 79.3012 194.78 79.9625C194.134 80.6192 193.386 81.1363 192.534 81.5139C191.663 81.8996 190.741 82.1146 189.766 82.1589C177.092 82.544 164.621 84.1451 152.351 86.9623C140.375 89.7119 128.763 93.5785 117.515 98.5621C106.458 103.461 95.9364 109.358 85.9503 116.252C76.0512 123.085 66.856 130.776 58.3647 139.323C49.8716 147.872 42.2394 157.12 35.4682 167.067C28.6348 177.106 22.802 187.675 17.9699 198.775C13.0529 210.07 9.25557 221.724 6.57781 233.738C3.83363 246.05 2.30759 258.554 1.99969 271.251L1 271.227L2 271.227C2 271.754 2.09596 272.257 2.28789 272.736C2.47334 273.198 2.73527 273.606 3.07367 273.96C3.41166 274.314 3.80096 274.587 4.24158 274.78C4.69972 274.98 5.18534 275.08 5.69843 275.08L74.7677 275.236C75.7446 275.236 76.6743 275.418 77.5566 275.782C78.4119 276.134 79.1702 276.635 79.8317 277.284C80.4886 277.93 81.006 278.678 81.3837 279.53C81.7696 280.4 81.9846 281.322 82.029 282.297C82.4334 294.965 84.0521 307.432 86.8851 319.698C89.6498 331.67 93.53 343.278 98.5254 354.523C103.436 365.577 109.342 376.095 116.243 386.077C123.084 395.973 130.779 405.165 139.329 413.654C147.881 422.143 157.129 429.773 167.076 436.543C177.113 443.374 187.679 449.205 198.773 454.035C210.063 458.952 221.709 462.748 233.711 465.424C246.013 468.167 258.504 469.692 271.184 470L271.16 471L271.16 470C271.688 470 272.191 469.904 272.67 469.712C273.132 469.527 273.541 469.265 273.895 468.927C274.249 468.589 274.522 468.2 274.715 467.759C274.915 467.301 275.015 466.816 275.015 466.303L275.172 397.1C275.172 396.124 275.353 395.194 275.717 394.312C276.069 393.457 276.57 392.699 277.22 392.038C277.866 391.381 278.614 390.864 279.466 390.486C280.337 390.1 281.259 389.885 282.234 389.841C294.906 389.437 307.378 387.819 319.648 384.987C331.624 382.223 343.236 378.344 354.484 373.35C365.542 368.441 376.063 362.537 386.049 355.638C395.949 348.8 405.144 341.107 413.635 332.56C422.129 324.01 429.761 314.764 436.532 304.822C443.365 294.788 449.198 284.226 454.03 273.136C458.947 261.852 462.744 250.21 465.422 238.21C468.166 225.914 469.692 213.427 470 200.749L471 200.773L470 200.773C470 200.246 469.904 199.743 469.712 199.264C469.527 198.802 469.265 198.394 468.926 198.04C468.588 197.686 468.199 197.413 467.758 197.22C467.3 197.02 466.815 196.92 466.302 196.92L397.232 196.763C396.255 196.763 395.326 196.582 394.443 196.218C393.588 195.866 392.83 195.365 392.168 194.716C391.511 194.07 390.994 193.322 390.616 192.47C390.23 191.6 390.015 190.678 389.971 189.703C389.567 177.033 387.95 164.565 385.121 152.301C382.36 140.328 378.485 128.72 373.496 117.477C368.591 106.421 362.691 95.9031 355.798 85.9223C348.963 76.0258 341.273 66.8336 332.729 58.3459C324.182 49.8554 314.937 42.2257 304.993 35.457C294.957 28.6256 284.391 22.7948 273.294 17.9645C262.001 13.0491 250.348 9.25303 238.335 6.57628C226.023 3.833 213.516 2.30746 200.816 1.99968L200.84 1L200.84 2ZM200.84 0L200.852 0L200.864 0.000263035C213.695 0.311209 226.33 1.85251 238.77 4.62416C250.908 7.32872 262.682 11.1642 274.092 16.1307C285.303 21.0109 295.979 26.9019 306.118 33.8036C316.164 40.6417 325.504 48.3495 334.139 56.9269C342.77 65.5016 350.539 74.7879 357.444 84.7858C364.408 94.8693 370.368 105.496 375.325 116.666C380.365 128.025 384.28 139.754 387.07 151.852C389.928 164.243 391.561 176.83 391.969 189.612C392.002 190.336 392.16 191.019 392.445 191.659C392.719 192.279 393.094 192.822 393.57 193.289C394.045 193.756 394.591 194.116 395.205 194.369C395.843 194.632 396.521 194.763 397.237 194.763L466.302 194.92C467.093 194.92 467.846 195.076 468.559 195.388C469.245 195.688 469.849 196.111 470.372 196.658C470.888 197.198 471.287 197.819 471.568 198.52C471.856 199.238 472 199.989 472 200.773L472 200.785L472 200.798C471.688 213.606 470.146 226.222 467.374 238.646C464.669 250.771 460.832 262.534 455.864 273.935C450.982 285.14 445.089 295.811 438.185 305.948C431.345 315.991 423.635 325.332 415.054 333.969C406.476 342.604 397.187 350.375 387.186 357.284C377.098 364.254 366.467 370.218 355.296 375.178C343.931 380.224 332.198 384.143 320.098 386.935C307.7 389.797 295.109 391.431 282.325 391.839C281.6 391.872 280.918 392.03 280.277 392.315C279.657 392.589 279.114 392.964 278.647 393.439C278.179 393.915 277.819 394.46 277.566 395.074C277.303 395.712 277.172 396.389 277.172 397.105L277.015 466.303C277.015 467.095 276.859 467.847 276.547 468.561C276.247 469.246 275.824 469.85 275.277 470.373C274.736 470.889 274.115 471.288 273.414 471.569C272.696 471.856 271.945 472 271.16 472L271.148 472L271.136 472C258.325 471.689 245.705 470.148 233.275 467.376C221.149 464.672 209.382 460.836 197.974 455.869C186.766 450.989 176.091 445.098 165.951 438.196C155.902 431.357 146.559 423.65 137.92 415.073C129.283 406.497 121.508 397.211 114.598 387.215C107.626 377.129 101.659 366.503 96.6977 355.335C91.6504 343.974 87.7299 332.245 84.9364 320.149C82.074 307.755 80.4389 295.168 80.031 282.388C79.9981 281.664 79.8396 280.981 79.5555 280.341C79.2808 279.721 78.9058 279.178 78.4303 278.711C77.9546 278.244 77.4095 277.884 76.795 277.631C76.1566 277.368 75.4793 277.236 74.7631 277.236L5.69843 277.08C4.90671 277.08 4.15409 276.924 3.44059 276.612C2.75491 276.312 2.15069 275.889 1.62793 275.342C1.11164 274.802 0.712851 274.181 0.431561 273.48C0.143854 272.762 0 272.011 0 271.227L0 271.214L0.000278652 271.202C0.311337 258.375 1.85315 245.742 4.62571 233.303C7.33129 221.164 11.1681 209.389 16.1361 197.977C21.0183 186.762 26.9112 176.084 33.8149 165.942C40.6555 155.893 48.3659 146.55 56.9459 137.913C65.524 129.279 74.8134 121.51 84.814 114.606C94.9032 107.641 105.533 101.683 116.705 96.7336C128.07 91.6981 139.802 87.7912 151.903 85.013C164.3 82.1667 176.891 80.5493 189.675 80.1609C190.4 80.128 191.082 79.9695 191.723 79.6855C192.343 79.4109 192.886 79.0359 193.353 78.5606C193.821 78.0851 194.181 77.5402 194.434 76.926C194.697 76.2879 194.828 75.611 194.828 74.8951L194.985 5.69687C194.985 4.90524 195.141 4.15276 195.453 3.43942C195.753 2.7539 196.176 2.14985 196.723 1.62724C197.264 1.11114 197.885 0.712507 198.586 0.431355C199.304 0.143785 200.055 0 200.84 0ZM160.532 280.526C160.501 280.034 160.382 279.565 160.175 279.118C159.973 278.684 159.703 278.302 159.363 277.97C159.023 277.638 158.64 277.382 158.212 277.202C157.771 277.016 157.311 276.923 156.831 276.923L87.9188 276.767C86.8973 276.767 85.9247 276.565 85.0007 276.162C84.1091 275.773 83.3271 275.226 82.6546 274.519C81.9832 273.813 81.4743 273.004 81.1279 272.093C80.7698 271.151 80.613 270.169 80.6574 269.148C81.0875 261.837 82.1967 254.653 83.9852 247.596C85.7332 240.698 88.1049 234.014 91.1003 227.546C94.0483 221.18 97.5528 215.124 101.614 209.378C105.643 203.678 110.151 198.38 115.137 193.484C120.127 188.585 125.508 184.176 131.282 180.255C137.109 176.298 143.235 172.907 149.66 170.082C156.197 167.208 162.938 164.967 169.884 163.358C176.997 161.711 184.224 160.75 191.563 160.477L191.6 161.476L191.537 160.478C192.03 160.448 192.499 160.329 192.946 160.121C193.38 159.92 193.763 159.65 194.095 159.31C194.427 158.97 194.683 158.587 194.863 158.16C195.049 157.719 195.142 157.259 195.142 156.779L195.298 87.7332C195.298 86.712 195.5 85.7395 195.903 84.8158C196.292 83.9244 196.84 83.1426 197.547 82.4704C198.254 81.7992 199.062 81.2905 199.973 80.9443C200.916 80.5863 201.898 80.4296 202.919 80.474C210.233 80.9039 217.419 82.0128 224.479 83.8006C231.379 85.5481 238.064 87.919 244.535 90.9133C250.902 93.8602 256.96 97.3636 262.708 101.423C268.411 105.451 273.711 109.957 278.608 114.942C283.508 119.93 287.92 125.31 291.842 131.081C295.8 136.906 299.192 143.03 302.018 149.454C304.892 155.988 307.134 162.727 308.744 169.671C310.392 176.782 311.353 184.005 311.626 191.343L310.627 191.38L311.625 191.317C311.656 191.809 311.775 192.279 311.982 192.725C312.183 193.159 312.454 193.542 312.794 193.874C313.133 194.205 313.517 194.461 313.944 194.641C314.385 194.827 314.846 194.92 315.325 194.92L384.238 195.077C385.259 195.077 386.232 195.278 387.156 195.681C388.048 196.07 388.83 196.618 389.502 197.325C390.173 198.031 390.682 198.839 391.029 199.75C391.387 200.692 391.544 201.674 391.499 202.696C391.069 210.199 389.925 217.566 388.066 224.797C386.25 231.862 383.779 238.696 380.654 245.298C377.579 251.794 373.923 257.959 369.684 263.791C365.48 269.577 360.777 274.933 355.578 279.859C350.373 284.789 344.765 289.198 338.753 293.084C332.681 297.009 326.307 300.331 319.63 303.049C312.83 305.817 305.83 307.913 298.628 309.335C291.244 310.794 283.759 311.524 276.172 311.524L276.172 310.524L277.172 310.526L277.015 384.131L277.014 384.151C276.97 385.169 276.735 386.135 276.31 387.049C275.897 387.936 275.335 388.713 274.623 389.379C273.907 390.048 273.094 390.555 272.185 390.899C271.24 391.257 270.258 391.414 269.237 391.369C261.924 390.939 254.737 389.831 247.678 388.043C240.778 386.296 234.093 383.925 227.622 380.93C221.255 377.983 215.197 374.48 209.448 370.42C203.746 366.393 198.446 361.886 193.549 356.901C188.649 351.914 184.237 346.534 180.315 340.762C176.357 334.938 172.964 328.813 170.139 322.39C167.264 315.855 165.022 309.116 163.413 302.172C161.764 295.061 160.804 287.837 160.53 280.501L161.53 280.464L160.532 280.526ZM162.528 280.401L162.529 280.414L162.529 280.426C162.798 287.635 163.742 294.733 165.361 301.721C166.942 308.543 169.145 315.164 171.969 321.584C174.746 327.896 178.079 333.914 181.969 339.638C185.824 345.31 190.16 350.598 194.976 355.5C199.789 360.399 204.998 364.828 210.602 368.786C216.251 372.776 222.205 376.219 228.462 379.115C234.82 382.058 241.389 384.387 248.169 386.104C255.106 387.861 262.157 388.95 269.324 389.371C270.071 389.404 270.788 389.29 271.476 389.029C272.14 388.778 272.733 388.407 273.257 387.918C273.78 387.429 274.193 386.858 274.497 386.206C274.81 385.532 274.983 384.818 275.016 384.064L276.015 384.108L275.015 384.106L275.174 309.524L276.172 309.524C283.628 309.524 290.984 308.807 298.241 307.373C305.316 305.976 312.195 303.917 318.876 301.197C325.437 298.526 331.701 295.262 337.667 291.405C343.575 287.585 349.087 283.253 354.202 278.407C359.313 273.566 363.934 268.302 368.066 262.615C372.232 256.884 375.825 250.826 378.846 244.442C381.917 237.955 384.344 231.241 386.129 224.299C387.955 217.194 389.079 209.964 389.501 202.609C389.534 201.862 389.42 201.146 389.159 200.461C388.908 199.801 388.539 199.215 388.053 198.703C387.566 198.192 387.001 197.795 386.356 197.514C385.687 197.223 384.98 197.077 384.233 197.077L315.325 196.92C314.576 196.92 313.857 196.775 313.168 196.484C312.507 196.206 311.917 195.813 311.396 195.305C310.882 194.802 310.472 194.223 310.168 193.567C309.855 192.893 309.675 192.185 309.629 191.442L309.628 191.43L309.628 191.417C309.359 184.207 308.415 177.109 306.796 170.123C305.214 163.3 303.011 156.679 300.187 150.259C297.411 143.947 294.077 137.929 290.187 132.205C286.333 126.533 281.997 121.246 277.181 116.344C272.368 111.444 267.159 107.016 261.554 103.057C255.906 99.0672 249.953 95.6244 243.695 92.7283C237.337 89.7861 230.768 87.4565 223.988 85.7394C217.051 83.9827 209.999 82.8936 202.833 82.4721C202.085 82.4396 201.369 82.5535 200.684 82.8139C200.023 83.0649 199.437 83.4336 198.925 83.92C198.414 84.4064 198.017 84.9717 197.736 85.6158C197.444 86.2845 197.298 86.9918 197.298 87.7378L197.142 156.779C197.142 157.529 196.996 158.248 196.706 158.937C196.427 159.597 196.034 160.187 195.526 160.707C195.023 161.222 194.443 161.632 193.787 161.936C193.113 162.248 192.405 162.428 191.662 162.474L191.649 162.475L191.637 162.476C184.425 162.744 177.325 163.688 170.336 165.307C163.511 166.887 156.887 169.089 150.465 171.913C144.151 174.688 138.131 178.021 132.405 181.909C126.731 185.763 121.442 190.097 116.538 194.911C111.637 199.723 107.207 204.93 103.247 210.533C99.2561 216.18 95.8121 222.131 92.9151 228.387C89.9719 234.742 87.6415 241.309 85.9239 248.087C84.1666 255.022 83.0771 262.071 82.6555 269.235C82.623 269.982 82.737 270.697 82.9974 271.382C83.2484 272.043 83.6172 272.629 84.1038 273.14C84.5904 273.652 85.1559 274.048 85.8003 274.329C86.4693 274.621 87.1769 274.767 87.9233 274.767L156.831 274.923C157.581 274.923 158.3 275.069 158.989 275.359C159.649 275.637 160.24 276.03 160.76 276.539C161.275 277.041 161.685 277.621 161.989 278.276C162.302 278.95 162.481 279.659 162.528 280.401Z" fill="url(#paint_linear_1)" fill-opacity="0.5" fill-rule="nonzero" />
		<path id="Rectangle 511 (Stroke)" d="M193.938 194.348C193.938 184.875 204.094 178.869 212.395 183.435L289.054 225.597C297.658 230.329 297.658 242.692 289.054 247.424L212.395 289.587C204.094 294.152 193.938 288.147 193.938 278.673L193.938 194.348Z" fill="url(#paint_linear_2)" fill-opacity="0.300000012" fill-rule="evenodd" />
		<path id="Rectangle 511 (Stroke)" d="M212.395 183.435C204.094 178.869 193.938 184.875 193.938 194.348L193.938 278.673C193.938 288.147 204.094 294.152 212.395 289.587L289.054 247.424C297.658 242.692 297.658 230.329 289.054 225.597L212.395 183.435ZM194.938 278.673L194.938 194.348C194.938 193.406 195.045 192.491 195.26 191.601C195.289 191.48 195.321 191.359 195.354 191.239C195.49 190.747 195.658 190.269 195.858 189.804C196.048 189.362 196.267 188.932 196.514 188.514C196.69 188.218 196.879 187.931 197.08 187.653C197.443 187.152 197.847 186.68 198.293 186.238C198.578 185.955 198.877 185.689 199.189 185.438C199.622 185.09 200.079 184.773 200.562 184.488C201.045 184.202 201.543 183.954 202.057 183.742C202.427 183.59 202.805 183.457 203.19 183.343C203.792 183.165 204.4 183.038 205.015 182.961C205.355 182.919 205.697 182.892 206.042 182.881C206.527 182.865 207.009 182.881 207.488 182.927C207.991 182.976 208.491 183.06 208.988 183.177C209.109 183.206 209.23 183.237 209.351 183.27C210.234 183.51 211.088 183.857 211.913 184.311L288.572 226.474C289.445 226.954 290.233 227.523 290.937 228.182C291.017 228.257 291.096 228.333 291.173 228.41C291.548 228.781 291.893 229.175 292.208 229.592C292.507 229.985 292.778 230.398 293.024 230.832C293.194 231.132 293.35 231.439 293.491 231.752C293.757 232.34 293.971 232.952 294.136 233.586C294.238 233.98 294.319 234.377 294.379 234.777C294.464 235.349 294.507 235.926 294.507 236.511C294.507 237.094 294.464 237.67 294.379 238.241C294.319 238.642 294.238 239.04 294.136 239.435C293.971 240.07 293.756 240.681 293.491 241.27C293.349 241.583 293.194 241.89 293.024 242.19C292.778 242.623 292.506 243.036 292.208 243.43C291.893 243.846 291.548 244.24 291.173 244.612C291.095 244.689 291.016 244.765 290.936 244.84C290.232 245.499 289.444 246.068 288.572 246.548L211.913 288.71C211.088 289.164 210.234 289.511 209.351 289.751C209.23 289.784 209.109 289.815 208.988 289.844C208.492 289.962 207.992 290.045 207.489 290.094C207.01 290.141 206.527 290.156 206.042 290.14C205.697 290.129 205.354 290.102 205.013 290.06C204.399 289.983 203.792 289.856 203.19 289.679C202.804 289.565 202.426 289.431 202.056 289.279C201.543 289.068 201.045 288.819 200.562 288.534C200.079 288.248 199.622 287.931 199.189 287.583C198.877 287.333 198.578 287.066 198.293 286.783C197.847 286.341 197.443 285.87 197.08 285.369C196.879 285.091 196.69 284.803 196.514 284.507C196.267 284.089 196.048 283.659 195.858 283.217C195.658 282.753 195.49 282.274 195.354 281.783C195.321 281.662 195.289 281.542 195.26 281.421C195.045 280.531 194.938 279.615 194.938 278.673Z" fill="url(#paint_linear_3)" fill-opacity="0.5" fill-rule="evenodd" />
	</g>
</svg>
