<svg width="34" height="34" viewBox="0 0 34 34" fill="none" xmlns="http://www.w3.org/2000/svg">
<path d="M21.0474 24.1991C23.7314 23.8807 26.3195 23.2497 28.7743 22.3435C26.7389 20.0841 25.5 17.093 25.5 13.8125V12.8197C25.5002 12.7965 25.5002 12.7732 25.5002 12.75C25.5002 8.05558 21.6947 4.25 17.0002 4.25C12.3058 4.25 8.50024 8.05558 8.50024 12.75L8.49996 13.8125C8.49996 17.093 7.26105 20.0841 5.22559 22.3435C7.68057 23.2498 10.2689 23.8808 12.953 24.1992M21.0474 24.1991C19.7202 24.3565 18.3695 24.4375 17 24.4375C15.6306 24.4375 14.2801 24.3565 12.953 24.1992M21.0474 24.1991C21.1791 24.6091 21.2502 25.0462 21.2502 25.5C21.2502 27.8472 19.3475 29.75 17.0002 29.75C14.653 29.75 12.7502 27.8472 12.7502 25.5C12.7502 25.0463 12.8213 24.6091 12.953 24.1992" stroke="white" stroke-width="2" stroke-linecap="round" stroke-linejoin="round"/>
</svg>
