<svg width="56" height="56" viewBox="0 0 56 56" fill="none" xmlns="http://www.w3.org/2000/svg">
<rect width="56" height="56" rx="28" fill="#A53DFF"/>
<path d="M30.728 27.432C31.624 27.592 32.384 28.064 33.008 28.848C33.632 29.632 33.944 30.52 33.944 31.512C33.944 32.36 33.72 33.128 33.272 33.816C32.84 34.488 32.208 35.024 31.376 35.424C30.544 35.808 29.576 36 28.472 36H21.8V19.32H28.16C29.296 19.32 30.272 19.512 31.088 19.896C31.904 20.28 32.52 20.8 32.936 21.456C33.352 22.096 33.56 22.816 33.56 23.616C33.56 24.576 33.304 25.376 32.792 26.016C32.28 26.656 31.592 27.128 30.728 27.432ZM24.536 26.328H27.92C28.816 26.328 29.512 26.128 30.008 25.728C30.52 25.312 30.776 24.72 30.776 23.952C30.776 23.2 30.52 22.616 30.008 22.2C29.512 21.768 28.816 21.552 27.92 21.552H24.536V26.328ZM28.232 33.768C29.16 33.768 29.888 33.544 30.416 33.096C30.944 32.648 31.208 32.024 31.208 31.224C31.208 30.408 30.928 29.76 30.368 29.28C29.808 28.8 29.064 28.56 28.136 28.56H24.536V33.768H28.232Z" fill="white"/>
</svg>
