<svg viewBox="0 0 36.0001 26.3904" xmlns="http://www.w3.org/2000/svg" xmlns:xlink="http://www.w3.org/1999/xlink" width="36.000122" height="26.390381" fill="none" customFrame="#000000">
	<g id="Group 4">
		<path id="Vector" d="M0.00532623 19.7891C-0.0545939 18.16 0.520639 16.6628 0.952064 15.1295C1.44341 13.3688 1.97071 11.608 2.48602 9.84715C3.8522 5.0918 9.86818 3.13935 13.5473 6.46929C13.7031 6.61303 13.9667 6.69688 14.1824 6.69688C16.6991 6.70886 19.2157 6.70886 21.7324 6.69688C21.9241 6.69688 22.1758 6.61303 22.3196 6.48127C25.9028 3.19924 31.7869 5.03191 33.249 9.60759C34.1838 12.5303 35.0226 15.4769 35.8016 18.4475C36.7004 21.8374 34.4474 25.4188 31.032 26.2094C28.1917 26.8682 25.0999 25.2751 23.8655 22.4842C23.1225 20.8192 21.972 19.6094 20.1864 19.1662C18.5566 18.7709 16.8908 18.7589 15.285 19.3339C13.7031 19.8969 12.6245 21.0348 11.9534 22.58C11.2224 24.2809 9.96405 25.4668 8.2024 26.0537C4.23569 27.3713 0.268975 24.6762 0.00532623 20.5078C-0.00665779 20.2682 0.00532623 20.0286 0.00532623 19.7891ZM25.3515 13.3807C24.968 13.764 24.6924 14.0156 24.4288 14.2911C23.8655 14.878 23.8415 15.5967 24.3569 16.0998C24.8602 16.5909 25.5433 16.555 26.1185 16.004C26.4061 15.7285 26.6578 15.429 27.0413 15.0217C27.3648 15.405 27.6045 15.7285 27.8802 16.0159C28.4314 16.5669 29.1265 16.5909 29.6298 16.0998C30.1212 15.6207 30.1212 14.902 29.5819 14.339C29.2943 14.0395 28.9707 13.788 28.5992 13.4406C29.0067 13.0813 29.3182 12.8297 29.5939 12.5423C30.1212 11.9913 30.1332 11.2726 29.6298 10.7815C29.1505 10.3143 28.4554 10.3263 27.9161 10.8413C27.6165 11.1288 27.3529 11.4522 27.0293 11.8116C26.7057 11.4642 26.466 11.2007 26.2144 10.9491C25.6032 10.3383 24.8842 10.2784 24.3688 10.7934C23.8535 11.3085 23.8895 12.0272 24.5007 12.6381C24.7403 12.8776 25.028 13.0933 25.3515 13.3807ZM8.40613 12.2548C7.96272 12.2548 7.59121 12.2428 7.20772 12.2548C6.48868 12.2907 5.98535 12.8178 6.00932 13.4766C6.0213 14.1114 6.52463 14.6025 7.21971 14.6384C7.59121 14.6504 7.96272 14.6384 8.40613 14.6384C8.40613 15.0337 8.40613 15.3691 8.40613 15.7045C8.41811 16.519 8.90945 17.0461 9.61651 17.0341C10.3116 17.0221 10.779 16.507 10.7909 15.7285C10.8029 15.3811 10.7909 15.0337 10.7909 14.6384C11.2463 14.6384 11.5939 14.6504 11.9534 14.6384C12.6724 14.6145 13.1877 14.1114 13.1877 13.4406C13.1877 12.7818 12.6724 12.2787 11.9534 12.2548C11.5819 12.2428 11.2104 12.2548 10.8029 12.2548C10.8029 11.8236 10.8149 11.4642 10.8029 11.1049C10.779 10.3742 10.2756 9.85913 9.61651 9.85913C8.94541 9.84715 8.44208 10.3622 8.41811 11.0809C8.39414 11.4403 8.40613 11.7876 8.40613 12.2548Z" fill="rgb(0,0,0)" fill-rule="nonzero" />
		<path id="Vector" d="M19.1917 4.28918C18.3648 4.28918 17.6218 4.28918 16.8189 4.28918C16.8189 3.1752 16.7829 2.08519 16.8308 0.995169C16.8668 0.396258 17.466 -0.02298 18.0652 0.000976473C18.6644 0.0369111 19.1677 0.492084 19.1917 1.11495C19.2157 2.15706 19.1917 3.18718 19.1917 4.28918Z" fill="rgb(0,0,0)" fill-rule="nonzero" />
	</g>
</svg>
