<svg viewBox="0 0 36.6071 26.8" xmlns="http://www.w3.org/2000/svg" xmlns:xlink="http://www.w3.org/1999/xlink" width="36.607056" height="26.799988" fill="none" customFrame="#000000">
	<g id="Group 5">
		<path id="Vector" d="M18.3264 0C22.6618 0 26.9971 0 31.3324 0C32.5781 0 32.9566 0.377636 32.9566 1.64455C32.9566 6.23709 32.9566 10.8175 32.9566 15.41C32.9566 16.6769 32.5781 17.0545 31.3324 17.0545C22.6495 17.0545 13.9544 17.0545 5.27156 17.0545C4.02592 17.0545 3.64734 16.6769 3.64734 15.41C3.64734 10.8175 3.64734 6.23709 3.64734 1.64455C3.64734 0.365455 4.01371 0 5.33262 0C9.65575 0 13.9911 0 18.3264 0Z" fill="rgb(0,0,0)" fill-rule="nonzero" />
		<path id="Vector" d="M18.241 26.8C12.6844 26.8 7.12787 26.8 1.57131 26.8C1.26601 26.8 0.948491 26.7878 0.679823 26.6903C0.0325754 26.4711 -0.175032 25.9351 0.154698 25.3382C1.31486 23.2185 2.48723 21.1111 3.6596 19.0036C3.92827 18.5163 4.33127 18.2727 4.89304 18.2727C13.8324 18.2727 22.7595 18.2727 31.6988 18.2727C32.2606 18.2727 32.6636 18.5163 32.9445 19.0036C34.1169 21.1111 35.2892 23.2185 36.4494 25.3382C36.7791 25.9351 36.5837 26.4711 35.9365 26.6903C35.6556 26.7878 35.3381 26.8 35.045 26.8C29.4274 26.8 23.8342 26.8 18.241 26.8ZM18.2898 24.3636C19.0592 24.3636 19.8286 24.3758 20.5979 24.3636C21.4162 24.3514 21.9657 23.8398 21.9535 23.1332C21.9413 22.4389 21.4039 21.9516 20.6224 21.9394C19.0836 21.9273 17.5327 21.9273 15.9939 21.9394C15.1757 21.9394 14.6262 22.4511 14.6384 23.1698C14.6506 23.8642 15.1879 24.3514 15.9695 24.3636C16.7511 24.3758 17.5205 24.3636 18.2898 24.3636Z" fill="rgb(0,0,0)" fill-rule="nonzero" />
	</g>
</svg>
