<svg width="29" height="37" viewBox="0 0 29 37" fill="none" xmlns="http://www.w3.org/2000/svg">
<foreignObject x="-11.2667" y="-11.4" width="51.4526" height="60"><div xmlns="http://www.w3.org/1999/xhtml" style="backdrop-filter:blur(6px);clip-path:url(#bgblur_0_484_4_clip_path);height:100%;width:100%"></div></foreignObject><path data-figma-bg-blur-radius="12" d="M0.733276 18.5831C0.733276 13.7696 0.733276 8.9449 0.733276 4.1314C0.733276 1.89335 2.02662 0.600006 4.25343 0.600006C11.0575 0.600006 17.8617 0.600006 24.6658 0.600006C26.8926 0.600006 28.1859 1.89335 28.1859 4.1314C28.1859 13.7921 28.1859 23.4416 28.1859 33.1023C28.1859 35.2954 26.8814 36.6 24.6995 36.6C17.8729 36.6 11.0576 36.6 4.23093 36.6C2.04912 36.6 0.744523 35.2842 0.744523 33.1023C0.733276 28.2664 0.733276 23.4191 0.733276 18.5831ZM11.3387 32.3376C13.4306 32.3376 15.4999 32.3376 17.5693 32.3376C17.5693 31.6403 17.5693 30.9993 17.5693 30.3357C15.4662 30.3357 13.4081 30.3357 11.3387 30.3357C11.3387 31.0217 11.3387 31.674 11.3387 32.3376Z" fill="#E60000"/>
<foreignObject x="-11.2667" y="-11.4" width="51.4531" height="60"><div xmlns="http://www.w3.org/1999/xhtml" style="backdrop-filter:blur(6px);clip-path:url(#bgblur_1_484_4_clip_path);height:100%;width:100%"></div></foreignObject><path data-figma-bg-blur-radius="12" d="M24.6991 35.6V36.6H4.23132V35.6H24.6991ZM27.1864 33.102V4.13126C27.1864 3.20323 26.9208 2.6019 26.5526 2.23282C26.1847 1.8641 25.5869 1.60002 24.6659 1.60001H4.25378C3.33264 1.60001 2.73403 1.86401 2.36609 2.23282C1.99794 2.60191 1.7333 3.20333 1.73328 4.13126V18.5834C1.73328 23.4195 1.73375 28.2655 1.745 33.1V33.102C1.745 33.9934 2.00774 34.5915 2.37878 34.9643C2.74922 35.3362 3.34275 35.6 4.23132 35.6V36.6L4.02917 36.5961C2.03531 36.5195 0.823885 35.2986 0.747925 33.3041L0.744995 33.102C0.739373 30.6842 0.735659 28.2637 0.734253 25.8432L0.733276 4.13126C0.733331 1.96312 1.94723 0.681772 4.04773 0.603912L4.25378 0.600006H24.6659L24.8719 0.603912C26.9722 0.68194 28.1863 1.96328 28.1864 4.13126V33.102L28.1825 33.3051C28.104 35.3756 26.8128 36.6 24.6991 36.6V35.6C25.5902 35.6 26.1833 35.3373 26.5526 34.9672C26.9222 34.5967 27.1864 34.0002 27.1864 33.102ZM17.5692 32.3373V30.3354H11.3387V32.3373H17.5692ZM18.5692 33.3373H10.3387V29.3354H18.5692V33.3373Z" fill="#E60000"/>
<defs>
<clipPath id="bgblur_0_484_4_clip_path" transform="translate(11.2667 11.4)"><path d="M0.733276 18.5831C0.733276 13.7696 0.733276 8.9449 0.733276 4.1314C0.733276 1.89335 2.02662 0.600006 4.25343 0.600006C11.0575 0.600006 17.8617 0.600006 24.6658 0.600006C26.8926 0.600006 28.1859 1.89335 28.1859 4.1314C28.1859 13.7921 28.1859 23.4416 28.1859 33.1023C28.1859 35.2954 26.8814 36.6 24.6995 36.6C17.8729 36.6 11.0576 36.6 4.23093 36.6C2.04912 36.6 0.744523 35.2842 0.744523 33.1023C0.733276 28.2664 0.733276 23.4191 0.733276 18.5831ZM11.3387 32.3376C13.4306 32.3376 15.4999 32.3376 17.5693 32.3376C17.5693 31.6403 17.5693 30.9993 17.5693 30.3357C15.4662 30.3357 13.4081 30.3357 11.3387 30.3357C11.3387 31.0217 11.3387 31.674 11.3387 32.3376Z"/>
</clipPath><clipPath id="bgblur_1_484_4_clip_path" transform="translate(11.2667 11.4)"><path d="M24.6991 35.6V36.6H4.23132V35.6H24.6991ZM27.1864 33.102V4.13126C27.1864 3.20323 26.9208 2.6019 26.5526 2.23282C26.1847 1.8641 25.5869 1.60002 24.6659 1.60001H4.25378C3.33264 1.60001 2.73403 1.86401 2.36609 2.23282C1.99794 2.60191 1.7333 3.20333 1.73328 4.13126V18.5834C1.73328 23.4195 1.73375 28.2655 1.745 33.1V33.102C1.745 33.9934 2.00774 34.5915 2.37878 34.9643C2.74922 35.3362 3.34275 35.6 4.23132 35.6V36.6L4.02917 36.5961C2.03531 36.5195 0.823885 35.2986 0.747925 33.3041L0.744995 33.102C0.739373 30.6842 0.735659 28.2637 0.734253 25.8432L0.733276 4.13126C0.733331 1.96312 1.94723 0.681772 4.04773 0.603912L4.25378 0.600006H24.6659L24.8719 0.603912C26.9722 0.68194 28.1863 1.96328 28.1864 4.13126V33.102L28.1825 33.3051C28.104 35.3756 26.8128 36.6 24.6991 36.6V35.6C25.5902 35.6 26.1833 35.3373 26.5526 34.9672C26.9222 34.5967 27.1864 34.0002 27.1864 33.102ZM17.5692 32.3373V30.3354H11.3387V32.3373H17.5692ZM18.5692 33.3373H10.3387V29.3354H18.5692V33.3373Z"/>
</clipPath></defs>
</svg>
