<svg viewBox="0 0 34.6223 25.6041" xmlns="http://www.w3.org/2000/svg" xmlns:xlink="http://www.w3.org/1999/xlink" width="34.622314" height="25.604126" fill="none" customFrame="#000000">
	<g id="Group 2">
		<path id="Vector" d="M0.0112305 17.0257C0.0112305 16.8359 0.0112305 16.6908 0.0112305 16.5457C0.0112305 11.544 0.0112305 6.53118 0.0112305 1.52952C0.0112305 0.468905 0.468843 0 1.55149 0C12.0654 0 22.5682 0 33.0821 0C34.1536 0 34.6224 0.468905 34.6224 1.51836C34.6224 6.52002 34.6224 11.5328 34.6224 16.5345C34.6224 16.6796 34.6224 16.8248 34.6224 17.0146C23.0816 17.0257 11.5855 17.0257 0.0112305 17.0257ZM14.8557 12.3143C16.7866 11.1979 18.6171 10.1373 20.5368 9.03201C18.6059 7.91557 16.7532 6.85495 14.8557 5.74967C14.8557 7.97139 14.8557 10.0815 14.8557 12.3143Z" fill="rgb(0,0,0)" fill-rule="nonzero" />
		<path id="Vector" d="M28.8854 22.1838C29.2537 23.1216 29.6221 23.9477 29.9011 24.8074C29.9681 25.0084 29.8118 25.3991 29.6332 25.5219C29.3654 25.7117 29.064 25.5554 28.9189 25.2316C28.8631 25.1088 28.8185 24.9972 28.7626 24.8744C28.4501 24.1152 28.1376 23.3672 27.8474 22.5968C27.7358 22.2842 27.5907 22.1726 27.2447 22.1726C20.6261 22.1838 14.0074 22.1838 7.38877 22.1726C7.0651 22.1726 6.89768 22.2507 6.7749 22.5745C6.47355 23.4118 6.11639 24.2268 5.78155 25.053C5.63645 25.4103 5.42439 25.7005 4.9891 25.5331C4.54264 25.3656 4.59845 25.0084 4.73239 24.6511C5.05606 23.8473 5.37974 23.0434 5.72574 22.1726C4.28594 22.1726 2.93542 22.1726 1.5849 22.1726C0.468774 22.1726 0 21.7037 0 20.5761C0 19.7946 0 19.0242 0 18.2092C11.5408 18.2092 23.0369 18.2092 34.5888 18.2092C34.5888 19.1694 34.6335 20.1183 34.5777 21.0562C34.5442 21.7372 33.9638 22.1614 33.2048 22.1726C31.8097 22.1838 30.3922 22.1838 28.8854 22.1838ZM17.2888 20.4086C18.7063 20.4086 20.1126 20.4086 21.5301 20.4086C21.9208 20.4086 22.3226 20.3863 22.3226 19.8727C22.3226 19.3815 21.9431 19.2922 21.5413 19.2922C18.7175 19.2922 15.8937 19.2922 13.0699 19.2922C12.6569 19.2922 12.2886 19.3927 12.2997 19.8839C12.3109 20.364 12.6792 20.4086 13.0587 20.4086C14.465 20.3975 15.8825 20.4086 17.2888 20.4086Z" fill="rgb(0,0,0)" fill-rule="nonzero" />
	</g>
</svg>
