<svg viewBox="0 0 33.6069 25.1974" xmlns="http://www.w3.org/2000/svg" xmlns:xlink="http://www.w3.org/1999/xlink" width="33.606934" height="25.197449" fill="none" customFrame="#000000">
	<g id="Group 3">
		<path id="Vector" d="M16.7911 8.40356C20.4335 8.40356 24.0654 8.40356 27.7077 8.40356C29.6391 8.40356 30.7728 9.52613 30.7938 11.446C30.8043 12.4322 30.9722 12.5896 31.9589 12.6001C33.0611 12.6001 33.6069 13.1351 33.6069 14.2262C33.6069 15.9363 33.6069 17.6569 33.6069 19.3669C33.6069 20.458 33.0611 20.9931 31.9589 20.9931C30.9722 20.9931 30.8043 21.1609 30.7938 22.1471C30.7833 24.067 29.6391 25.2001 27.7077 25.1896C26.1332 25.1791 24.5587 25.1791 22.9947 25.1056C22.0815 25.0637 21.2732 24.665 20.549 24.13C19.8247 23.6054 19.1214 23.0599 18.4076 22.5353C17.3055 21.7065 16.3398 21.7065 15.2376 22.5248C14.5344 23.0494 13.8416 23.5739 13.1383 24.0985C12.1516 24.8224 11.0389 25.1896 9.81083 25.1896C8.44626 25.2001 7.08168 25.2001 5.71711 25.1896C4.01664 25.1791 2.85151 24.025 2.82002 22.3255C2.82002 22.1681 2.82002 22.0107 2.82002 21.8534C2.78853 21.2449 2.5471 21.0141 1.93829 20.9931C1.75985 20.9931 1.5919 20.9931 1.41346 20.9931C0.594711 20.9511 0.0173915 20.4056 0.0173915 19.5977C-0.0036019 17.7303 -0.0036019 15.8524 0.00689482 13.9849C0.0173915 13.1981 0.584214 12.6525 1.36097 12.6001C1.48693 12.5896 1.6024 12.6001 1.72836 12.6001C2.59958 12.6001 2.79902 12.4007 2.80952 11.5195C2.83051 9.50515 3.93267 8.40356 5.92704 8.40356C9.54841 8.40356 13.1698 8.40356 16.7911 8.40356Z" fill="rgb(0,0,0)" fill-rule="nonzero" />
		<path id="Vector" d="M16.7807 5.59184C15.9095 5.59184 15.0278 5.60233 14.1565 5.59184C13.1384 5.58135 12.603 5.0463 12.603 4.03913C12.603 3.22082 12.603 2.39201 12.603 1.57369C12.6135 0.566528 13.1594 0.0104913 14.146 0C15.9095 0 17.6834 0 19.4469 0C20.4441 0 21.0004 0.566528 21.0004 1.5632C21.0109 2.4025 21.0109 3.2418 21.0004 4.0811C20.9899 5.0358 20.4546 5.57086 19.5099 5.59184C18.5967 5.60233 17.6834 5.59184 16.7807 5.59184Z" fill="rgb(0,0,0)" fill-rule="nonzero" />
	</g>
</svg>
