<?xml version="1.0" encoding="utf-8"?>
<!-- Generator: Adobe Illustrator 26.3.1, SVG Export Plug-In . SVG Version: 6.00 Build 0)  -->
<svg version="1.1" id="Layer_1" xmlns="http://www.w3.org/2000/svg" xmlns:xlink="http://www.w3.org/1999/xlink" x="0px" y="0px"
	 viewBox="0 0 140 37" style="enable-background:new 0 0 140 37;" xml:space="preserve">
<style type="text/css">
	.st0{fill:#B8BCC2;}
</style>
<path class="st0" d="M0,31h15.3v-5.1H5.5V6.5H0V31z M23.1,31V14.1h-5.5V31H23.1z M20.3,11.8c1.9,0,3.1-1.3,3.1-2.9
	c0-1.7-1.2-2.9-3.1-2.9c-1.9,0-3.1,1.3-3.1,2.9C17.2,10.5,18.4,11.8,20.3,11.8L20.3,11.8L20.3,11.8z M25.7,31h5.5v-9.4
	c0-0.5,0-1,0.2-1.4c0.4-1,1.3-2.1,2.8-2.1c2,0,2.8,1.5,2.8,3.8v9h5.5v-9.7c0-5.2-2.7-7.6-6.4-7.6c-3,0-4.3,1.7-5,2.8h0v-2.4h-5.5
	C25.7,15.7,25.7,31,25.7,31L25.7,31z M50.4,6.5h-5.5V31h5.5v-5.5l1.4-1.8l4.3,7.2H63l-7.3-10.5l6.4-7.1h-6.7c0,0-4.6,6.4-5,7.1V6.5z
	"/>
<path class="st0" d="M78.1,23.8c0.1-0.4,0.2-1.2,0.2-2.1c0-4.2-2.2-8.5-8.1-8.5c-6.3,0-9.2,4.8-9.2,9.1c0,5.3,3.5,8.7,9.7,8.7
	c2.5,0,4.7-0.3,6.6-1.1l-0.7-3.6c-1.5,0.5-3.1,0.7-5,0.7c-2.6,0-4.9-1-5.1-3.2L78.1,23.8L78.1,23.8L78.1,23.8z M66.3,20.2
	c0.1-1.4,1.1-3.4,3.5-3.4c2.6,0,3.2,2.2,3.2,3.4H66.3L66.3,20.2z M92.2,7v8.2h-0.1c-0.8-1.1-2.5-1.9-4.8-1.9c-4.3,0-8.2,3.3-8.1,9
	c0,5.3,3.5,8.7,7.8,8.7c2.3,0,4.6-1,5.7-2.8h0.1l0.2,2.5h5c-0.1-1.1-0.1-3.1-0.1-5.1V7L92.2,7L92.2,7z M92.2,23.1
	c0,0.4,0,0.8-0.1,1.2c-0.3,1.5-1.7,2.5-3.3,2.5c-2.3,0-3.9-1.8-3.9-4.6c0-2.7,1.3-4.8,3.9-4.8c1.7,0,3,1.1,3.3,2.6
	c0.1,0.3,0.1,0.7,0.1,1V23.1L92.2,23.1z"/>
<path class="st0" d="M137.3,0h-31.5c-1.5,0-2.7,1.2-2.7,2.7v31.7c0,1.5,1.2,2.6,2.7,2.6h31.5c1.5,0,2.7-1.2,2.7-2.7V2.7
	C140,1.2,138.8,0,137.3,0z M108.3,31V14.1h5.6V31H108.3z M111.1,11.8L111.1,11.8c-1.9,0-3.1-1.3-3.1-2.9c0-1.7,1.2-2.9,3.2-2.9
	c1.9,0,3.1,1.3,3.1,2.9C114.3,10.5,113.1,11.8,111.1,11.8z M134,31h-5.6v-9c0-2.3-0.8-3.8-2.8-3.8c-1.5,0-2.5,1-2.9,2.1
	c-0.1,0.4-0.2,0.9-0.2,1.4V31H117v0v0l0,0c0,0,0.1-15.3,0-16.9h5.6v2.4c0.7-1.1,2.1-2.8,5-2.8c3.7,0,6.4,2.4,6.4,7.6V31z"/>
</svg>
