<svg viewBox="0 0 15.5078 17.0607" xmlns="http://www.w3.org/2000/svg" xmlns:xlink="http://www.w3.org/1999/xlink" width="15.507812" height="17.060669" fill="none" customFrame="#000000">
	<path id="Vector 619(Border)" d="M8.75409 1C8.75409 0.44 8.31409 0 7.75409 0C7.19409 0 6.75409 0.44 6.75409 1L6.75409 13.5858L1.7112 8.54289C1.31522 8.14691 0.692965 8.14691 0.296985 8.54289C-0.098995 8.93887 -0.098995 9.56113 0.296985 9.95711L7.04698 16.7071C7.28269 16.9428 7.51839 17.0607 7.75409 17.0607C7.98979 17.0607 8.2255 16.9428 8.4612 16.7071L15.2112 9.95711C15.6072 9.56113 15.6072 8.93887 15.2112 8.54289C14.8152 8.14691 14.193 8.14691 13.797 8.54289L8.75409 13.5858L8.75409 1Z" fill="rgb(153,153,153)" fill-rule="evenodd" />
</svg>
