<svg viewBox="0 0 23.0605 19.5082" xmlns="http://www.w3.org/2000/svg" xmlns:xlink="http://www.w3.org/1999/xlink" width="23.060547" height="19.508179" fill="none" customFrame="#000000">
	<path id="Vector(Border)" d="M13.9571 0.296985C13.5611 -0.098995 12.9389 -0.098995 12.5429 0.296985C12.1469 0.692965 12.1469 1.31522 12.5429 1.7112L19.5858 8.75409L1 8.75409C0.44 8.75409 0 9.19409 0 9.75409C0 10.3141 0.44 10.7541 1 10.7541L19.5858 10.7541L12.5429 17.797C12.1469 18.193 12.1469 18.8152 12.5429 19.2112C12.9389 19.6072 13.5611 19.6072 13.9571 19.2112L22.7071 10.4612C23.1785 9.98979 23.1785 9.51839 22.7071 9.04698L13.9571 0.296985L13.9571 0.296985Z" fill="rgb(255,255,255)" fill-rule="evenodd" transform="matrix(-1,0,0,-1,23.0605,19.5082)" />
</svg>
