<svg viewBox="0 0 23.0605 19.5082" xmlns="http://www.w3.org/2000/svg" xmlns:xlink="http://www.w3.org/1999/xlink" width="23.060547" height="19.508179" fill="none" customFrame="#000000">
	<path id="Vector(Border)" d="M13.9571 0.296924C13.5611 -0.099056 12.9389 -0.099056 12.5429 0.296924C12.1469 0.692904 12.1469 1.31516 12.5429 1.71114L19.5858 8.75403L1 8.75403C0.44 8.75403 0 9.19403 0 9.75403C0 10.314 0.44 10.754 1 10.754L19.5858 10.754L12.5429 17.7969C12.1469 18.1929 12.1469 18.8152 12.5429 19.2111C12.9389 19.6071 13.5611 19.6071 13.9571 19.2111L22.7071 10.4611C23.1785 9.98973 23.1785 9.51833 22.7071 9.04692L13.9571 0.296924L13.9571 0.296924Z" fill="rgb(255,255,255)" fill-rule="evenodd" />
</svg>
