<svg width="20" height="20" viewBox="0 0 20 20" fill="none" xmlns="http://www.w3.org/2000/svg">
<path d="M13.5002 9.75024C13.5002 7.67917 11.8213 6.00024 9.75024 6.00024C7.67917 6.00024 6.00024 7.67917 6.00024 9.75024C6.00024 11.8213 7.67917 13.5002 9.75024 13.5002C11.8213 13.5002 13.5002 11.8213 13.5002 9.75024ZM15.0002 9.75024C15.0002 10.4319 15.2084 11.0201 15.509 11.4211C15.8096 11.822 16.1679 12.0002 16.5002 12.0002C16.8326 12.0002 17.1908 11.822 17.4915 11.4211C17.7921 11.0201 18.0002 10.4319 18.0002 9.75024C18.0002 7.63772 17.1953 5.52732 15.5842 3.91626C12.3624 0.69443 7.13808 0.69443 3.91626 3.91626C0.694431 7.13808 0.69443 12.3624 3.91626 15.5842C7.13808 18.8061 12.3624 18.8061 15.5842 15.5842C15.8771 15.2913 16.3519 15.2913 16.6448 15.5842C16.9374 15.8771 16.9376 16.352 16.6448 16.6448C12.8372 20.4524 6.66332 20.4524 2.85571 16.6448C-0.951903 12.8372 -0.951903 6.66332 2.85571 2.85571C6.66332 -0.951903 12.8372 -0.951903 16.6448 2.85571C18.5484 4.75937 19.5002 7.25616 19.5002 9.75024C19.5002 10.7251 19.2051 11.6368 18.6916 12.3215C18.1779 13.0065 17.4106 13.5002 16.5002 13.5002C15.5955 13.5002 14.8323 13.0126 14.3186 12.3342C13.4167 13.9254 11.7099 15.0002 9.75024 15.0002C6.85075 15.0002 4.50024 12.6497 4.50024 9.75024C4.50024 6.85075 6.85075 4.50024 9.75024 4.50024C11.2196 4.50024 12.5473 5.10456 13.5002 6.07739V6.00024C13.5002 5.58603 13.836 5.25024 14.2502 5.25024C14.6645 5.25024 15.0002 5.58603 15.0002 6.00024V9.75024Z" fill="white"/>
</svg>
