<svg viewBox="0 0 20.8107 18.8832" xmlns="http://www.w3.org/2000/svg" xmlns:xlink="http://www.w3.org/1999/xlink" width="20.810669" height="18.883179" fill="none" customFrame="#000000">
	<path id="Vector 619(Border)" d="M12.0196 0.296924C11.6236 -0.099056 11.0014 -0.099056 10.6054 0.296924C10.2094 0.692904 10.2094 1.31516 10.6054 1.71114L17.3358 8.44153L1 8.44153C0.44 8.44153 0 8.88153 0 9.44153C0 10.0015 0.44 10.4415 1 10.4415L17.3358 10.4415L10.6054 17.1719C10.2094 17.5679 10.2094 18.1902 10.6054 18.5861C11.0014 18.9821 11.6236 18.9821 12.0196 18.5861L20.4571 10.1486C20.9285 9.67723 20.9285 9.20583 20.4571 8.73442L12.0196 0.296924L12.0196 0.296924Z" fill="rgb(255,255,255)" fill-rule="evenodd" />
</svg>
