<svg viewBox="0 0 20.2791 20.2543" xmlns="http://www.w3.org/2000/svg" xmlns:xlink="http://www.w3.org/1999/xlink" width="20.279144" height="20.254333" fill="none" customFrame="#000000">
	<path id="Subtract(Border)" d="M19.2131 12.814C18.1104 13.2742 16.956 13.5042 15.75 13.5042C15.0685 13.5042 14.4037 13.4308 13.7554 13.284C13.2422 13.1678 12.7394 13.0055 12.247 12.7973C11.7447 12.5848 11.2691 12.3315 10.8203 12.0373C10.3072 11.701 9.82913 11.3113 9.38604 10.8682C8.94298 10.4251 8.5533 9.94709 8.217 9.43405C7.9228 8.98522 7.66945 8.50961 7.45696 8.00722C7.24869 7.51482 7.08644 7.01201 6.97021 6.49877C6.8234 5.85055 6.75 5.18571 6.75 4.50424C6.75 3.29822 6.98007 2.14385 7.44021 1.04112C7.53649 0.810396 7.55101 0.613288 7.48379 0.449791C7.41657 0.286295 7.2676 0.15641 7.03688 0.0601365C6.9406 0.0199643 6.84433 -0.000121891 6.74806 -0.00012207C6.65178 -0.000122249 6.55551 0.019964 6.45924 0.0601367C6.02837 0.239924 5.61311 0.446433 5.21343 0.679663C4.7366 0.957917 4.28196 1.27421 3.84952 1.62853C3.44594 1.9592 3.0707 2.31558 2.72379 2.69769C2.39259 3.06249 2.08721 3.45074 1.80766 3.86243C1.49467 4.32336 1.22141 4.80291 0.987886 5.30109C0.788194 5.7271 0.617556 6.16673 0.475974 6.61997C0.348155 7.02916 0.24608 7.44304 0.169748 7.86162C0.0565825 8.48217 -5.96046e-08 9.11305 0 9.75424C1.78814e-07 10.5371 0.0831777 11.3014 0.249533 12.0471C0.385742 12.6577 0.577715 13.2558 0.82545 13.8415C1.07591 14.4337 1.37493 14.9939 1.72252 15.5221C2.11238 16.1146 2.56333 16.6668 3.07538 17.1789C4.04397 18.1474 5.1564 18.8974 6.4127 19.4288C7.71375 19.9791 9.07619 20.2542 10.5 20.2542C11.1411 20.2542 11.7718 20.1977 12.3923 20.0846C12.811 20.0082 13.225 19.9061 13.6343 19.7783C14.6175 19.4711 15.5367 19.0272 16.3918 18.4466C16.8036 18.167 17.1919 17.8615 17.5568 17.5302C17.9388 17.1834 18.2951 16.8082 18.6257 16.4047C18.98 15.9723 19.2962 15.5178 19.5745 15.041C19.8077 14.6413 20.0143 14.2259 20.1941 13.795C20.3866 13.3336 20.2522 13.0066 19.7908 12.814C19.5982 12.7337 19.4057 12.7337 19.2131 12.814ZM11.6627 14.1788C12.9638 14.7291 14.3262 15.0042 15.75 15.0042C16.5089 15.0042 17.2504 14.926 17.9747 14.7696C17.8166 15.0045 17.6468 15.2327 17.4654 15.4541C17.1808 15.8015 16.8739 16.1245 16.5448 16.4229C16.2328 16.7058 15.901 16.9667 15.5492 17.2056C14.8165 17.7032 14.0291 18.0835 13.187 18.3465C12.3168 18.6183 11.4211 18.7542 10.5 18.7542C9.27897 18.7542 8.11131 18.5186 6.99703 18.0473C5.92037 17.5919 4.96671 16.9489 4.13604 16.1182C3.69297 15.6751 3.30329 15.1971 2.96699 14.684C2.67279 14.2352 2.41945 13.7596 2.20696 13.2572C1.9987 12.7648 1.83645 12.262 1.72022 11.7488C1.57341 11.1006 1.5 10.4357 1.5 9.75424C1.5 9.18927 1.55113 8.63389 1.65339 8.08808C1.71785 7.74399 1.80264 7.4037 1.90775 7.06722C2.02727 6.68457 2.17101 6.31322 2.33896 5.95316C2.54061 5.52085 2.77716 5.10483 3.0486 4.70508C3.28746 4.35333 3.5483 4.02152 3.83113 3.70965C4.12965 3.38048 4.45267 3.07353 4.80018 2.7888C5.02159 2.60739 5.24975 2.43762 5.48467 2.2795C5.32823 3.00379 5.25 3.74537 5.25 4.50424C5.25 5.28707 5.33318 6.05134 5.49953 6.79705C5.63574 7.40766 5.82771 8.00582 6.07545 8.59154C6.32593 9.18374 6.62498 9.74397 6.97261 10.2722C7.36244 10.8646 7.81337 11.4168 8.32538 11.9289C8.83743 12.4409 9.38969 12.8919 9.98215 13.2817C10.5104 13.6293 11.0706 13.9283 11.6627 14.1788Z" fill="rgb(255,255,255)" fill-rule="evenodd" />
</svg>
