<svg viewBox="0 0 19.5 19.5" xmlns="http://www.w3.org/2000/svg" xmlns:xlink="http://www.w3.org/1999/xlink" width="19.500000" height="19.500000" fill="none" customFrame="#000000">
	<path id="Vector(Border)" d="M10.5 0.75C10.5 0.33 10.17 0 9.75 0C9.33 0 9 0.33 9 0.75L9 3C9 3.42 9.33 3.75 9.75 3.75C10.17 3.75 10.5 3.42 10.5 3L10.5 0.75ZM3.91637 2.85571C3.61938 2.55872 3.15269 2.55872 2.85571 2.85571C2.55872 3.15269 2.55872 3.61938 2.85571 3.91637L4.4467 5.50736C4.74368 5.80434 5.21037 5.80434 5.50736 5.50736C5.80434 5.21037 5.80434 4.74368 5.50736 4.4467L3.91637 2.85571ZM16.6443 3.91637L15.0533 5.50736C14.7563 5.80435 14.2896 5.80434 13.9926 5.50736C13.6957 5.21037 13.6957 4.74369 13.9926 4.4467L15.5836 2.85571C15.8806 2.55873 16.3473 2.55872 16.6443 2.85571C16.9413 3.15269 16.9413 3.61938 16.6443 3.91637ZM7.99817 13.8961C8.55604 14.132 9.13999 14.25 9.75 14.25C10.0823 14.25 10.4068 14.215 10.7237 14.145C10.9885 14.0865 11.2478 14.0035 11.5018 13.8961C12.0403 13.6683 12.517 13.3469 12.932 12.932C13.3469 12.517 13.6683 12.0403 13.8961 11.5018C14.132 10.944 14.25 10.36 14.25 9.75C14.25 9.41773 14.215 9.09319 14.145 8.77638C14.0865 8.51157 14.0035 8.25217 13.8961 7.99817C13.6683 7.45971 13.347 6.98299 12.932 6.56802C12.7138 6.34986 12.4786 6.15758 12.2263 5.99116C11.9987 5.84103 11.7572 5.71196 11.5018 5.60394C11.2478 5.49651 10.9885 5.41354 10.7237 5.35502C10.4068 5.28501 10.0823 5.25 9.75 5.25C9.41773 5.25 9.09319 5.285 8.77638 5.35501C8.51157 5.41353 8.25217 5.49651 7.99817 5.60394C7.7428 5.71195 7.50132 5.84102 7.27373 5.99114C7.02142 6.15756 6.78619 6.34985 6.56802 6.56802C6.34986 6.78618 6.15757 7.02141 5.99116 7.2737C5.84103 7.5013 5.71196 7.74279 5.60394 7.99817C5.49651 8.25216 5.41354 8.51155 5.35502 8.77635C5.28501 9.09316 5.25 9.41771 5.25 9.75C5.25 10.0823 5.28501 10.4068 5.35502 10.7237C5.41354 10.9885 5.49651 11.2478 5.60394 11.5018C5.83169 12.0403 6.15305 12.517 6.56802 12.932C6.78618 13.1501 7.02141 13.3424 7.2737 13.5088C7.5013 13.659 7.74279 13.788 7.99817 13.8961ZM10.9175 12.5146C10.5464 12.6715 10.1572 12.75 9.75 12.75C9.51907 12.75 9.29394 12.7248 9.07462 12.6743C8.9072 12.6357 8.74315 12.5825 8.58249 12.5146C8.41692 12.4445 8.26005 12.3612 8.11189 12.2644C7.93896 12.1516 7.77789 12.0205 7.62868 11.8713C7.35163 11.5943 7.13722 11.2763 6.98545 10.9175C6.82848 10.5464 6.75 10.1572 6.75 9.75C6.75 9.51907 6.77524 9.29394 6.82572 9.07462C6.86425 8.9072 6.91749 8.74315 6.98545 8.58249C7.13722 8.22367 7.35163 7.90573 7.62868 7.62868C7.7779 7.47946 7.93898 7.34841 8.11193 7.23553C8.26008 7.13883 8.41693 7.05547 8.58249 6.98545C8.9536 6.82848 9.34277 6.75 9.75 6.75C10.1572 6.75 10.5464 6.82848 10.9175 6.98545C11.2763 7.13722 11.5943 7.35163 11.8713 7.62868C12.1484 7.90573 12.3628 8.22367 12.5146 8.58249C12.6715 8.9536 12.75 9.34277 12.75 9.75C12.75 10.1572 12.6715 10.5464 12.5146 10.9175C12.4445 11.0831 12.3611 11.24 12.2644 11.3881C12.1516 11.5611 12.0205 11.7221 11.8713 11.8713C11.5943 12.1484 11.2763 12.3628 10.9175 12.5146ZM0.75 9L3 9C3.42 9 3.75 9.33 3.75 9.75C3.75 10.17 3.42 10.5 3 10.5L0.75 10.5C0.33 10.5 0 10.17 0 9.75C0 9.33 0.33 9 0.75 9ZM16.5 9L18.75 9C19.17 9 19.5 9.33 19.5 9.75C19.5 10.17 19.17 10.5 18.75 10.5L16.5 10.5C16.08 10.5 15.75 10.17 15.75 9.75C15.75 9.33 16.08 9 16.5 9ZM5.50736 15.0533L3.91637 16.6443C3.61938 16.9413 3.15269 16.9413 2.85571 16.6443C2.55872 16.3473 2.55872 15.8806 2.85571 15.5836L4.4467 13.9926C4.74369 13.6957 5.21037 13.6957 5.50736 13.9926C5.80434 14.2896 5.80435 14.7563 5.50736 15.0533ZM15.0533 13.9926C14.7563 13.6957 14.2896 13.6957 13.9926 13.9926C13.6957 14.2896 13.6957 14.7563 13.9926 15.0533L15.5836 16.6443C15.8806 16.9413 16.3473 16.9413 16.6443 16.6443C16.9413 16.3473 16.9413 15.8806 16.6443 15.5836L15.0533 13.9926ZM10.5 16.5C10.5 16.08 10.17 15.75 9.75 15.75C9.33 15.75 9 16.08 9 16.5L9 18.75C9 19.17 9.33 19.5 9.75 19.5C10.17 19.5 10.5 19.17 10.5 18.75L10.5 16.5Z" fill="rgb(255,255,255)" fill-rule="evenodd" />
</svg>
