<svg viewBox="0 0 24.75 23" xmlns="http://www.w3.org/2000/svg" xmlns:xlink="http://www.w3.org/1999/xlink" width="24.750000" height="23.000000" fill="none" customFrame="#000000">
	<path id="Vector(Border)" d="M6.6538 21.2499C6.65427 21.2869 6.65359 21.3241 6.65176 21.3616C6.63804 21.6418 6.56146 21.9038 6.42201 22.1476C6.27775 22.3997 6.08429 22.601 5.84165 22.7516C5.71342 22.8311 5.57953 22.8915 5.43998 22.9329C5.28909 22.9775 5.13158 22.9999 4.96745 22.9999L3.90837 22.9999C3.55211 22.9999 3.20493 22.9492 2.86681 22.8478C2.62024 22.7739 2.38725 22.6757 2.16782 22.5532C2.08437 22.5066 2.00288 22.4564 1.92336 22.4028C1.71489 22.2622 1.52713 22.1023 1.36006 21.9231C1.28682 21.8446 1.21755 21.7623 1.15226 21.6763C0.926892 21.3795 0.759754 21.0526 0.650848 20.6957C0.478301 20.1301 0.340063 19.5585 0.236132 18.9806C0.0787107 18.1054 1.19209e-07 17.2159 0 16.3124C0 15.2461 0.108437 14.2029 0.325311 13.1828C0.496154 12.3792 0.734286 11.5899 1.03971 10.8149C1.16787 10.4897 1.34549 10.194 1.57255 9.92781C1.63469 9.85497 1.69982 9.78517 1.76793 9.71843C1.93684 9.55292 2.12411 9.40615 2.32975 9.27812C2.60767 9.10509 2.90741 8.97358 3.22899 8.88358C3.34675 8.85062 3.46557 8.82375 3.58544 8.80298C3.78976 8.76758 3.99714 8.74988 4.20758 8.74988L5.4358 8.74988C5.60854 8.74988 5.77363 8.77442 5.93107 8.82349C6.07799 8.86929 6.21825 8.93645 6.35185 9.02499C6.53265 9.14481 6.68429 9.2928 6.80677 9.46896C6.85434 9.44731 6.90178 9.4234 6.9491 9.39722C7.22873 9.24255 7.47778 9.02593 7.69625 8.74737C7.94077 8.43558 8.19988 8.13787 8.47358 7.85423C8.75386 7.56376 9.04943 7.28805 9.36031 7.0271C9.70407 6.73854 10.0621 6.47172 10.4345 6.22664C10.7311 6.03147 11.0367 5.85009 11.3514 5.68249C11.7081 5.49253 12.011 5.27255 12.2602 5.02255C12.5149 4.76699 12.7018 4.49021 12.821 4.19223C12.9223 3.93892 12.9983 3.68073 13.049 3.41766C13.0997 3.15459 13.125 2.88664 13.125 2.61382L13.125 1.87488C13.125 1.74159 13.1386 1.61119 13.1657 1.48369C13.1903 1.36834 13.226 1.25535 13.2728 1.14474C13.3677 0.920294 13.5015 0.721733 13.6742 0.549053C13.8469 0.376372 14.0454 0.242566 14.2699 0.147635C14.3805 0.100851 14.4934 0.0651765 14.6088 0.040612C14.7363 0.013456 14.8667 -0.000121951 15 -0.00012207C15.2647 -0.00012207 15.5234 0.0274882 15.776 0.0827089C15.9922 0.129969 16.204 0.197452 16.4113 0.285159C16.6185 0.372799 16.8144 0.477624 16.9988 0.599635C17.2006 0.733073 17.3887 0.887067 17.5633 1.06162C17.8974 1.39577 18.1562 1.77975 18.3397 2.21356C18.4274 2.42092 18.4949 2.6327 18.5422 2.84889C18.5974 3.10152 18.625 3.36018 18.625 3.62488C18.625 5.09521 18.3114 6.48972 17.6841 7.80841C17.6752 7.82715 17.6761 7.8493 17.6868 7.87488L21.274 7.87488C21.6843 7.87488 22.0814 7.94185 22.4653 8.0758C22.8487 8.20954 23.1947 8.40147 23.5034 8.65159C23.7165 8.82423 23.9026 9.01707 24.0615 9.23011C24.1421 9.33815 24.2158 9.45139 24.2825 9.56982C24.492 9.94184 24.6195 10.3418 24.665 10.7697C24.7217 11.3017 24.75 11.8367 24.75 12.3749C24.75 14.1237 24.457 15.8141 23.8709 17.4459C23.6091 18.1747 23.2952 18.875 22.929 19.5468C22.5028 20.3287 22.0059 21.0721 21.4383 21.7769C21.1152 22.1781 20.7121 22.4857 20.2292 22.6996C19.7773 22.8998 19.2967 22.9999 18.7873 22.9999L14.102 22.9999C13.4258 22.9999 12.767 22.893 12.1255 22.6791L8.49201 21.468C8.27404 21.3953 8.05312 21.3408 7.82925 21.3045C7.60514 21.2681 7.37807 21.2499 7.14804 21.2499L6.6538 21.2499ZM5.9621 19.2499C5.86714 18.9585 5.78682 18.6639 5.72113 18.3661C5.57371 17.6978 5.5 17.0132 5.5 16.3124C5.5 15.4241 5.62003 14.5572 5.86009 13.7117C5.9664 13.3373 6.09474 12.9722 6.24511 12.6164C6.39724 12.2564 6.57192 11.906 6.76914 11.5651C7.1626 11.4923 7.54527 11.353 7.91716 11.1473C8.43358 10.8617 8.88452 10.4731 9.26998 9.98161C9.69902 9.43456 10.1753 8.94466 10.6988 8.51191C11.1884 8.10721 11.7193 7.7525 12.2915 7.44777C12.8247 7.16381 13.2865 6.82601 13.6768 6.43438C14.0771 6.03273 14.3865 5.59002 14.6051 5.10626C14.6306 5.04974 14.6549 4.99266 14.678 4.93501C14.976 4.18998 15.125 3.41625 15.125 2.61382L15.125 2.00449C15.211 2.01089 15.2954 2.02395 15.3782 2.04368C15.4646 2.06425 15.5493 2.09209 15.6322 2.12717C15.8265 2.20935 15.9988 2.32557 16.149 2.47583C16.2317 2.55844 16.304 2.64771 16.366 2.74363C16.4168 2.82218 16.4607 2.90519 16.4977 2.99266C16.5328 3.07559 16.5606 3.16024 16.5812 3.24662C16.6104 3.36923 16.625 3.49531 16.625 3.62488C16.625 4.26167 16.5512 4.8803 16.4035 5.48077C16.28 5.98299 16.1048 6.4725 15.878 6.94932C15.7392 7.24126 15.6732 7.54978 15.6801 7.87488L15 7.87488C14.44 7.87488 14 8.31488 14 8.87488C14 9.43488 14.44 9.87488 15 9.87488L21.274 9.87488C21.4584 9.87488 21.6359 9.90465 21.8066 9.96419C21.9704 10.0213 22.1163 10.1018 22.2444 10.2056C22.4992 10.412 22.6432 10.6706 22.6763 10.9814C22.7254 11.443 22.75 11.9075 22.75 12.3749C22.75 13.2612 22.6633 14.13 22.49 14.981C22.3667 15.5862 22.1996 16.1825 21.9886 16.7699C21.7647 17.3932 21.4966 17.9927 21.1844 18.5681C20.8125 19.2535 20.3779 19.905 19.8807 20.5224C19.7603 20.6718 19.6065 20.788 19.4192 20.871C19.2252 20.9569 19.0146 20.9999 18.7873 20.9999L14.102 20.9999C13.6422 20.9999 13.1942 20.9272 12.758 20.7818L9.12447 19.5706C8.48302 19.3568 7.82421 19.2499 7.14804 19.2499L5.9621 19.2499ZM4.93244 10.7499L4.20758 10.7499C3.90248 10.7499 3.62889 10.8252 3.3868 10.976C3.15634 11.1194 2.99422 11.3102 2.90043 11.5482C2.6414 12.2054 2.43826 12.8748 2.29101 13.5562C2.097 14.454 2 15.3727 2 16.3124C2 17.1165 2.07178 17.9075 2.21533 18.6851C2.30406 19.1658 2.42021 19.6414 2.56379 20.112C2.64328 20.3725 2.80257 20.5834 3.04164 20.7447C3.11859 20.7966 3.19895 20.8405 3.28271 20.8766C3.47357 20.9588 3.68213 20.9999 3.90837 20.9999L4.49584 20.9999C4.44044 20.8759 4.38726 20.751 4.3363 20.6251C4.08795 20.0116 3.89492 19.3861 3.75719 18.7487C3.58573 17.9551 3.5 17.143 3.5 16.3124C3.5 15.6522 3.55495 15.0014 3.66484 14.36C3.7337 13.9582 3.82413 13.56 3.93614 13.1655C4.06711 12.7042 4.22562 12.2547 4.41169 11.8168C4.56626 11.4531 4.73985 11.0974 4.93244 10.7499Z" fill="rgb(255,255,255)" fill-rule="evenodd" />
</svg>
