<svg width="17" height="21" viewBox="0 0 17 21" fill="none" xmlns="http://www.w3.org/2000/svg">
<path d="M15 11.25C15 10.4216 14.3284 9.75 13.5 9.75H3C2.17157 9.75 1.5 10.4216 1.5 11.25V18C1.5 18.8284 2.17157 19.5 3 19.5H13.5C14.3284 19.5 15 18.8284 15 18V11.25ZM12 5.25C12 3.17893 10.3211 1.5 8.25 1.5C6.17893 1.5 4.5 3.17893 4.5 5.25V8.25H12V5.25ZM13.5 8.25C15.1569 8.25 16.5 9.59315 16.5 11.25V18C16.5 19.6569 15.1569 21 13.5 21H3C1.34315 21 0 19.6569 0 18V11.25C0 9.59315 1.34315 8.25 3 8.25V5.25C3 2.3505 5.35051 0 8.25 0C11.1495 0 13.5 2.35051 13.5 5.25V8.25Z" fill="white"/>
</svg>
