<svg width="26" height="28" viewBox="0 0 26 28" fill="none" xmlns="http://www.w3.org/2000/svg">
<path d="M16.2409 22.2881C15.1733 22.3862 14.0923 22.4375 12.9997 22.4375C11.9067 22.4375 10.8253 22.3862 9.75746 22.2881C9.75298 22.3581 9.74965 22.4287 9.74965 22.5C9.74965 24.2948 11.2048 25.7499 12.9997 25.75C14.7946 25.75 16.2496 24.2949 16.2496 22.5C16.2496 22.4287 16.2453 22.3581 16.2409 22.2881ZM20.4996 9.75C20.4996 5.60786 17.1418 2.25 12.9997 2.25C8.85763 2.25013 5.49965 5.60795 5.49965 9.75V10.8125C5.49965 13.8172 4.53175 16.5961 2.89613 18.8584C4.87904 19.4955 6.94274 19.9537 9.06996 20.2061C10.358 20.3588 11.6697 20.4375 12.9997 20.4375C14.3298 20.4375 15.6411 20.3589 16.9293 20.2061C19.0562 19.9538 21.1196 19.4953 23.1022 18.8584C21.4668 16.5961 20.4996 13.817 20.4996 10.8125V9.75ZM22.4996 10.8125C22.4996 13.8363 23.6408 16.591 25.5172 18.6738C25.7392 18.9202 25.8242 19.261 25.7448 19.583C25.6653 19.9049 25.4316 20.1663 25.1207 20.2812C22.9194 21.0939 20.6137 21.6916 18.2301 22.0488C18.2428 22.1977 18.2496 22.3481 18.2496 22.5C18.2496 25.3995 15.8991 27.75 12.9997 27.75C10.1003 27.7499 7.74965 25.3994 7.74965 22.5C7.74965 22.3481 7.75648 22.1977 7.76918 22.0488C5.38559 21.6916 3.07988 21.0939 0.878556 20.2812C0.567624 20.1663 0.333955 19.9049 0.254533 19.583C0.175078 19.261 0.260074 18.9202 0.482072 18.6738C2.24124 16.7211 3.35381 14.1779 3.48598 11.376L3.49965 10.8125V9.75C3.49965 4.50338 7.75306 0.250132 12.9997 0.25C18.2464 0.25 22.4996 4.50329 22.4996 9.75V10.8125Z" fill="white"/>
</svg>
