<svg viewBox="0 0 10.5 15" xmlns="http://www.w3.org/2000/svg" xmlns:xlink="http://www.w3.org/1999/xlink" width="10.500000" height="15.000000" fill="none" customFrame="#000000">
	<path id="Vector (Stroke)" d="M5.81145e-07 0.75C5.81145e-07 0.335786 0.335787 0 0.75 0L2.25 0C2.66421 0 3 0.335786 3 0.75L3 14.25C3 14.6642 2.66421 15 2.25 15L0.75 15C0.551088 15 0.360322 14.921 0.21967 14.7803C0.0790176 14.6397 0 14.4489 0 14.25L5.81145e-07 0.75ZM7.5 0.75C7.5 0.335786 7.83579 0 8.25 0L9.75 0C9.94891 0 10.1397 0.0790177 10.2803 0.21967C10.421 0.360322 10.5 0.551088 10.5 0.75L10.5 14.25C10.5 14.6642 10.1642 15 9.75 15L8.25 15C7.83579 15 7.5 14.6642 7.5 14.25L7.5 0.75Z" fill="rgb(255,255,255)" fill-rule="evenodd" />
</svg>
