<svg viewBox="0 0 27.5042 27.5042" xmlns="http://www.w3.org/2000/svg" xmlns:xlink="http://www.w3.org/1999/xlink" width="27.504150" height="27.504150" fill="none" customFrame="#000000">
	<path id="Vector(Border)" d="M0.275497 9.09008C0.0918323 9.9146 0 10.7596 0 11.625C3.57628e-07 12.4904 0.0918335 13.3354 0.275499 14.1599C0.426362 14.8372 0.639182 15.5006 0.913961 16.1503C1.19152 16.8065 1.52294 17.4273 1.90823 18.0126C2.3396 18.6679 2.83848 19.2787 3.40488 19.8451C3.97128 20.4115 4.58213 20.9104 5.23742 21.3418C5.82272 21.7271 6.44349 22.0585 7.09972 22.336C7.74938 22.6108 8.41284 22.8236 9.0901 22.9745C9.91461 23.1582 10.7596 23.25 11.625 23.25C12.4905 23.25 13.3356 23.1581 14.1602 22.9744C14.8373 22.8236 15.5007 22.6108 16.1503 22.336C17.2328 21.8782 18.2189 21.2737 19.1084 20.5226L25.7929 27.2071C26.1889 27.6031 26.8111 27.6031 27.2071 27.2071C27.6031 26.8111 27.6031 26.1889 27.2071 25.7929L20.5226 19.1084C20.8184 18.7581 21.0914 18.3928 21.3417 18.0126C21.727 17.4273 22.0585 16.8065 22.336 16.1503C22.6108 15.5007 22.8236 14.8373 22.9745 14.1601C23.1582 13.3355 23.25 12.4905 23.25 11.625C23.25 10.7596 23.1582 9.9146 22.9745 9.09008C22.8236 8.41283 22.6108 7.74937 22.336 7.09972C21.7477 5.7088 20.9174 4.47719 19.8451 3.40488C19.2787 2.83848 18.6679 2.3396 18.0126 1.90823C17.4273 1.52294 16.8065 1.19152 16.1503 0.91396C15.5006 0.63918 14.8372 0.426359 14.1599 0.275497C13.3354 0.091832 12.4904 -3.57628e-07 11.625 0C10.7596 5.96046e-08 9.91457 0.0918354 9.09004 0.275506C8.4128 0.426367 7.74936 0.639186 7.09972 0.91396C6.44348 1.19153 5.8227 1.52296 5.23738 1.90827C4.5821 2.33962 3.97127 2.8385 3.40488 3.40488C2.83849 3.97127 2.33962 4.58211 1.90826 5.23739C1.52296 5.82271 1.19152 6.44348 0.913961 7.09972C0.63918 7.74937 0.426359 8.41283 0.275497 9.09008ZM2.23641 13.7622C2.0788 13.0677 2 12.3553 2 11.625C2 10.8947 2.07881 10.1823 2.23641 9.48776C2.36064 8.94034 2.53383 8.40403 2.75597 7.87882C2.98289 7.34232 3.25338 6.83437 3.56746 6.35497C3.92743 5.80551 4.34464 5.29355 4.8191 4.8191C5.29355 4.34465 5.8055 3.92744 6.35495 3.56747C6.83436 3.25339 7.34231 2.98289 7.87882 2.75597C8.40402 2.53383 8.94032 2.36065 9.48773 2.23642C10.1823 2.07881 10.8947 2 11.625 2C12.3553 2 13.0677 2.07881 13.7623 2.23642C14.3097 2.36065 14.846 2.53383 15.3712 2.75597C15.9076 2.98287 16.4155 3.25334 16.8949 3.56738C17.4444 3.92737 17.9564 4.34461 18.4309 4.8191C18.9054 5.29359 19.3226 5.8056 19.6826 6.35511C19.9967 6.83447 20.2671 7.34237 20.494 7.87882C20.998 9.07037 21.25 10.3191 21.25 11.625C21.25 12.3553 21.1712 13.0677 21.0136 13.7623C20.8893 14.3097 20.7162 14.846 20.494 15.3712C20.007 16.5226 19.3193 17.5425 18.4309 18.4309C17.9565 18.9053 17.4446 19.3225 16.8951 19.6825C16.4157 19.9966 15.9077 20.2671 15.3712 20.494C14.1796 20.998 12.9309 21.25 11.625 21.25C10.8948 21.25 10.1824 21.1712 9.4879 21.0136C8.94043 20.8894 8.40407 20.7162 7.87882 20.494C6.72742 20.007 5.70752 19.3193 4.8191 18.4309C4.34463 17.9564 3.92741 17.4445 3.56744 16.895C3.25337 16.4156 2.98288 15.9077 2.75597 15.3712C2.53383 14.846 2.36064 14.3096 2.23641 13.7622Z" fill="rgb(255,255,255)" fill-rule="evenodd" />
</svg>
