<svg width="17" height="21" viewBox="0 0 17 21" fill="none" xmlns="http://www.w3.org/2000/svg">
<path d="M8.24913 10.5C12.6163 10.5001 16.1903 13.8934 16.4796 18.1875L16.4982 18.6055L16.4913 18.7158C16.4582 18.9691 16.2974 19.1911 16.0607 19.2998L15.7482 18.6182H15.7472L16.0607 19.2998C13.6817 20.3914 11.0353 21 8.24913 21C5.46282 21 2.81662 20.3915 0.437609 19.2998C0.166982 19.1756 -0.00496342 18.9032 0.000109254 18.6055C0.0774495 14.1157 3.74112 10.5 8.24913 10.5ZM8.24913 12C4.72667 12 1.83645 14.6985 1.52843 18.1406C3.5931 19.015 5.8635 19.5 8.24913 19.5C10.6346 19.5 12.9053 19.0158 14.9698 18.1416C14.6623 14.699 11.7719 12.0001 8.24913 12ZM11.2491 4.5C11.2491 2.8432 9.90591 1.50009 8.24913 1.5C6.59228 1.5 5.24913 2.84315 5.24913 4.5C5.24913 6.15685 6.59228 7.5 8.24913 7.5C9.90591 7.49991 11.2491 6.1568 11.2491 4.5ZM12.7491 4.5C12.7491 6.98523 10.7343 8.99991 8.24913 9C5.76385 9 3.74913 6.98528 3.74913 4.5C3.74913 2.01472 5.76385 0 8.24913 0C10.7343 8.55553e-05 12.7491 2.01477 12.7491 4.5Z" fill="white"/>
</svg>
