<svg viewBox="0 0 24.75 22.2809" xmlns="http://www.w3.org/2000/svg" xmlns:xlink="http://www.w3.org/1999/xlink" width="24.750000" height="22.280884" fill="none" customFrame="#000000">
	<path id="Vector(Border)" d="M11.5639 0.183107C11.3765 0.273281 11.205 0.396262 11.0492 0.55205L5.83579 5.76544L3.63556 5.76544C3.41169 5.76544 3.19149 5.78541 2.97499 5.82535C2.8499 5.84843 2.72604 5.87817 2.60341 5.91458C2.26358 6.01548 1.95057 6.16238 1.66436 6.3553C1.36349 6.5581 1.10771 6.80134 0.897023 7.085C0.788477 7.23115 0.694521 7.3845 0.615156 7.54507C0.531057 7.71522 0.463342 7.89346 0.41201 8.07981C0.308011 8.45734 0.2237 8.83819 0.159078 9.22235C0.053026 9.85279 0 10.4922 0 11.1404C0 11.7887 0.053026 12.4281 0.159078 13.0585C0.2237 13.4427 0.308011 13.8235 0.41201 14.2011C0.463339 14.3874 0.531049 14.5656 0.615141 14.7358C0.694509 14.8964 0.78847 15.0497 0.897024 15.1959C1.10771 15.4795 1.36349 15.7228 1.66436 15.9256C1.95056 16.1185 2.26358 16.2654 2.60341 16.3663C2.93829 16.4657 3.28234 16.5154 3.63556 16.5154L5.83579 16.5154L11.0492 21.7288C11.3315 22.0111 11.6656 22.1857 12.0515 22.2525C12.4078 22.3143 12.7548 22.2752 13.0925 22.1353C13.2733 22.0604 13.4356 21.9632 13.5793 21.8437C13.704 21.74 13.8148 21.6194 13.9116 21.4821C14.1372 21.1619 14.25 20.8022 14.25 20.403L14.25 1.87788C14.25 1.65756 14.2156 1.44927 14.1469 1.25301C14.0911 1.09367 14.0127 0.942264 13.9116 0.798788C13.7033 0.503226 13.4303 0.285498 13.0925 0.145604C12.9117 0.0707149 12.7283 0.0247144 12.5422 0.00760227C12.3806 -0.00725138 12.2171 -0.000338912 12.0515 0.0283399C11.8786 0.0583007 11.716 0.10989 11.5639 0.183107ZM12.25 2.17965L6.95711 7.47255C6.76185 7.66781 6.52614 7.76544 6.25 7.76544L3.63556 7.76544C3.39251 7.76544 3.17143 7.81221 2.97232 7.90574C2.90656 7.93664 2.84319 7.97263 2.78222 8.01373C2.55503 8.16687 2.40768 8.36595 2.34019 8.61096C2.26007 8.9018 2.19411 9.19512 2.14229 9.49091C2.04743 10.0324 2 10.5823 2 11.1404C2 11.6986 2.04743 12.2484 2.14229 12.79C2.19411 13.0858 2.26007 13.3791 2.34019 13.6699C2.36352 13.7546 2.39638 13.8338 2.43879 13.9075C2.51907 14.0471 2.63355 14.1669 2.78222 14.2672C2.84319 14.3082 2.90656 14.3442 2.97232 14.3751C3.17143 14.4687 3.39251 14.5154 3.63556 14.5154L6.25 14.5154C6.52614 14.5154 6.76185 14.6131 6.95711 14.8083L12.25 20.1012L12.25 2.17965ZM21.3818 3.00865C20.9858 2.61267 20.3636 2.61267 19.9676 3.00865C19.5716 3.40463 19.5716 4.02688 19.9676 4.42286C20.879 5.33429 21.5747 6.38168 22.0545 7.56501C22.2706 8.09779 22.4363 8.64106 22.5517 9.19482C22.6839 9.82956 22.7501 10.4781 22.7501 11.1404C22.7501 11.8027 22.6839 12.4512 22.5517 13.0859C22.4363 13.6397 22.2706 14.183 22.0545 14.7157C21.5746 15.8991 20.879 16.9465 19.9676 17.8579C19.5716 18.2539 19.5716 18.8761 19.9676 19.2721C20.3636 19.6681 20.9858 19.6681 21.3818 19.2721C21.9872 18.6667 22.514 18.0115 22.9622 17.3062C23.3305 16.727 23.6457 16.114 23.9079 15.4673C24.4693 14.0829 24.7501 12.6405 24.7501 11.1404C24.7501 9.64022 24.4693 8.1979 23.9079 6.81343C23.6457 6.16673 23.3304 5.55372 22.9622 4.97441C22.5139 4.26923 21.9871 3.61398 21.3818 3.00865ZM16.8743 7.51655C16.4783 7.12058 16.4783 6.49832 16.8743 6.10234C17.2703 5.70636 17.8925 5.70636 18.2885 6.10234C18.9715 6.78536 19.4932 7.57119 19.8536 8.45984C20.0183 8.86605 20.1441 9.28027 20.2308 9.7025C20.3272 10.1719 20.3754 10.6512 20.3754 11.1405C20.3754 12.0697 20.2015 12.9633 19.8536 13.8211C19.69 14.2245 19.4932 14.6067 19.2631 14.9677C18.9864 15.402 18.6615 15.8056 18.2885 16.1786C17.8925 16.5746 17.2703 16.5746 16.8743 16.1786C16.4783 15.7826 16.4783 15.1604 16.8743 14.7644C17.3661 14.2726 17.7414 13.7076 18.0002 13.0695C18.116 12.7838 18.2051 12.4925 18.2673 12.1956C18.3393 11.8515 18.3754 11.4997 18.3754 11.1405C18.3754 10.4713 18.2503 9.82825 18.0002 9.21143C17.8874 8.93331 17.7525 8.66908 17.5954 8.41875C17.3921 8.09475 17.1518 7.79402 16.8743 7.51655Z" fill="rgb(255,255,255)" fill-rule="evenodd" />
</svg>
