<svg width="112" height="112" viewBox="0 0 112 112" fill="none" xmlns="http://www.w3.org/2000/svg">
<circle cx="56" cy="56" r="56" fill="#EF6D58"/>
<path fill-rule="evenodd" clip-rule="evenodd" d="M69.999 28C69.7828 28 69.5904 28.137 69.5196 28.3413V28.3448L68.6201 31.0503C68.2177 32.2613 67.2693 33.2098 66.0584 33.6123L63.3497 34.5153C63.1455 34.5861 63.0085 34.7786 63.0085 34.9948C63.0085 35.211 63.1455 35.4035 63.3497 35.4743L66.0549 36.3773C67.2648 36.7798 68.2142 37.7293 68.6166 38.9393L69.5196 41.6483C69.5904 41.8526 69.7828 41.9896 69.999 41.9896C70.2152 41.9896 70.4076 41.8526 70.4785 41.6483L71.3814 38.9393C71.7838 37.7293 72.7332 36.7798 73.9431 36.3773L76.6518 35.4743C76.856 35.4035 76.993 35.211 76.993 34.9948C76.993 34.7786 76.856 34.5861 76.6518 34.5153L73.9431 33.6123C72.7322 33.2098 71.7838 32.2613 71.3814 31.0503L70.4785 28.3413C70.4076 28.137 70.2152 28 69.999 28ZM44.7807 32.0128C44.8836 31.7019 45.1742 31.492 45.5016 31.492C45.8291 31.492 46.1196 31.7019 46.2226 32.0128L47.5769 36.0798C48.1823 37.8928 49.6032 39.3138 51.416 39.9193L55.4826 41.2738C55.7934 41.3768 56.0033 41.6674 56.0033 41.9948C56.0033 42.3223 55.7934 42.6129 55.4826 42.7158L51.416 44.0703C49.6033 44.6743 48.1809 46.0969 47.5769 47.9098L46.2226 51.9769C46.1196 52.2877 45.8291 52.4976 45.5016 52.4976C45.1742 52.4976 44.8836 52.2877 44.7807 51.9769L43.4264 47.9098C42.8224 46.0969 41.4 44.6743 39.5873 44.0703L35.5207 42.7158C35.2099 42.6129 35 42.3223 35 41.9948C35 41.6674 35.2099 41.3768 35.5207 41.2738L39.5873 39.9193C41.4 39.3153 42.8224 37.8927 43.4264 36.0798L44.7807 32.0128ZM58.2998 49.8594C58.6847 48.7043 60.3155 48.7043 60.7005 49.8594L62.9578 56.6389C63.9651 59.6605 66.3367 62.0311 69.3586 63.0369L76.1338 65.2944C77.2887 65.6794 77.2887 67.3104 76.1338 67.6954L69.3551 69.9529C66.3338 70.9604 63.9635 73.3323 62.9578 76.3545L60.7005 83.1305C60.5303 83.6493 60.0461 84 59.5001 84C58.9542 84 58.47 83.6493 58.2998 83.1305L56.0425 76.351C55.0359 73.3301 52.6657 70.9597 49.6452 69.9529L42.8664 67.6954C42.3477 67.5252 41.997 67.0409 41.997 66.4949C41.997 65.9489 42.3477 65.4647 42.8664 65.2944L49.6452 63.0369C52.6657 62.0301 55.0359 59.6597 56.0425 56.6389L58.2998 49.8594Z" fill="white"/>
</svg>
