<svg width="90" height="24" viewBox="0 0 90 24" fill="none" xmlns="http://www.w3.org/2000/svg">
<path d="M0.66 18L5.076 0.275999H10.968L15.36 18H11.544L8.016 2.544H8.04L4.476 18H0.66ZM3.828 13.896V10.992H12.228V13.896H3.828ZM26.2793 16.488C27.0633 16.568 27.7473 16.72 28.3313 16.944C28.9233 17.16 29.3833 17.484 29.7113 17.916C30.0393 18.34 30.2033 18.908 30.2033 19.62C30.2033 20.444 29.9313 21.144 29.3873 21.72C28.8513 22.304 28.0633 22.748 27.0233 23.052C25.9833 23.356 24.7233 23.508 23.2433 23.508C21.0593 23.508 19.3673 23.192 18.1673 22.56C16.9753 21.936 16.3793 21.1 16.3793 20.052C16.3793 19.756 16.4113 19.488 16.4753 19.248C16.5473 19.016 16.6353 18.816 16.7393 18.648L20.1233 19.14C20.0833 19.196 20.0393 19.28 19.9913 19.392C19.9513 19.512 19.9313 19.66 19.9313 19.836C19.9313 20.26 20.2473 20.576 20.8793 20.784C21.5193 20.992 22.3433 21.096 23.3513 21.096C24.0633 21.096 24.6713 21.044 25.1753 20.94C25.6873 20.844 26.0753 20.7 26.3393 20.508C26.6113 20.316 26.7473 20.096 26.7473 19.848C26.7473 19.488 26.5713 19.252 26.2193 19.14C25.8753 19.028 25.4753 18.948 25.0193 18.9L20.1953 18.408C19.3073 18.32 18.5713 18.064 17.9873 17.64C17.4033 17.216 17.1113 16.644 17.1113 15.924C17.1113 15.476 17.2353 15.068 17.4833 14.7C17.7313 14.324 18.0153 14.016 18.3353 13.776C18.6553 13.528 18.9233 13.372 19.1393 13.308L21.0353 14.268C20.8833 14.292 20.7033 14.388 20.4953 14.556C20.2953 14.724 20.1953 14.92 20.1953 15.144C20.1953 15.368 20.3073 15.56 20.5313 15.72C20.7633 15.88 21.1833 15.988 21.7913 16.044L26.2793 16.488ZM27.5393 5.256H30.8153L29.4833 10.152C29.2353 11.08 28.8673 11.908 28.3793 12.636C27.8913 13.356 27.2393 13.924 26.4233 14.34C25.6153 14.756 24.5953 14.964 23.3633 14.964C22.0673 14.964 20.9433 14.764 19.9913 14.364C19.0473 13.964 18.3193 13.4 17.8073 12.672C17.2953 11.936 17.0393 11.068 17.0393 10.068C17.0393 9.068 17.2993 8.188 17.8193 7.428C18.3473 6.668 19.0633 6.076 19.9673 5.652C20.8793 5.228 21.9113 5.016 23.0633 5.016C23.9353 5.016 24.7313 5.16 25.4513 5.448C26.1793 5.728 26.7633 6.1 27.2033 6.564C27.6513 7.028 27.8833 7.54 27.8993 8.1L27.2153 8.28L27.5393 5.256ZM23.3393 12.24C23.8673 12.24 24.3313 12.156 24.7313 11.988C25.1313 11.812 25.4433 11.56 25.6673 11.232C25.8913 10.896 26.0033 10.492 26.0033 10.02C26.0033 9.556 25.8913 9.16 25.6673 8.832C25.4433 8.504 25.1313 8.252 24.7313 8.076C24.3313 7.9 23.8673 7.812 23.3393 7.812C22.8353 7.812 22.3793 7.904 21.9713 8.088C21.5713 8.264 21.2553 8.52 21.0233 8.856C20.7913 9.184 20.6753 9.584 20.6753 10.056C20.6753 10.52 20.7873 10.916 21.0113 11.244C21.2353 11.564 21.5473 11.812 21.9473 11.988C22.3473 12.156 22.8113 12.24 23.3393 12.24ZM33.6066 12.744V10.284H42.0546L41.6946 10.908C41.6946 10.844 41.6946 10.784 41.6946 10.728C41.6946 10.664 41.6946 10.604 41.6946 10.548C41.6946 10.092 41.5866 9.656 41.3706 9.24C41.1546 8.816 40.8186 8.472 40.3626 8.208C39.9146 7.936 39.3386 7.8 38.6346 7.8C37.9306 7.8 37.3226 7.952 36.8106 8.256C36.3066 8.552 35.9186 8.98 35.6466 9.54C35.3826 10.1 35.2506 10.776 35.2506 11.568C35.2506 12.384 35.3786 13.084 35.6346 13.668C35.8986 14.244 36.2866 14.688 36.7986 15C37.3186 15.312 37.9626 15.468 38.7306 15.468C39.2266 15.468 39.6546 15.424 40.0146 15.336C40.3746 15.24 40.6666 15.12 40.8906 14.976C41.1226 14.832 41.2986 14.672 41.4186 14.496C41.5386 14.32 41.6106 14.148 41.6346 13.98H45.3066C45.2586 14.516 45.0746 15.044 44.7546 15.564C44.4346 16.076 43.9906 16.54 43.4226 16.956C42.8546 17.364 42.1626 17.688 41.3466 17.928C40.5386 18.168 39.6146 18.288 38.5746 18.288C37.1666 18.288 35.9386 18.008 34.8906 17.448C33.8426 16.88 33.0306 16.1 32.4546 15.108C31.8786 14.108 31.5906 12.956 31.5906 11.652C31.5906 10.332 31.8826 9.176 32.4666 8.184C33.0586 7.184 33.8786 6.408 34.9266 5.856C35.9826 5.296 37.2026 5.016 38.5866 5.016C40.0026 5.016 41.2266 5.3 42.2586 5.868C43.2906 6.428 44.0866 7.216 44.6466 8.232C45.2066 9.24 45.4866 10.416 45.4866 11.76C45.4866 11.96 45.4826 12.152 45.4746 12.336C45.4666 12.52 45.4546 12.656 45.4386 12.744H33.6066ZM56.7874 18V12.588C56.7874 12.284 56.7874 12.008 56.7874 11.76C56.7874 11.512 56.7874 11.288 56.7874 11.088C56.7874 10.56 56.7194 10.08 56.5834 9.648C56.4474 9.208 56.2034 8.856 55.8514 8.592C55.4994 8.328 54.9914 8.196 54.3274 8.196C53.7514 8.196 53.2514 8.328 52.8274 8.592C52.4114 8.856 52.0914 9.224 51.8674 9.696C51.6434 10.168 51.5314 10.712 51.5314 11.328L50.4994 10.584C50.4994 9.48 50.7394 8.512 51.2194 7.68C51.6994 6.848 52.3474 6.196 53.1634 5.724C53.9874 5.252 54.8994 5.016 55.8994 5.016C56.9474 5.016 57.8074 5.228 58.4794 5.652C59.1594 6.068 59.6634 6.652 59.9914 7.404C60.3274 8.148 60.4954 9.02 60.4954 10.02C60.4954 10.428 60.4954 10.884 60.4954 11.388C60.4954 11.892 60.4954 12.408 60.4954 12.936V18H56.7874ZM47.8114 18V5.256H51.5314V18H47.8114ZM69.7001 18.288C68.3001 18.288 67.0721 18.008 66.0161 17.448C64.9601 16.88 64.1401 16.092 63.5561 15.084C62.9801 14.076 62.6921 12.912 62.6921 11.592C62.6921 10.256 62.9801 9.1 63.5561 8.124C64.1401 7.14 64.9601 6.376 66.0161 5.832C67.0721 5.288 68.3001 5.016 69.7001 5.016C70.7481 5.016 71.6761 5.172 72.4841 5.484C73.2921 5.788 73.9681 6.192 74.5121 6.696C75.0561 7.2 75.4681 7.752 75.7481 8.352C76.0281 8.952 76.1681 9.548 76.1681 10.14C76.1681 10.148 76.1681 10.164 76.1681 10.188C76.1681 10.204 76.1681 10.22 76.1681 10.236H72.4841C72.4841 10.188 72.4801 10.144 72.4721 10.104C72.4721 10.056 72.4641 10.008 72.4481 9.96C72.3841 9.624 72.2441 9.308 72.0281 9.012C71.8121 8.716 71.5081 8.476 71.1161 8.292C70.7321 8.1 70.2521 8.004 69.6761 8.004C69.0601 8.004 68.5081 8.14 68.0201 8.412C67.5401 8.684 67.1601 9.088 66.8801 9.624C66.6001 10.152 66.4601 10.808 66.4601 11.592C66.4601 12.36 66.6001 13.024 66.8801 13.584C67.1601 14.136 67.5401 14.56 68.0201 14.856C68.5081 15.152 69.0601 15.3 69.6761 15.3C70.3081 15.3 70.8241 15.204 71.2241 15.012C71.6241 14.812 71.9241 14.548 72.1241 14.22C72.3241 13.884 72.4441 13.516 72.4841 13.116H76.1681C76.1681 13.708 76.0281 14.312 75.7481 14.928C75.4761 15.536 75.0681 16.092 74.5241 16.596C73.9881 17.1 73.3161 17.508 72.5081 17.82C71.7001 18.132 70.7641 18.288 69.7001 18.288ZM78.9377 23.508C78.5377 23.508 78.1777 23.492 77.8577 23.46C77.5457 23.436 77.3497 23.408 77.2697 23.376V20.556C77.3737 20.604 77.5537 20.64 77.8097 20.664C78.0737 20.696 78.3537 20.712 78.6497 20.712C79.0417 20.712 79.3937 20.632 79.7057 20.472C80.0257 20.32 80.2977 20.1 80.5217 19.812C80.7537 19.532 80.9337 19.2 81.0617 18.816L81.2777 18.168L76.8857 5.256H80.7617L83.5337 15.708H83.1017L85.7657 5.256H89.5937L85.2137 18.636C84.8857 19.644 84.4817 20.512 84.0017 21.24C83.5217 21.968 82.8817 22.528 82.0817 22.92C81.2817 23.312 80.2337 23.508 78.9377 23.508Z" fill="#391400"/>
</svg>
