<svg width="101" height="47" viewBox="0 0 101 47" fill="none" xmlns="http://www.w3.org/2000/svg">
<g clip-path="url(#clip0_0_877)">
<path d="M49.1316 0L41.6381 7.07755H49.5076V37.7572L56.5749 31.0553V0H49.1316Z" fill="white"/>
<path d="M70.0615 38.2619L77.5049 31.2075C80.3645 28.5106 82.4086 26.0698 83.7372 23.9604C83.9763 23.5752 84.1807 23.1783 84.3851 22.7873C85.2355 21.1017 85.6616 19.4527 85.6616 17.8519C85.6608 16.8254 85.516 15.8041 85.2316 14.8178C84.6531 12.8625 83.4788 11.1095 81.7414 9.57802C79.2211 7.33185 76.0181 6.19336 72.2386 6.19336C69.19 6.19336 66.4305 6.99281 63.9951 8.62639C61.4883 10.2754 59.6525 12.5215 58.4261 15.3687L64.9496 18.4644C65.6129 16.7461 66.5674 15.3822 67.8613 14.3998C69.1086 13.4177 70.6544 12.8909 72.2425 12.9068C73.9452 12.9068 75.3586 13.4 76.533 14.421C77.7767 15.4419 78.3726 16.6498 78.3726 18.0618C78.3675 18.3303 78.3391 18.5977 78.2877 18.8613C78.0486 20.2733 77.1635 21.9069 75.6652 23.7273C74.883 24.6744 74.046 25.5749 73.1584 26.4243L59.1801 39.726V45.0004H80.3645L87.3817 38.3139V38.2619H70.0615Z" fill="white"/>
<path d="M0 21.1306L11.9209 45.0005L23.8591 21.1306H0Z" fill="white"/>
<path d="M42.7797 32.4443C44.3223 31.1844 45.0936 29.5682 45.0936 27.6457C45.1124 26.762 44.9315 25.8855 44.5642 25.0813C44.197 24.2772 43.6529 23.5661 42.9725 23.0011C41.5764 21.7432 39.8216 21.1306 37.7101 21.1306H26.1422V45.0005H38.4024C40.6161 45.0005 42.4384 44.3532 43.9039 43.0606C45.3848 41.7121 46.1176 40.0998 46.1176 38.1772C46.1176 35.7114 45.0107 33.7889 42.7797 32.4443Z" fill="white"/>
<path d="M94.6553 46.9981C97.6202 46.9981 100.024 44.597 100.024 41.635C100.024 38.6731 97.6202 36.272 94.6553 36.272C91.6904 36.272 89.2869 38.6731 89.2869 41.635C89.2869 44.597 91.6904 46.9981 94.6553 46.9981Z" fill="#2365FA"/>
</g>
<defs>
<clipPath id="clip0_0_877">
<rect width="100.026" height="47" fill="white"/>
</clipPath>
</defs>
</svg>
