<svg width="16" height="16" viewBox="0 0 16 16" fill="none" xmlns="http://www.w3.org/2000/svg">
<path d="M4.60004 1.40041L5.70689 1.0667C6.07219 0.956734 6.46502 0.983414 6.8121 1.14176C7.15917 1.30011 7.4368 1.5793 7.59318 1.92727L8.36918 3.65298C8.50386 3.95237 8.5414 4.28641 8.47653 4.60822C8.41165 4.93004 8.24762 5.22345 8.00746 5.44727L6.82632 6.54784C6.66804 6.69812 6.78804 7.28384 7.36632 8.28612C7.94518 9.28898 8.39261 9.68555 8.59889 9.62384L10.1463 9.1507C10.46 9.05476 10.7958 9.05937 11.1067 9.16389C11.4176 9.26842 11.688 9.46761 11.88 9.73355L12.9829 11.2621C13.2057 11.5708 13.3088 11.9498 13.2732 12.3288C13.2375 12.7078 13.0656 13.061 12.7892 13.3227L11.9366 14.1301C11.6614 14.3908 11.3219 14.5737 10.9529 14.6604C10.5839 14.747 10.1985 14.7342 9.83604 14.6233C8.04975 14.0764 6.39546 12.4536 4.85089 9.77755C3.30289 7.09755 2.71832 4.83698 3.12575 2.99012C3.20793 2.61798 3.38786 2.27449 3.64701 1.99506C3.90615 1.71562 4.23513 1.51035 4.60004 1.40041Z" fill="#101C26"/>
</svg>
