<svg width="15" height="15" viewBox="0 0 15 15" fill="none" xmlns="http://www.w3.org/2000/svg">
<path d="M8.64042 14.6788C7.66963 14.6788 6.75594 14.6788 5.78516 14.6788C5.78516 11.6236 5.78516 8.56852 5.78516 5.48484C6.67029 5.48484 7.58397 5.48484 8.49765 5.48484C8.49765 5.88458 8.49765 6.28431 8.49765 6.7126C8.52621 6.68405 8.55475 6.68405 8.55475 6.68405C9.15436 5.71326 10.0395 5.28497 11.153 5.25642C11.7812 5.22787 12.4094 5.31352 12.9804 5.59905C13.7228 5.94168 14.1511 6.56984 14.3795 7.34076C14.5793 7.96891 14.6365 8.59707 14.6365 9.22523C14.6365 10.9955 14.6365 12.7657 14.6365 14.536C14.6365 14.5646 14.6365 14.5931 14.6365 14.6217C13.6942 14.6217 12.752 14.6217 11.7812 14.6217C11.7812 14.5646 11.7812 14.5075 11.7812 14.4218C11.7812 12.9085 11.7812 11.4238 11.7812 9.91049C11.7812 9.56786 11.7526 9.22523 11.6955 8.8826C11.5242 7.94036 10.8961 7.62628 10.0395 7.74049C9.24002 7.82615 8.81172 8.31155 8.66896 9.16812C8.61186 9.4822 8.61186 9.79628 8.61186 10.1104C8.61186 11.538 8.61186 12.9942 8.61186 14.4218C8.64041 14.536 8.64042 14.5931 8.64042 14.6788Z" fill="#101C26"/>
<path d="M1.12891 5.51294C2.07114 5.51294 3.01338 5.51294 3.95561 5.51294C3.95561 8.56807 3.95561 11.6232 3.95561 14.6783C3.01338 14.6783 2.07114 14.6783 1.12891 14.6783C1.12891 11.6232 1.12891 8.56807 1.12891 5.51294Z" fill="#101C26"/>
<path d="M4.18589 2.5719C4.18589 3.48558 3.44352 4.22795 2.55839 4.2565C1.64471 4.2565 0.902344 3.51413 0.902344 2.60045C0.902344 1.68677 1.64471 0.9444 2.55839 0.9444C3.44352 0.915848 4.18589 1.65822 4.18589 2.5719Z" fill="#101C26"/>
</svg>
