<svg width="8" height="15" viewBox="0 0 8 15" fill="none" xmlns="http://www.w3.org/2000/svg">
<path d="M6.01383 0.943604C6.25 0.969467 6.45993 0.969467 6.6961 0.99533C6.85355 0.99533 7.01099 1.02119 7.16844 1.04706C7.16844 1.74536 7.16844 2.41781 7.16844 3.14198C7.11595 3.14198 7.03723 3.14198 6.98475 3.14198C6.53865 3.14198 6.09256 3.14198 5.64646 3.16784C5.09539 3.19371 4.78049 3.4782 4.75425 4.02133C4.72801 4.59032 4.75425 5.15932 4.75425 5.75417C5.51524 5.75417 6.30248 5.75417 7.08972 5.75417C6.98475 6.53007 6.87979 7.30597 6.77482 8.08186C6.09255 8.08186 5.43652 8.08186 4.75425 8.08186C4.75425 10.0733 4.75425 12.0648 4.75425 14.0563C3.94078 14.0563 3.12731 14.0563 2.31383 14.0563C2.31383 12.0648 2.31383 10.0992 2.31383 8.08186C1.63156 8.08186 0.949298 8.08186 0.267029 8.08186C0.267029 7.30597 0.267029 6.53007 0.267029 5.75417C0.949298 5.75417 1.60532 5.75417 2.31383 5.75417C2.31383 5.67658 2.31383 5.65072 2.31383 5.59899C2.31383 4.97827 2.31383 4.38342 2.31383 3.7627C2.34007 3.03853 2.57624 2.36608 3.10107 1.79709C3.49468 1.38328 3.99326 1.15051 4.57057 1.02119C4.72802 0.99533 4.88546 0.969467 5.01666 0.943604C5.33156 0.943604 5.6727 0.943604 6.01383 0.943604Z" fill="#101C26"/>
</svg>
