<svg width="15" height="13" viewBox="0 0 15 13" fill="none" xmlns="http://www.w3.org/2000/svg">
<path d="M0.733337 10.888C2.25399 11.0087 3.65767 10.6466 4.88588 9.68111C3.59918 9.56042 2.72188 8.89664 2.25399 7.62941C2.6634 7.68976 3.07279 7.68976 3.54068 7.56907C2.83884 7.38803 2.31247 7.02597 1.90307 6.54322C1.49366 6.00012 1.25971 5.39668 1.25971 4.67255C1.66912 4.85358 2.07853 5.03461 2.54642 5.03461C1.90307 4.55186 1.55215 4.00876 1.37669 3.28463C1.20123 2.5605 1.31821 1.83637 1.66912 1.17259C3.18977 3.04326 5.11983 4.06911 7.51777 4.25014C7.51777 3.94842 7.45929 3.70704 7.51777 3.40532C7.57626 2.19844 8.45356 1.0519 9.5648 0.750179C10.6176 0.448459 11.5533 0.750179 12.3137 1.47431C12.3721 1.53465 12.4306 1.53465 12.4891 1.53465C13.074 1.41396 13.6004 1.17259 14.1852 0.870867C13.9513 1.53465 13.5419 2.07775 13.0155 2.43982C13.0155 2.43982 13.0155 2.43982 13.0155 2.50016C13.2494 2.43982 13.5419 2.37947 13.7758 2.31913C14.0098 2.25878 14.3022 2.13809 14.5362 2.07775C14.1852 2.5605 13.8343 3.04326 13.3664 3.40532C13.191 3.52601 13.1325 3.6467 13.1325 3.88807C13.1325 5.21565 12.84 6.42253 12.3137 7.62941C11.6118 9.07767 10.676 10.2846 9.33086 11.1294C8.39508 11.7328 7.34231 12.0949 6.23106 12.2759C5.47074 12.3966 4.71042 12.3966 3.95009 12.2759C2.78036 11.9138 1.72761 11.5518 0.733337 10.888Z" fill="#101C26"/>
</svg>
