<svg width="140" height="35" viewBox="0 0 140 35" fill="none" xmlns="http://www.w3.org/2000/svg">
<path d="M42.7749 14.0822C44.3772 14.0822 45.6761 12.7524 45.6761 11.1122C45.6761 9.47172 44.3772 8.14217 42.7749 8.14217C41.1725 8.14217 39.8737 9.47172 39.8737 11.1122C39.8737 12.7524 41.1725 14.0822 42.7749 14.0822ZM138.522 24.2297C138.08 23.912 137.74 23.8594 137.457 24.4762C132.584 35.2772 124.373 29.8873 125.189 30.3617C127.01 29.509 131.8 25.5771 131.076 20.1481C130.637 16.8303 127.854 15.3586 124.901 15.8855C119.745 16.8054 117.849 22.4963 118.814 27.5347C118.983 28.3999 119.285 29.1135 119.587 29.8126C113.761 34.6612 111.447 25.4722 111.185 24.3741C111.174 24.3153 115.683 20.4691 116.937 11.3039C118.251 1.69815 115.257 -0.0508824 112.196 0.00368758C106.53 0.104712 104.999 12.2195 107.056 22.3164C106.884 22.3623 106.082 22.8167 104.794 22.8677C103.867 19.8825 99.906 17.266 98.8694 18.2743C96.2751 20.7965 99.4986 25.7277 101.767 26.1144C100.404 34.7032 91.8831 32.5761 93.4693 21.8157C96.2442 16.542 98.3546 8.70046 97.978 3.96659C97.8446 2.29059 96.6338 0.0451048 93.8956 0.156483C88.6289 0.369726 88.0564 12.4879 88.6738 21.0887C88.6432 20.8768 88.35 22.1336 86.1918 22.7585C85.6813 19.8585 81.1187 16.9475 80.0446 18.347C78.0341 20.9664 81.5185 25.6367 83.1689 25.9625C81.8064 34.551 73.2856 32.4238 74.8718 21.6635C77.6466 16.3901 79.7567 8.5485 79.3802 3.81463C79.2468 2.13835 78.0363 -0.107131 75.2978 0.00396742C70.0311 0.21749 69.4585 12.3357 70.076 20.9364C70.0451 20.7212 69.7451 22.0194 67.4988 22.634C67.4236 18.8715 62.8444 17.1462 61.7443 18.3468C59.7838 20.4867 62.1933 24.8775 64.4224 25.9625C63.0598 34.551 54.539 32.4238 56.1252 21.6635C58.9 16.3901 61.0104 8.5485 60.6336 3.81463C60.5005 2.13835 59.2897 -0.107131 56.5512 0.00396742C51.2848 0.21749 50.861 12.9449 51.4784 21.5454C49.7437 29.1519 43.9263 38.651 44.6821 19.6223C44.7568 18.2874 44.8382 17.7806 44.188 17.2808C43.7007 16.8924 42.5928 17.0793 41.9871 17.0947C41.251 17.1249 41.0664 17.5657 40.9038 18.232C40.5248 19.9525 40.4567 21.6204 40.4025 23.8961C40.367 24.9606 40.2836 25.4574 39.883 26.9089C39.483 28.3602 37.2006 31.0129 35.951 30.5693C34.2174 29.9592 34.7861 24.9506 35.111 21.5093C35.3817 18.7897 34.5149 17.5685 32.294 17.1244C30.9938 16.8471 30.2039 16.8896 28.8498 16.4528C27.5693 16.0397 27.2797 13.5608 24.5486 14.3869C23.0549 14.8392 24.0152 18.0784 23.6561 20.4792C21.8911 32.289 18.2186 32.6133 16.5148 26.8765C24.1883 7.64236 18.7346 0.0596568 15.5422 0.0596568C12.2172 0.0596568 8.4164 2.40365 10.0258 17.4012C9.24327 17.1675 9.00265 17.0415 8.14597 17.0415C3.30093 17.0415 0 21.0501 0 25.9949C0 30.9398 3.30121 34.9486 8.14624 34.9486C11.0064 34.9486 13.0145 33.6174 14.5354 31.558C15.5277 33.0124 16.736 34.971 18.9456 34.8829C25.5319 34.6204 27.4474 20.7934 27.6735 20.0222C28.3776 20.1333 29.0437 20.3435 29.6939 20.4546C30.7773 20.6211 30.856 21.0599 30.8314 22.175C30.5443 31.579 32.2399 34.8717 36.0861 34.8717C38.229 34.8717 40.1389 32.7168 41.4547 31.176C42.4375 33.2519 44.0034 34.8081 46.1043 34.8714C51.1948 35.0009 53.1439 26.6971 52.9662 27.7899C52.8267 28.6473 54.6177 34.8246 59.8584 34.847C66.3501 34.875 67.5568 27.5688 67.7006 26.345C67.7186 26.1016 67.7266 26.1267 67.7006 26.345L67.6957 26.4192C69.7566 26.0268 70.82 24.896 70.82 24.896C70.82 24.896 72.4748 34.9606 78.6047 34.8473C84.9703 34.7292 86.1707 28.1249 86.3282 26.837C86.349 26.5314 86.3613 26.5672 86.3282 26.837C86.3274 26.8496 86.3266 26.8622 86.3258 26.8748C88.7739 25.9633 89.4178 25.0485 89.4178 25.0485C89.4178 25.0485 90.733 34.9131 97.2026 34.9993C102.968 35.0765 105.104 29.0343 105.117 26.5054C106.089 26.516 107.888 25.9149 107.846 25.8808C107.846 25.8808 109.958 34.5056 115.855 34.9486C118.624 35.1565 120.701 33.3541 121.885 32.5319C124.667 34.8381 133.933 37.7837 139.783 27.6323C140.609 26.1754 138.833 24.4544 138.522 24.2297ZM7.91245 31.6C5.08566 31.6 3.27304 28.9249 3.27304 26.0406C3.27304 23.1565 4.93691 20.4814 7.7637 20.4814C9.03573 20.4814 9.74339 20.6247 10.7341 21.5065C10.9137 22.231 11.4228 23.9023 11.6706 24.6612C12.0025 25.6768 12.3974 26.5412 12.7955 27.482C12.2267 29.8952 10.3622 31.6 7.91245 31.6ZM14.8009 21.5913C14.6833 21.3996 14.7079 21.5174 14.5764 21.3363C14.0582 19.8937 13.0596 16.6738 12.944 13.0165C12.8133 8.87928 13.487 4.02983 15.4733 4.02983C16.8191 4.02983 18.2495 13.858 14.8006 21.5913H14.8009ZM54.6027 17.2805C54.2839 14.8254 54.2672 3.88067 56.8345 4.18207C58.252 4.76974 55.9357 15.0975 54.6027 17.2805ZM73.3493 17.2805C73.0304 14.8254 73.0138 3.88067 75.5811 4.18207C76.9986 4.76974 74.6823 15.0975 73.3493 17.2805ZM91.9471 17.4331C91.628 14.9777 91.6116 4.03291 94.1786 4.3343C95.5961 4.92198 93.2798 15.25 91.9471 17.4331ZM112.479 3.5415C114.826 3.29244 114.729 13.7827 110.018 20.4056C109.41 18.0118 108.479 4.36341 112.479 3.54122V3.5415ZM122.345 26.1144C121.591 22.217 123.539 19.6573 125.547 19.3766C126.249 19.2618 127.266 19.7272 127.469 20.5973C127.802 22.2369 127.42 24.669 122.926 27.7549C122.932 27.7812 122.513 26.9825 122.345 26.1144H122.345Z" fill="#B8BCC2"/>
</svg>
