<svg width="140" height="42" viewBox="0 0 140 42" fill="none" xmlns="http://www.w3.org/2000/svg">
<path d="M29.7941 10.1008V23.7101C29.7941 23.9307 29.7069 24.1423 29.5516 24.2983C29.3964 24.4543 29.1859 24.5419 28.9663 24.5419H24.691C24.4715 24.5418 24.261 24.4542 24.1058 24.2982C23.9506 24.1422 23.8633 23.9307 23.8633 23.7101V1.57387C23.8633 1.35327 23.9505 1.1417 24.1057 0.985712C24.2609 0.829722 24.4715 0.742087 24.691 0.742087H28.6473C28.8669 0.742087 29.0774 0.829722 29.2327 0.985712C29.3879 1.1417 29.4751 1.35327 29.4751 1.57387V4.69125C29.4751 4.69125 30.8894 0.244408 35.0866 0.244408C35.0866 0.244408 39.2382 -0.259872 40.9262 4.37034C40.9262 4.37034 42.3405 0.244408 46.6289 0.244408C46.6289 0.244408 53.0065 -0.136645 53.0065 6.49455L53.055 10.1466V23.756C53.055 23.9766 52.9678 24.1882 52.8126 24.3441C52.6573 24.5001 52.4468 24.5878 52.2273 24.5878H47.9516C47.7321 24.5877 47.5216 24.5 47.3664 24.344C47.2111 24.1881 47.1239 23.9766 47.1238 23.756L47.0848 8.90886C47.2063 5.54687 44.4996 5.79149 44.4996 5.79149C41.0933 5.85274 41.4211 10.1466 41.4211 10.1466V23.756C41.4211 23.9766 41.3339 24.1882 41.1786 24.3441C41.0234 24.5001 40.8129 24.5878 40.5933 24.5878H36.318C36.0985 24.5877 35.888 24.5 35.7328 24.344C35.5776 24.1881 35.4903 23.9766 35.4902 23.756V9.24481C35.4902 9.24481 35.7403 5.76069 32.6986 5.76069C32.6989 5.76069 29.6879 5.3635 29.7941 10.1008ZM140 10.0601V23.6691C140 23.8896 139.913 24.1012 139.757 24.2571C139.602 24.4131 139.392 24.5008 139.172 24.5009L134.726 24.5874C134.506 24.5873 134.296 24.4996 134.141 24.3437C133.985 24.1877 133.898 23.9762 133.898 23.7556V9.24481C133.898 9.24481 134.148 5.76069 131.107 5.76069C131.107 5.76069 128.202 5.61692 128.202 11.0797V23.7098C128.202 23.9303 128.114 24.1419 127.959 24.2978C127.804 24.4538 127.594 24.5415 127.374 24.5416H123.098C122.879 24.5415 122.668 24.4538 122.513 24.2978C122.358 24.1419 122.271 23.9303 122.271 23.7098V1.57387C122.271 1.3533 122.358 1.14179 122.513 0.985819C122.668 0.82985 122.879 0.742184 123.098 0.742087H127.055C127.274 0.742087 127.485 0.829722 127.64 0.985712C127.795 1.1417 127.882 1.35327 127.882 1.57387V4.69125C127.882 4.69125 129.297 0.244408 133.494 0.244408C133.494 0.244408 137.99 -0.441046 139.504 4.28415C139.505 4.28379 140 5.25861 140 10.0601ZM109.13 0.152721C103.663 0.152721 99.2305 4.78293 99.2305 12.5764C99.2305 19.4379 102.652 25 109.13 25C115.244 25 119.03 19.4379 119.03 12.5764C119.03 4.92046 114.598 0.152721 109.13 0.152721ZM112.581 12.8514C112.581 15.7854 112.216 17.3441 112.216 17.3441C111.697 20.4457 109.456 20.4501 109.126 20.4336C108.769 20.4479 106.51 20.4156 106.042 17.3441C106.042 17.3441 105.677 15.7854 105.677 12.8514V12.3625C105.677 9.42855 106.042 7.86986 106.042 7.86986C106.51 4.79834 108.77 4.76606 109.126 4.78C109.456 4.7635 111.697 4.76753 112.216 7.86986C112.216 7.86986 112.581 9.42855 112.581 12.3625V12.8514ZM96.7491 4.66044V1.48439C96.749 1.26381 96.6617 1.0523 96.5065 0.896333C96.3513 0.740363 96.1408 0.652697 95.9213 0.6526H81.7895C81.5699 0.6526 81.3594 0.740235 81.2041 0.896225C81.0489 1.05222 80.9617 1.26378 80.9617 1.48439V4.63587C80.9618 4.85644 81.049 5.06795 81.2043 5.22392C81.3595 5.37989 81.57 5.46756 81.7895 5.46765H89.1609L80.4358 18.1865C80.4358 18.1865 80.092 18.7022 80.1033 19.2717V23.1406C80.1033 23.1406 80.0463 24.4671 81.5435 23.6973C81.5435 23.6973 84.2027 22.0829 88.6616 22.0829C88.6616 22.0829 93.065 22.0279 96.0008 23.8363C96.0008 23.8363 97.2195 24.393 97.2195 23.1688V19.8013C97.2195 19.8013 97.3301 18.9101 96.1669 18.3538C96.1669 18.3538 92.788 16.4892 88.3568 16.7951L96.7491 4.66044ZM20.5635 20.5832L19.2252 18.536C18.7992 17.7717 18.8299 16.9157 18.8299 16.9157V7.47231C19.0124 -0.687869 10.0095 0.0151896 10.0095 0.0151896C2.00638 0.0151896 0.824231 6.27377 0.824231 6.27377C0.490644 7.53209 1.46075 7.56253 1.46075 7.56253L5.37145 7.96118C5.37145 7.96118 6.03826 8.11449 6.28097 7.31681C6.28097 7.31681 6.79594 4.58636 9.67596 4.58636C12.8096 4.58636 12.7771 7.28893 12.7771 7.28893V9.55141C6.52148 9.76156 3.62249 11.5066 3.62249 11.5066C-0.240035 13.707 0.00303779 18.0776 0.00303779 18.0776C0.00303779 25.1984 6.75507 24.8925 6.75507 24.8925C11.0738 24.8925 13.6286 21.7143 13.6286 21.7143C14.3889 23.0595 15.7882 24.3424 15.7882 24.3424C16.4882 25.1053 17.2178 24.4649 17.2178 24.4649L20.381 21.7451C21.0803 21.225 20.5635 20.5832 20.5635 20.5832ZM8.8628 20.4952C6.83135 20.4952 6.07621 18.4667 6.41345 16.4731C6.75105 14.4794 8.50439 12.9127 12.7775 12.9585V14.1706C12.929 19.4657 10.5537 20.4952 8.8628 20.4952ZM77.3776 20.5832L76.0396 18.536C75.6137 17.7717 75.644 16.9157 75.644 16.9157V7.47231C75.8265 -0.687869 66.8237 0.0151896 66.8237 0.0151896C58.8205 0.0151896 57.6384 6.27377 57.6384 6.27377C57.3048 7.53209 58.2749 7.56253 58.2749 7.56253L62.1856 7.96118C62.1856 7.96118 62.8524 8.11449 63.0951 7.31681C63.0951 7.31681 63.6101 4.58636 66.4901 4.58636C69.6238 4.58636 69.5913 7.28893 69.5913 7.28893V9.55141C63.336 9.76156 60.4366 11.5066 60.4366 11.5066C56.5741 13.707 56.8172 18.0776 56.8172 18.0776C56.8172 25.1984 63.5692 24.8925 63.5692 24.8925C67.8879 24.8925 70.4428 21.7143 70.4428 21.7143C71.2034 23.0595 72.602 24.3424 72.602 24.3424C73.302 25.1053 74.0319 24.4649 74.0319 24.4649L77.1948 21.7451C77.8945 21.225 77.3776 20.5832 77.3776 20.5832ZM65.6769 20.4952C63.6455 20.4952 62.8904 18.4667 63.2276 16.4731C63.5652 14.4794 65.3185 12.9127 69.5913 12.9585V14.1706C69.7431 19.4657 67.3682 20.4952 65.6769 20.4952Z" fill="#B8BCC2"/>
<path d="M88.2652 38.0607C88.2652 38.0607 87.9084 38.6816 88.3467 38.8203C88.3467 38.8203 88.8419 39.0136 89.4595 38.4405C89.4595 38.4405 93.9632 34.5062 94.0717 27.3433C94.0717 27.3433 94.1049 26.4487 93.7459 26.204C93.7459 26.204 92.3349 24.9558 87.2613 25.3356C87.2613 25.3356 82.8388 25.6342 80.4243 27.7777C80.4243 27.7777 80.2073 27.9674 80.2073 28.2114C80.2073 28.2114 80.1552 28.7383 81.4824 28.51C81.4824 28.51 85.9046 27.8855 88.5365 28.2114C88.5365 28.2114 89.8935 28.3741 90.2733 28.8358C90.2733 28.8358 90.8974 29.3514 90.5715 31.0602C90.5715 31.061 89.6758 35.402 88.2652 38.0607Z" fill="#B8BCC2"/>
<path d="M87.3736 31.1885C87.3736 31.1885 88.0342 32.0442 86.9684 32.7823C86.9684 32.7823 75.5835 41.8888 56.4674 41.8888C56.4674 41.8888 36.7897 42.8596 20.3589 27.9308C20.3589 27.9308 19.7829 27.425 20.1404 26.9549C20.1404 26.9549 20.4601 26.5224 21.2878 26.9928C21.2878 26.9928 36.7442 36.6241 57.0437 36.6241C57.0437 36.6241 71.1533 37.1702 85.627 30.9803C85.627 30.9803 86.7801 30.3827 87.3736 31.1885Z" fill="#B8BCC2"/>
</svg>
