<svg width="140" height="28" viewBox="0 0 140 28" fill="none" xmlns="http://www.w3.org/2000/svg">
<path d="M70.7103 24.8747C70.7103 25.3675 70.7103 25.4795 71.0382 25.7819L72.8748 27.6187V27.6971H64.7316V24.1691C63.9118 26.4942 61.7441 28.032 59.3316 27.9995C55.1453 27.9995 52.1065 24.6395 52.1065 18.4571C52.1065 12.6668 55.3855 8.80279 59.9874 8.80279C62.0274 8.67137 63.9258 9.87537 64.7205 11.8044V4.02078C64.7504 3.84447 64.7314 3.66324 64.6658 3.49718C64.6002 3.33112 64.4904 3.18671 64.3488 3.07999L62.5999 1.35519V1.27679L70.7103 0.302399V24.8747ZM64.7316 23.7547V12.1404C64.4423 11.7707 64.073 11.4733 63.6521 11.2714C63.2313 11.0694 62.7704 10.9682 62.3048 10.9756C60.3264 10.9756 58.4135 12.8124 58.4135 18.2667C58.4135 23.3739 60.064 25.1771 62.1191 25.1771C62.6343 25.1654 63.1395 25.0305 63.5935 24.7833C64.0474 24.5361 64.4373 24.1836 64.7312 23.7547H64.7316ZM76.1103 27.6971V12.0172C76.1361 11.8451 76.1196 11.6693 76.0624 11.5052C76.0053 11.3411 75.9091 11.1938 75.7824 11.0764L73.9786 9.17238V9.09398H82.1222V24.9979C82.1222 25.4907 82.1222 25.6027 82.4501 25.9051L84.2428 27.6299V27.7083L76.1103 27.6971ZM75.8152 3.35961C75.8152 1.50415 77.2833 0 79.0941 0C80.9049 0 82.3734 1.50453 82.3734 3.35998C82.3734 5.21544 80.9053 6.71997 79.0945 6.71997C77.2837 6.71997 75.8152 5.21544 75.8152 3.35998V3.35961ZM104.093 24.8411C104.093 25.3339 104.093 25.4795 104.42 25.7819L106.257 27.6187V27.6971H98.07V23.6763C97.3243 26.2187 95.053 27.9696 92.4626 27.9995C88.8337 27.9995 86.8881 25.2891 86.8881 20.1595C86.8881 17.6843 86.8881 14.974 86.9643 11.9276C86.9939 11.7605 86.9792 11.5884 86.9215 11.429C86.8639 11.2696 86.7655 11.1286 86.6364 11.0204L84.833 9.17238V9.09398H92.9106V19.3195C92.9106 22.6795 93.3918 24.9195 95.4465 24.9195C95.9916 24.8835 96.5192 24.7099 96.9812 24.4146C97.4432 24.1192 97.825 23.7114 98.0917 23.2283V12.0284C98.1175 11.8563 98.1011 11.6805 98.0439 11.5164C97.9867 11.3523 97.8905 11.205 97.7638 11.0876L95.9494 9.17238V9.09398H104.093V24.8411ZM131.813 27.6971C131.813 27.0923 131.922 19.3867 131.922 17.6171C131.922 14.2572 131.408 11.9388 129.102 11.9388C128.528 11.9579 127.967 12.1138 127.463 12.3941C126.96 12.6743 126.529 13.0709 126.206 13.5516C126.437 14.5988 126.547 15.6702 126.533 16.7435C126.533 19.0731 126.457 22.0411 126.424 25.0091C126.394 25.1762 126.409 25.3483 126.467 25.5077C126.524 25.6671 126.623 25.8081 126.752 25.9163L128.589 27.6411V27.7195H120.369C120.369 27.1595 120.478 19.4091 120.478 17.6395C120.478 14.2236 119.964 11.9612 117.691 11.9612C117.137 11.9826 116.598 12.1459 116.124 12.4358C115.65 12.7257 115.256 13.1327 114.98 13.6188V25.0427C114.98 25.5355 114.98 25.6475 115.308 25.9499L117.1 27.6747V27.7531H108.968V12.0732C108.994 11.9011 108.977 11.7253 108.92 11.5612C108.863 11.3971 108.767 11.2498 108.64 11.1324L106.836 9.17238V9.09398H114.98V13.0812C115.735 10.4492 118.141 8.68033 120.817 8.79158C123.528 8.79158 125.364 10.3372 126.14 13.2716C127.002 10.5653 129.483 8.7494 132.261 8.79158C135.89 8.79158 137.945 11.5356 137.945 16.7211C137.945 19.1963 137.869 22.0187 137.836 24.9867C137.804 25.1581 137.823 25.3351 137.889 25.4961C137.955 25.6572 138.065 25.7954 138.207 25.8939L140 27.6187V27.6971H131.813ZM29.5127 25.2555L31.9285 27.6187V27.6971H19.6752V27.6187L22.1347 25.2555C22.2638 25.1473 22.3622 25.0063 22.4199 24.8469C22.4775 24.6875 22.4922 24.5154 22.4626 24.3483V9.23958C22.4626 8.60119 22.4626 7.73879 22.5717 6.99959L14.308 27.9999H14.21L5.65121 8.67996C5.46516 8.19836 5.41063 8.16476 5.29016 7.83996V20.5071C5.18774 21.3544 5.32831 22.2138 5.69505 22.9823L9.13795 27.6191V27.6975H0V27.6191L3.44326 22.9711C3.80704 22.2056 3.94727 21.3507 3.84742 20.5071V6.50717C3.9038 5.81895 3.70081 5.13464 3.27932 4.59198L0.841842 1.35519V1.27679H9.58632L16.9098 17.6399L23.359 1.27679H31.9174V1.35519L29.5127 4.09918C29.3711 4.20591 29.2613 4.35031 29.1957 4.51637C29.1301 4.68244 29.1112 4.86367 29.141 5.03998V24.3487C29.1097 24.5202 29.1281 24.6972 29.1942 24.8582C29.2603 25.0193 29.371 25.1574 29.5131 25.2559L29.5127 25.2555ZM39.0991 17.6843V17.7627C39.0991 22.5563 41.5148 24.4827 44.3457 24.4827C46.7095 24.5652 48.8976 23.207 49.9203 21.0219H49.9969C49.0133 25.7595 46.1492 27.9995 41.8644 27.9995C37.2407 27.9995 32.8794 25.1435 32.8794 18.5243C32.8794 11.5692 37.2518 8.79158 42.0829 8.79158C45.9745 8.79158 50.1171 10.6732 50.1171 16.7211V17.6843H39.0991ZM39.0991 16.7211H44.4879V15.7468C44.4879 10.8188 43.4932 9.50838 41.9956 9.50838C40.1811 9.50838 39.0773 11.4684 39.0773 16.7211H39.0991Z" fill="#B8BCC2"/>
</svg>
