<svg width="51" height="211" viewBox="0 0 51 211" fill="none" xmlns="http://www.w3.org/2000/svg">
<path fill-rule="evenodd" clip-rule="evenodd" d="M42.2378 189.035C47.0075 194.954 50.1002 202.202 50.9982 210.003H50.9942C51.1224 211.362 49.1011 211.302 48.9342 210.003C48.7507 208.597 48.4793 207.203 48.1218 205.832C46.5525 200.131 43.7639 194.934 40.0287 190.565C40.8086 190.107 41.5462 189.595 42.2378 189.035ZM41.0244 156.575C45.8658 161.18 48.7396 167.554 48.977 174.324C49.1327 180.078 46.5955 185.508 42.2378 189.035C41.6008 188.245 40.9339 187.478 40.2383 186.737C40.5468 186.514 40.8495 186.282 41.1462 186.041C45.4215 181.78 47.0142 175.468 45.2822 169.651C43.9744 165.316 41.5674 161.444 38.3429 158.397C39.2831 157.861 40.1796 157.251 41.0244 156.575ZM39.7254 124.638C40.4499 125.301 41.1455 126.001 41.8093 126.736C47.3549 132.486 49.3964 140.827 47.1451 148.537C45.7634 151.737 43.6427 154.478 41.0244 156.575C40.6283 156.198 40.2191 155.833 39.797 155.481C39.4171 155.136 39.0308 154.799 38.6384 154.471C41.7635 152.144 44.0297 148.708 44.8845 144.712C45.3996 137.807 42.5087 131.091 37.164 126.777C37.1408 126.757 37.1176 126.738 37.0943 126.718C38.029 126.096 38.9084 125.4 39.7254 124.638ZM40.2454 96.1439C41.4689 97.5368 42.5837 99.0461 43.5723 100.662C46.1457 105.424 46.7353 111.031 45.2098 116.236C44.0751 119.473 42.1822 122.35 39.7254 124.638C38.8964 123.88 38.0295 123.169 37.1291 122.508C37.4596 122.252 37.7851 121.986 38.1051 121.712C41.2666 118.653 42.9803 114.366 42.8107 109.94C42.4891 105.479 40.7008 101.262 37.7399 97.9587C38.6129 97.4109 39.45 96.8047 40.2454 96.1439ZM40.8907 67.3703C43.4421 70.2688 45.3579 73.7091 46.4829 77.4655C47.9452 82.6535 46.927 88.2361 43.7315 92.5516C42.693 93.8798 41.523 95.0824 40.2454 96.1439C39.5458 95.3474 38.8106 94.5889 38.0432 93.8703C41.2127 91.4744 43.3221 87.8836 43.8728 83.8848C43.6606 78.4201 41.6314 73.3457 38.3073 69.3556C38.5246 69.2312 38.74 69.1034 38.9535 68.9719C39.664 68.5124 40.313 67.9739 40.8907 67.3703ZM37.6297 11.27L37.6593 11.4771C39.6909 25.5465 41.6584 39.625 43.5619 53.7126C44.0999 56.5522 44.1246 59.4672 43.6348 62.3157C43.1801 64.2343 42.2254 65.976 40.8907 67.3703C40.1814 66.5644 39.4229 65.8004 38.6186 65.0832C38.9836 64.6776 39.3135 64.2359 39.6024 63.7622C40.8563 61.7068 41.234 59.2239 40.6491 56.8812C40.3172 52.794 39.6798 48.7069 39.0445 44.6332C38.76 42.8087 38.4759 40.987 38.2198 39.1691C36.6629 28.0054 35.1215 16.8405 33.5957 5.67439C33.6112 5.65314 33.6267 5.6319 33.6422 5.61064C33.6187 5.57349 33.5952 5.53633 33.5718 5.49913C33.5798 5.55756 33.5877 5.61597 33.5957 5.67439C32.9354 6.58102 32.278 7.48979 31.6206 8.39854C30.3235 10.1915 29.0264 11.9845 27.7069 13.7612C27.2159 14.5682 26.1856 14.8413 25.3676 14.3813C24.5577 13.8942 24.2841 12.838 24.7536 12.0105C26.0757 10.2314 27.4204 8.46852 28.765 6.70558C29.9215 5.1893 31.0781 3.673 32.2203 2.14636C32.2815 2.0105 32.3667 1.88332 32.476 1.77155C32.5022 1.74478 32.5292 1.71942 32.557 1.69547C32.7916 1.38068 33.0256 1.06541 33.2587 0.749573C33.9704 -0.212402 35.9615 -0.412994 36.1828 1.1371L36.6927 4.70782C37.8695 6.21721 38.9839 7.77721 40.0325 9.38373L42.9692 13.3995C43.9715 14.6185 44.8863 15.9099 45.7066 17.2635C46.0714 17.9483 45.8954 18.8025 45.2914 19.2787C44.6874 19.7548 43.8344 19.7118 43.2793 19.1771C42.2279 17.9274 41.2654 16.6022 40.3993 15.2119L37.6835 11.3387C37.6656 11.3158 37.6476 11.2929 37.6297 11.27ZM35.4454 3.15543C35.6359 2.8987 35.8268 2.6423 36.0182 2.38629L34.6432 2.20407C34.9135 2.51871 35.1809 2.83585 35.4454 3.15543ZM34.2077 2.14636L34.5246 2.18835C34.6662 2.51328 34.7971 2.84102 34.9277 3.16818C34.987 3.31677 35.0463 3.46524 35.1065 3.61328C34.7525 4.09259 34.3999 4.57297 34.0483 5.05406C33.8465 4.8623 33.6406 4.67596 33.4339 4.48999C33.3548 3.9104 33.2757 3.33081 33.1967 2.75122L34.2077 2.14636ZM36.09 67.0312C36.8811 67.7558 37.6218 68.5326 38.3073 69.3556C36.0629 70.6398 33.624 71.5427 31.0877 72.0265C24.8438 73.4705 18.3683 73.5513 12.0912 72.2636C9.14278 71.7997 6.27862 70.8947 3.5924 69.5783C1.14182 68.4168 -0.202806 65.7035 0.341232 63.0178C1.12111 60.6993 2.81304 58.8114 5.01532 57.8022C7.43392 56.6636 10.0622 56.0547 12.7287 56.015C21.5113 55.5452 30.1644 58.3164 37.0857 63.8156C37.6134 64.2197 38.1246 64.6426 38.6186 65.0832C37.8982 65.8835 37.0409 66.5433 36.09 67.0312ZM36.09 67.0312C33.6298 64.778 30.6815 63.0296 27.3826 61.9692C22.7383 60.0565 17.7289 59.2275 12.7255 59.5437C10.5089 59.5738 8.32802 60.1148 6.34827 61.1257C4.73224 61.6772 3.64856 63.2182 3.66168 64.9463C5.08669 66.8841 7.26136 68.1119 9.63723 68.32C12.2227 69.0817 14.8783 69.5736 17.5625 69.788C23.1182 70.2843 28.715 69.6027 33.9965 67.7866C34.7295 67.6239 35.4321 67.3687 36.09 67.0312ZM35.1482 95.6889C35.9203 96.286 36.6703 96.9182 37.3961 97.5849C37.5124 97.7081 37.627 97.8327 37.7399 97.9587C35.6467 99.272 33.3469 100.25 30.9199 100.84C24.4395 102.153 17.7509 101.974 11.3481 100.316C9.5639 99.9404 7.78784 99.5316 6.01987 99.0894C4.79027 98.8446 3.60974 98.3931 2.52712 97.7535C0.274835 96.2231 -0.602317 93.2968 0.429406 90.7553C3.64821 85.8496 9.61889 83.6038 15.2164 85.1932C23.7641 84.9487 31.9275 88.1435 38.0432 93.8703C37.7528 94.0899 37.4534 94.2994 37.1455 94.4983C36.4968 94.9285 35.8302 95.3255 35.1482 95.6889ZM35.1482 95.6889C27.9412 90.1146 18.8234 87.6025 9.75329 88.7767C7.50943 88.6176 5.33582 89.6067 3.96219 91.4118C3.46967 92.1887 3.3564 93.1518 3.65493 94.0242C4.15876 94.7931 4.94943 95.3214 5.84532 95.4877C11.4613 97.3632 17.3213 98.3819 23.233 98.5104C27.3898 98.6153 31.4903 97.6377 35.1482 95.6889ZM34.1031 124.521C35.1353 125.182 36.1347 125.915 37.0943 126.718C36.5608 127.074 36.0092 127.405 35.441 127.711C24.349 132.646 11.5157 131.322 1.63234 124.224C1.10689 123.899 0.786305 123.32 0.786305 122.696C0.786305 122.073 1.10689 121.494 1.63234 121.169C8.32836 116.965 16.3399 115.468 24.0752 116.975C28.8172 117.778 33.2799 119.684 37.1291 122.508C36.1611 123.259 35.1494 123.93 34.1031 124.521ZM6.08453 122.763C15.1116 118.452 25.6973 119.132 34.1031 124.521C26.8889 128.594 18.028 128.848 10.492 124.935C8.98954 124.281 7.5188 123.556 6.08453 122.763ZM6.08453 122.763C5.17166 123.198 4.27474 123.685 3.39761 124.224V121.169C4.27772 121.727 5.17377 122.259 6.08453 122.763ZM35.6934 156.212C36.6276 156.882 37.5124 157.612 38.3429 158.397C36.1195 159.664 33.6519 160.522 31.0472 160.888C22.2009 161.727 13.3007 160.017 5.37116 155.955C4.48624 155.687 3.96665 154.761 4.19297 153.853C4.67405 152.494 5.40698 151.241 6.35232 150.16C10.6672 146.355 16.5654 144.972 22.0913 146.468C28.1786 147.722 33.8597 150.474 38.6384 154.471C37.7254 155.151 36.7392 155.736 35.6934 156.212ZM8.18356 153.631C10.5889 150.379 14.6229 148.724 18.6449 149.445C24.1556 149.925 29.4438 151.87 33.9753 155.084C34.5648 155.438 35.1379 155.814 35.6934 156.212C34.5926 156.714 33.4258 157.096 32.2092 157.341C24.0012 158.663 15.6052 157.358 8.18356 153.631ZM8.18356 153.631C7.91906 153.989 7.67426 154.365 7.45134 154.761L6.67442 152.832C7.17266 153.11 7.67583 153.376 8.18356 153.631ZM37.8461 188.212C38.6053 188.966 39.3334 189.751 40.0287 190.565C40.0114 190.575 39.994 190.585 39.9765 190.595C34.5205 193.266 28.3475 194.038 22.4143 192.793C19.2712 192.294 16.1849 191.48 13.2011 190.363C10.0774 189.474 7.19978 187.864 4.79444 185.658C2.53318 183.469 2.28127 179.898 4.21231 177.406C6.32104 175.276 9.19907 174.116 12.1749 174.196C18.5713 174.13 24.8663 175.817 30.3944 179.079C34.096 181.124 37.405 183.718 40.2383 186.737C39.4734 187.289 38.6737 187.781 37.8461 188.212ZM37.8461 188.212C34.6828 185.071 30.9807 182.464 26.867 180.542C21.9809 178.041 16.516 176.931 11.0561 177.333C8.74433 177.244 6.64687 178.697 5.88806 180.912C6.50699 183.602 8.58283 185.702 11.2392 186.323C16.2471 188.668 21.6512 190.02 27.1603 190.308C30.8732 190.656 34.5772 189.914 37.8461 188.212Z" fill="#E7C4B2"/>
</svg>
